<?xml version="1.0" encoding="UTF-8"?>
<!-- Generator: visioncortex VTracer -->
<svg id="svg" version="1.1" xmlns="http://www.w3.org/2000/svg" style="display: block;" viewBox="0 0 5316 2545"><path d="M0 0 C8.37758817 0.55877709 16.3295654 1.95093621 24.5 3.875 C25.13739105 4.02483337 25.7747821 4.17466675 26.43148804 4.32904053 C63.32505989 13.07806976 98.87489078 26.56223732 133 43 C133.91217285 43.43489746 134.8243457 43.86979492 135.76416016 44.31787109 C150.64184852 51.43901876 164.86061438 59.51884922 179 68 C179.84111328 68.50063965 180.68222656 69.0012793 181.54882812 69.51708984 C213.32878201 88.44694459 242.68671557 111.10305669 270 136 C270.90878906 136.81597656 271.81757812 137.63195312 272.75390625 138.47265625 C283.09741612 147.82451138 293.41244242 157.46728581 302.4140625 168.13671875 C304.30191407 170.35471185 306.27702792 172.48242155 308.25 174.625 C313.22662265 180.14237622 317.80092935 185.94437784 322.3269043 191.83203125 C323.61989678 193.50746876 324.92278103 195.17527526 326.22973633 196.83984375 C332.44842836 204.79000352 338.23272345 212.96588604 343.8125 221.375 C344.24442657 222.02440552 344.67635315 222.67381104 345.12136841 223.34289551 C353.01593845 235.24234671 360.34027682 247.36042266 367 260 C367.5367334 261.01449219 368.0734668 262.02898437 368.62646484 263.07421875 C402.50659938 327.63806141 421.16952655 401.65266259 421.14476013 474.65289307 C421.14790371 476.17119651 421.15148074 477.68949911 421.15544754 479.20780063 C421.16503831 483.33632415 421.16867829 487.46483385 421.17129052 491.59336686 C421.17521801 496.06416865 421.18485399 500.53495861 421.19384766 505.00575256 C421.20873059 512.74511724 421.22030099 520.484481 421.22979546 528.22385406 C421.2437457 539.45156304 421.26494669 550.67925007 421.28822399 561.90694317 C421.32608627 580.17705197 421.36105442 598.44716475 421.39282227 616.71728516 C421.39472276 617.80913985 421.39662325 618.90099454 421.39858133 620.02593574 C421.42534425 635.47895986 421.44923989 650.93198709 421.47196633 666.3850176 C421.47356363 667.47080847 421.47516094 668.55659934 421.47680664 669.67529297 C421.47919684 671.30196106 421.47919684 671.30196106 421.48163532 672.96149114 C421.5085464 691.14292068 421.54300599 709.32432694 421.58346039 727.50573134 C421.60803011 738.68103318 421.62647005 749.85631019 421.636616 761.0316346 C421.64409464 768.71748908 421.65874911 776.40331012 421.67868023 784.08914229 C421.68989713 788.50057559 421.69821725 792.91195547 421.69767189 797.32340431 C421.69765865 814.54266515 421.92758486 831.70637869 422.90565491 848.90106201 C422.94522166 849.60975336 422.98478842 850.31844471 423.02555417 851.04861155 C424.93257237 884.35568603 428.7005327 923.15585092 451.0703125 949.61328125 C459.86441405 956.77754264 468.13685114 958.94369345 479.3125 958.5625 C480.53090576 958.53953857 481.74931152 958.51657715 483.00463867 958.49291992 C494.47273255 958.1796984 505.70920428 956.99926697 517 955 C517.92022949 954.83902832 518.84045898 954.67805664 519.78857422 954.51220703 C546.11720002 949.7347799 572.71052069 941.01256953 595.625 927 C596.22787842 926.63334229 596.83075684 926.26668457 597.4519043 925.88891602 C599.3620457 924.66305144 601.17092461 923.34442022 603 922 C603.82932228 921.42064428 604.65864456 920.84128856 605.51309782 920.2443766 C609.38433651 917.23112791 612.45394343 914.78191588 613.92247188 909.98974907 C614.26744128 906.39214058 614.29811742 902.91235755 614.22032166 899.29884338 C614.22667386 897.91952194 614.23742787 896.54021501 614.25217348 895.16095775 C614.2799316 891.38815421 614.24579034 887.61810486 614.20122206 883.84555709 C614.16408261 879.76946388 614.18497645 875.69361293 614.19882202 871.61743164 C614.2150434 864.55532742 614.19510348 857.49407368 614.1508007 850.4321003 C614.08689937 840.19359519 614.08139971 829.95569254 614.09039194 819.71702205 C614.10371816 803.06697002 614.07468135 786.41728121 614.0168457 769.76733398 C613.96103085 753.6612169 613.91735634 737.55517691 613.89575195 721.44897461 C613.8944155 720.45942209 613.89307906 719.46986958 613.89170211 718.45033062 C613.87751098 707.61786187 613.86779248 696.78539482 613.86265659 685.95291805 C613.8621918 684.99705055 613.861727 684.04118304 613.86124812 683.05634985 C613.85943113 679.23165789 613.85763597 675.40696603 613.85637695 671.58227383 C613.8525608 660.44091183 613.83532043 649.29976842 613.79288096 638.15848314 C613.76645986 631.15106117 613.74994939 624.14366308 613.74079763 617.1361974 C613.73502312 613.10862636 613.72431353 609.0812348 613.69959068 605.05373192 C613.30638723 539.02148958 630.65210836 473.45854434 669 419 C669.77499187 417.87517378 670.54971793 416.75016439 671.32421875 415.625 C676.31710337 408.43936808 681.64594201 401.67356831 687.375 395.0625 C689.69660737 392.38064321 691.87985291 389.60901658 694.0625 386.8125 C698.4059291 381.46976746 703.19839914 376.61903553 708.0625 371.75 C708.81861572 370.99307861 709.57473145 370.23615723 710.35375977 369.45629883 C762.87842258 317.44596739 832.82708828 286.57221226 906 279 C907.83111328 278.80277344 907.83111328 278.80277344 909.69921875 278.6015625 C991.85469738 271.5405806 1076.32234409 297.68367725 1139.8828125 350.16796875 C1143.30919494 353.05210259 1146.66579501 356.01014395 1150 359 C1150.51079102 359.45439453 1151.02158203 359.90878906 1151.54785156 360.37695312 C1162.33669237 369.99625314 1172.86389382 379.93409943 1181.84375 391.2890625 C1184.05606347 394.0704856 1186.36608462 396.74676854 1188.6875 399.4375 C1199.83134283 412.83087633 1209.32859139 427.42849659 1217.72070312 442.67626953 C1218.56081426 444.20225766 1219.40825985 445.7242353 1220.26367188 447.24169922 C1239.59801205 481.57448034 1251.13121695 519.87597495 1256.3125 558.8125 C1256.47202148 560.00182129 1256.63154297 561.19114258 1256.79589844 562.41650391 C1259.60244646 585.27469137 1259.14267891 608.36978679 1259.11606562 631.35612369 C1259.1116959 636.1015209 1259.11321211 640.84691701 1259.1139679 645.59231567 C1259.11448904 653.78890691 1259.11138528 661.9854901 1259.10573006 670.18207932 C1259.09755921 682.03257468 1259.09499415 693.88306621 1259.09374207 705.73356409 C1259.09156027 724.96609571 1259.08492396 744.19862305 1259.07543945 763.43115234 C1259.06624268 782.09977192 1259.05917296 800.76839033 1259.05493164 819.43701172 C1259.05466892 820.59018609 1259.05440619 821.74336045 1259.05413551 822.9314795 C1259.05283035 828.71734518 1259.05156667 834.50321087 1259.05032361 840.28907657 C1259.03997818 888.19272151 1259.02155462 936.09635853 1259 984 C1208.84 984 1158.68 984 1107 984 C1106.98018066 972.29047852 1106.96036133 960.58095703 1106.93994141 948.51660156 C1106.8750602 911.00112302 1106.80052273 873.48566917 1106.71994839 835.97022118 C1106.70743032 830.13769969 1106.69499742 824.30517803 1106.68261719 818.47265625 C1106.68015119 817.3115627 1106.6776852 816.15046915 1106.67514448 814.95419094 C1106.63547888 796.18245066 1106.60270417 777.41070441 1106.57250018 758.6389468 C1106.54132714 739.36082079 1106.50269294 720.08272002 1106.45720994 700.80462241 C1106.42940355 688.92011919 1106.40733669 677.03563431 1106.39273749 665.1511074 C1106.38215165 656.98865374 1106.36428345 648.82623571 1106.34083296 640.66380897 C1106.32753733 635.96270275 1106.31731387 631.2616462 1106.31578636 626.56052017 C1106.57352551 594.52663754 1106.57352551 594.52663754 1101.8125 562.9375 C1101.59891846 562.03177246 1101.38533691 561.12604492 1101.1652832 560.19287109 C1094.53199557 533.2411721 1081.50095238 508.62312045 1063 488 C1062.2265625 487.10539062 1061.453125 486.21078125 1060.65625 485.2890625 C1032.44694049 453.00728225 990.36012838 434.32446577 948 431 C904.86569835 428.54473947 861.38607398 441.24338328 828.1796875 469.390625 C826.51161616 470.89035887 824.85719124 472.40545105 823.21875 473.9375 C821.24262907 475.77445749 819.21045379 477.47811165 817.125 479.1875 C793.03922315 500.31111478 777.1981163 532.53175823 770.1875 563.3125 C769.99236816 564.15151855 769.79723633 564.99053711 769.59619141 565.85498047 C765.02049402 587.63497695 765.69059064 610.14015145 765.68332577 632.2715807 C765.67958685 637.00472598 765.66440993 641.73783749 765.65071106 646.47096252 C765.6285736 654.64626577 765.61347963 662.82155679 765.60334396 670.99688339 C765.58867953 682.81663186 765.56312165 694.63633766 765.53501268 706.4560609 C765.48968473 725.63866465 765.45301248 744.8212746 765.421875 764.00390625 C765.39163184 782.62403448 765.35725533 801.24414761 765.31738281 819.86425781 C765.31492126 821.01444518 765.31245972 822.16463256 765.30992357 823.34967409 C765.29754785 829.12055585 765.28509154 834.89143744 765.27259517 840.66231894 C765.16923725 888.44152805 765.08157644 936.22074777 765 984 C715.17 984 665.34 984 614 984 C613.67 968.49 613.34 952.98 613 937 C607.555 940.96 607.555 940.96 602 945 C598.57899446 947.26586081 595.15645232 949.49894314 591.6875 951.6875 C590.26763794 952.5846875 590.26763794 952.5846875 588.8190918 953.5 C570.02475989 965.31349123 550.84124904 976.03861438 531 986 C530.12214844 986.44359863 529.24429688 986.88719727 528.33984375 987.34423828 C487.5594472 1007.82444144 442.24535105 1020.95169108 397.30029297 1006.80664062 C390.86519557 1004.55005372 384.91246722 1001.36471008 379 998 C378.01644531 997.45601562 377.03289062 996.91203125 376.01953125 996.3515625 C347.84874511 979.68486363 332.11776012 948.08675514 324.01586914 917.47631836 C322.34956409 910.84175217 320.95837924 904.16989862 319.75 897.4375 C319.59885742 896.60186523 319.44771484 895.76623047 319.29199219 894.90527344 C315.72184745 873.47634599 315.70033049 852.05971273 315.71264386 830.41277647 C315.71306822 825.75806172 315.70191899 821.10337203 315.69218445 816.44866943 C315.67681324 808.40001038 315.66833788 800.35136867 315.66447449 792.30269623 C315.6586872 780.63012035 315.64003576 768.95759061 315.61803395 757.28503528 C315.58240009 738.29387226 315.55405508 719.3027066 315.53173828 700.31152344 C315.53040329 699.17767791 315.5290683 698.04383239 315.52769285 696.87562791 C315.51827168 688.83375215 315.50911025 680.79187611 315.5 672.75 C315.48960947 663.58430967 315.47908815 654.41861951 315.46826172 645.25292969 C315.46693098 644.12412489 315.46560023 642.9953201 315.46422917 641.8323091 C315.44169483 622.92071414 315.41145085 604.00913877 315.37586927 585.09756398 C315.35436955 573.47503204 315.33963041 561.85253059 315.33403051 550.2299799 C315.32973958 542.24471451 315.31838935 534.25947813 315.30180657 526.2742289 C315.29252853 521.6888267 315.28623854 517.10347853 315.28886986 512.51806641 C315.30187732 484.43657584 314.58447457 456.41533189 311.25 428.5 C311.16763092 427.797612 311.08526184 427.095224 311.00039673 426.37155151 C302.72782643 356.42967426 280.67482914 282.87586472 238 226 C237.5373877 225.38044434 237.07477539 224.76088867 236.59814453 224.12255859 C229.92357977 215.2444634 222.70637324 206.99245156 215 199 C214.38463379 198.35740234 213.76926758 197.71480469 213.13525391 197.05273438 C201.70900673 185.17376522 189.80266619 175.13649646 176.1875 165.875 C175.19484131 165.1929248 175.19484131 165.1929248 174.18212891 164.49707031 C166.47869415 159.37835256 158.1992449 155.2549536 150 151 C165.64036445 210.06255446 182.66652305 269.13947379 207.08203125 325.2578125 C235.33264223 390.2649959 267.03768326 493.94792629 243.19921875 564.22265625 C239.82454512 572.03826846 234.42360772 577.50299312 226.8125 581.25 C214.08480132 586.00394698 200.03877683 583.37469631 188 578 C149.41170612 558.86837897 129.7096144 517.8125932 116.31640625 479.03515625 C92.78661385 408.74705679 82.49060433 334.22790103 71.62109375 261.13671875 C59.36408167 178.75224914 39.82644246 98.84858827 8.13964844 21.62280273 C7.81694473 20.83609695 7.49424103 20.04939117 7.16175842 19.23884583 C6.56832068 17.79727039 5.97168454 16.35700451 5.37083435 14.91850281 C3.34325408 10.01810928 1.62266975 5.04827546 0 0 Z " transform="translate(1348,771)" style="fill: #FEFEFE;"/><path d="M0 0 C72.744375 -0.061875 145.48875 -0.12375 220.4375 -0.1875 C243.38982178 -0.21481201 266.34214355 -0.24212402 289.98999023 -0.27026367 C318.06066895 -0.28381348 318.06066895 -0.28381348 331.21009827 -0.28633118 C340.37568994 -0.28912123 349.54122634 -0.30009372 358.70680237 -0.31672668 C369.29367154 -0.33591028 379.88048797 -0.34448747 390.46737463 -0.34033485 C395.87550128 -0.33853841 401.28351026 -0.3412567 406.69161499 -0.35764539 C457.63176954 -0.50456522 457.63176954 -0.50456522 481.8125 5.75 C482.83400146 6.00531494 483.85550293 6.26062988 484.90795898 6.52368164 C494.82762798 9.07824523 504.46207661 12.27522957 514 16 C514.68288086 16.26361328 515.36576172 16.52722656 516.06933594 16.79882812 C539.27011922 25.90567764 560.91931667 39.8993911 579 57 C580.34912936 58.17248814 581.7031458 59.33938179 583.0625 60.5 C591.23472349 67.65479807 598.27840667 75.48143248 605 84 C605.79277344 84.97582031 606.58554687 85.95164062 607.40234375 86.95703125 C618.16423946 100.47315619 626.72142333 115.35766204 634 131 C634.52078125 132.11246094 635.0415625 133.22492188 635.578125 134.37109375 C643.57350718 152.23446078 648.65493638 170.74860599 652 190 C652.13277344 190.74685059 652.26554687 191.49370117 652.40234375 192.26318359 C661.63213527 246.98080999 646.93930682 306.82636268 615.53417969 352.11376953 C602.31323406 370.67981694 587.14850778 388.11034204 569 402 C568.44086914 402.43022461 567.88173828 402.86044922 567.30566406 403.30371094 C541.4728537 423.07472115 512.03129222 436.98342346 480.4375 444.75 C479.25401978 445.04789429 479.25401978 445.04789429 478.04663086 445.35180664 C469.8006659 447.28983665 461.40913932 448.10083644 453 449 C455.27544163 455.07153915 457.5705166 461.13539902 459.87866211 467.19458008 C460.65977466 469.25182661 461.43656382 471.31072058 462.20874023 473.37133789 C468.1107207 489.45306438 468.1107207 489.45306438 477 504 C477.61141846 504.80832275 478.22283691 505.61664551 478.8527832 506.44946289 C491.3043522 522.29351992 513.42204636 529.46914687 532.74482727 531.79215813 C536.7937439 532.16531554 540.84065474 532.17895562 544.90429688 532.20532227 C545.87665535 532.21535499 546.84901382 532.22538771 547.85083771 532.23572445 C550.97345155 532.26690677 554.09607819 532.29179635 557.21875 532.31640625 C559.15657953 532.33482842 561.09440516 532.35366608 563.03222656 532.3729248 C570.18810487 532.44114463 577.34405784 532.50134299 584.5 532.5625 C608.5075 532.7790625 608.5075 532.7790625 633 533 C633 583.16 633 633.32 633 685 C608.806875 685.0928125 608.806875 685.0928125 584.125 685.1875 C579.08879395 685.21481201 574.05258789 685.24212402 568.86376953 685.27026367 C525.23865707 685.40994614 525.23865707 685.40994614 506 682 C504.96534607 681.82593124 504.96534607 681.82593124 503.90979004 681.64834595 C500.17180527 681.00780847 496.49346487 680.22233718 492.8125 679.3125 C491.74684814 679.0546875 490.68119629 678.796875 489.58325195 678.53125 C451.14765796 668.91451797 415.47623174 650.26009764 386.44140625 623.25390625 C384.35948771 621.33187905 382.23574103 619.50374045 380.0625 617.6875 C347.78527436 589.4121255 330.55703024 550.35158983 315.19784546 511.37664795 C313.26252593 506.47308939 311.31465218 501.57452624 309.3671875 496.67578125 C308.55506483 494.63257607 307.74296178 492.58936309 306.93087769 490.54614258 C306.31780573 489.0036937 306.31780573 489.0036937 305.69234848 487.43008423 C304.42910183 484.2502777 303.16727029 481.06991283 301.90579224 477.8894043 C295.5703165 461.92028071 289.18664736 445.97087636 282.77734375 430.03125 C282.30716387 428.86193436 281.83698399 427.69261871 281.35255623 426.48786926 C278.52760052 419.46333658 275.7012512 412.43936522 272.87449265 405.41555786 C270.65662969 399.90425937 268.43965739 394.39260279 266.22290039 388.88085938 C265.79550536 387.81821114 265.36811033 386.7555629 264.92776394 385.6607132 C261.56770529 377.30556776 258.21110933 368.94903388 254.85551548 360.59209442 C252.14927727 353.85445241 249.43556753 347.11985839 246.71822357 340.38668823 C244.83446976 335.71637221 242.95493557 331.0443653 241.07624817 326.37200928 C240.1770434 324.13839533 239.27601488 321.90551466 238.37309265 319.67340088 C237.12875705 316.59664957 235.89078902 313.51741012 234.65429688 310.4375 C234.2819693 309.52136932 233.90964172 308.60523865 233.52603149 307.66134644 C233.19094574 306.82306305 232.85585999 305.98477966 232.51062012 305.12109375 C232.07042164 304.02945923 232.07042164 304.02945923 231.62133026 302.91577148 C231 301 231 301 231 298 C232.58722414 297.99780016 232.58722414 297.99780016 234.2065134 297.99555588 C259.99852593 297.95889949 285.79040923 297.89936951 311.58231449 297.81609726 C324.05528531 297.77635187 336.52819345 297.7439365 349.0012207 297.72900391 C359.87749178 297.71596409 370.75362467 297.68893993 381.6298179 297.64538693 C387.38435165 297.62282464 393.1387153 297.60708618 398.8932972 297.60811615 C404.31965046 297.60886585 409.74562845 297.59079096 415.17188454 297.55883217 C417.15384965 297.55037618 419.13585707 297.54855368 421.11783218 297.55419731 C435.7348045 297.59024594 449.07045689 296.26320807 462.25 289.3125 C462.91128906 288.9707373 463.57257813 288.62897461 464.25390625 288.27685547 C481.17559757 279.21225044 493.38892483 263.57643718 498.97753906 245.26000977 C504.52247205 224.5908834 500.70190265 204.20629148 490.14160156 185.85742188 C479.97664544 169.31871653 463.8512268 159.13494191 445.28753853 154.33768249 C434.39100185 151.87753886 423.08103323 152.42136644 411.97619009 152.45121032 C408.42850756 152.45622239 404.88092529 152.4378481 401.33328247 152.42260361 C394.46933954 152.39652011 387.60553218 152.39060188 380.7415458 152.39202236 C372.78985773 152.39277791 364.83838031 152.36795739 356.88671875 152.34326172 C335.92452222 152.29061848 314.96225068 152.27238776 294 152.25 C247.14 152.1675 200.28 152.085 152 152 C152 327.89 152 503.78 152 685 C101.84 685 51.68 685 0 685 C0 458.95 0 232.9 0 0 Z " transform="translate(3704,1070)" style="fill: #FFFFFF;"/><path d="M0 0 C72.868125 -0.04125 145.73625 -0.0825 220.8125 -0.125 C243.8194458 -0.14320801 266.8263916 -0.16141602 290.53051758 -0.18017578 C318.6282959 -0.18920898 318.6282959 -0.18920898 331.78276062 -0.19088745 C340.96860277 -0.19275046 350.15442051 -0.20007816 359.34025574 -0.21115112 C369.94285714 -0.22391294 380.54543519 -0.2296646 391.14804433 -0.2268899 C396.56768541 -0.22568892 401.98727434 -0.22754714 407.40690577 -0.23843026 C412.31892829 -0.24823364 417.23086225 -0.24860119 422.14288902 -0.24180222 C423.90780164 -0.24096198 425.67272003 -0.24342942 427.43762147 -0.24976516 C442.67391878 -0.30119427 457.93157758 0.58253416 472.875 3.75 C474.10041504 4.00595947 474.10041504 4.00595947 475.35058594 4.26708984 C534.86882228 17.11169209 585.42229087 52.34281698 619 103 C642.51218507 139.49602403 654.4762769 181.55849361 654.375 224.875 C654.37478851 225.71873169 654.37457703 226.56246338 654.37435913 227.4317627 C654.32036787 249.17053832 651.48330954 270.20254248 645 291 C644.75942871 291.7832666 644.51885742 292.5665332 644.27099609 293.37353516 C636.11836305 319.43574664 623.30409164 343.8685236 606 365 C605.5884668 365.51304687 605.17693359 366.02609375 604.75292969 366.5546875 C593.97323995 379.98128789 581.78659195 392.65029216 568 403 C567.47760742 403.39348633 566.95521484 403.78697266 566.41699219 404.19238281 C557.64057739 410.75806222 548.50962204 416.56092652 539 422 C538.1335083 422.50611816 538.1335083 422.50611816 537.24951172 423.02246094 C513.1708002 437.01774265 481.17644439 449 453 449 C455.18080769 454.65837399 457.3681367 460.3141689 459.5612793 465.96777344 C460.30489469 467.8873425 461.04679158 469.80757829 461.78686523 471.72851562 C462.857187 474.50572275 463.93387598 477.28039198 465.01171875 480.0546875 C465.33589279 480.8998996 465.66006683 481.74511169 465.99406433 482.61593628 C473.46351117 501.76135307 483.79046959 514.76320583 502.4375 523.8125 C520.51869548 531.42287255 538.39055807 532.30936617 557.70703125 532.4140625 C559.63977818 532.43103291 561.57251783 532.4488534 563.50524902 532.4675293 C570.60758277 532.53028095 577.71005338 532.57668482 584.8125 532.625 C600.714375 532.74875 616.61625 532.8725 633 533 C633 583.16 633 633.32 633 685 C608.806875 685.0928125 608.806875 685.0928125 584.125 685.1875 C579.08879395 685.21481201 574.05258789 685.24212402 568.86376953 685.27026367 C525.33647913 685.40952602 525.33647913 685.40952602 506 682 C505.31494385 681.88631073 504.6298877 681.77262146 503.92407227 681.65548706 C500.22319343 681.03279102 496.58195784 680.26779223 492.9375 679.375 C491.87990479 679.12121582 490.82230957 678.86743164 489.73266602 678.60595703 C462.92212466 671.89587266 436.8397827 660.60897101 414 645 C413.40719238 644.60103516 412.81438477 644.20207031 412.20361328 643.79101562 C388.97183424 628.07967908 368.04721977 607.99277386 352 585 C351.56187988 584.38527832 351.12375977 583.77055664 350.67236328 583.13720703 C338.70385192 566.28912139 329.84387392 548.19642726 322.37527466 528.97555542 C320.92851123 525.25358675 319.46575321 521.53810811 317.99780273 517.82446289 C317.73388576 517.15666274 317.46996878 516.48886259 317.19805431 515.80082607 C316.64543215 514.40251969 316.0927651 513.00423105 315.54005623 511.60595894 C314.66675275 509.39486064 313.79519689 507.18307961 312.92393494 504.97117615 C307.68726479 491.68593832 302.36842289 478.43421201 297.03515625 465.1875 C296.59440954 464.09269821 296.15366283 462.99789642 295.69956017 461.86991882 C293.88037598 457.35148535 292.06093561 452.83315516 290.24114895 448.31496429 C275.39666992 411.45745624 260.59944481 374.58097103 245.89939499 337.66560745 C244.81560193 334.94528584 243.7305125 332.22548473 242.64505005 329.50582886 C240.96896853 325.30584467 239.29630609 321.10451645 237.62656403 316.90200806 C237.01983596 315.3763909 236.41197512 313.85122368 235.80290985 312.32653809 C234.98102749 310.26835212 234.1633897 308.20853277 233.34692383 306.14819336 C232.89037918 305.00088242 232.43383453 303.85357147 231.9634552 302.67149353 C231 300 231 300 231 298 C232.05722763 297.99853344 233.11445526 297.99706688 234.20372009 297.99555588 C259.979393 297.9588911 285.75493667 297.89935023 311.53050232 297.81609726 C323.99559737 297.77636056 336.46062977 297.7439408 348.92578125 297.72900391 C359.79583596 297.71595955 370.66575252 297.68892394 381.53572941 297.64538693 C387.2863826 297.62283476 393.0368658 297.60708557 398.78756714 297.60811615 C404.21146104 297.60886646 409.63498005 297.59076767 415.05877686 297.55883217 C417.03870938 297.55038369 419.01868421 297.54854846 420.99862671 297.55419731 C445.05309109 297.61363091 464.51155508 292.07797377 482.2109375 274.84765625 C496.83139266 259.35893651 501.55986207 240.38154126 501.2734375 219.6640625 C500.62839446 200.45966241 491.06890184 183.36344533 477.3125 170.3125 C462.49768913 158.03568462 444.92324636 152.68761241 425.93978882 152.7215271 C424.76616791 152.71574142 423.592547 152.70995575 422.38336182 152.70399475 C419.14641635 152.69000514 415.90959729 152.68479363 412.67262647 152.68335578 C409.12060204 152.67955972 405.56862328 152.66422298 402.01662636 152.6503849 C395.13171796 152.62526999 388.24682494 152.61024158 381.36188171 152.59880099 C373.39266865 152.58511918 365.42352999 152.55878433 357.4543457 152.5324707 C336.42792664 152.4692568 315.4014589 152.42317189 294.375 152.375 C247.39125 152.25125 200.4075 152.1275 152 152 C152 327.89 152 503.78 152 685 C101.84 685 51.68 685 0 685 C0 458.95 0 232.9 0 0 Z " transform="translate(725,1070)" style="fill: #FFFFFF;"/><path d="M0 0 C4.19324434 0.008759 8.38648387 0.00570568 12.5797348 0.00419545 C19.8186963 0.00315435 27.05762132 0.00934907 34.29657364 0.02067113 C44.76246151 0.03702948 55.22833202 0.04214462 65.69423129 0.04464711 C82.68062714 0.04900814 99.66700362 0.06227368 116.65338898 0.08125234 C133.13939062 0.0996526 149.62538695 0.11376576 166.11139679 0.12226796 C167.14050438 0.12280396 168.16961198 0.12333995 169.22990465 0.12389219 C177.27999583 0.12805182 185.33008712 0.13196539 193.38017845 0.13580132 C232.73624037 0.15461754 272.09225372 0.19486617 311.44831085 0.23213124 C311.44831085 50.39213124 311.44831085 100.55213124 311.44831085 152.23213124 C275.08901398 152.28820546 275.08901398 152.28820546 237.99518585 152.34541249 C222.63710752 152.37568907 207.27903587 152.40669544 191.9209671 152.44111562 C183.85081785 152.45916387 175.78066822 152.47702755 167.71051788 152.49458241 C166.6991539 152.4967901 165.68778991 152.49899779 164.64577854 152.50127238 C148.35030483 152.53657475 132.05483116 152.56147122 115.75933346 152.58247826 C99.01694272 152.60429475 82.2746013 152.63740033 65.53225255 152.6808328 C55.21392053 152.70724909 44.89564987 152.72501812 34.57728574 152.73147728 C27.48707743 152.736762 20.39694612 152.7530814 13.30677918 152.7777969 C9.225377 152.79170709 5.14411233 152.80102249 1.06268501 152.79713941 C-50.5742812 152.75827105 -96.52016196 166.05849756 -134.19231415 202.83369374 C-146.65089937 215.35395513 -156.45315647 229.58044678 -164.55168915 245.23213124 C-164.90360321 245.9046996 -165.25551727 246.57726796 -165.6180954 247.27021718 C-171.43112326 258.5155303 -175.32991139 270.00793746 -178.55168915 282.23213124 C-178.87008759 283.41033437 -179.18848602 284.58853749 -179.5165329 285.80244374 C-183.76282599 303.33688785 -183.88958511 321.89363888 -183.81243134 339.83930898 C-183.80167715 342.79793127 -183.81243401 345.75594848 -183.82512665 348.71455312 C-183.83881181 365.81156253 -183.25277728 383.2033564 -179.36418915 399.91963124 C-179.14770721 400.86838124 -178.93122528 401.81713124 -178.70818329 402.79463124 C-173.17877792 425.99135043 -162.60599347 448.66260865 -147.55168915 467.23213124 C-147.0608786 467.83960195 -146.57006805 468.44707265 -146.06438446 469.07295156 C-117.63845968 503.83936298 -77.20499445 526.50934254 -32.44734955 531.75543141 C-24.43655661 532.53380421 -16.38277798 532.41068407 -8.34221649 532.43745351 C-6.50825029 532.44704628 -4.67428623 532.45705716 -2.8403244 532.46745229 C2.11345708 532.4943559 7.06724794 532.51544368 12.02106142 532.53545427 C17.2073895 532.55740413 22.39368913 532.58474857 27.5799942 532.61151052 C37.38986851 532.66131621 47.19975871 532.70629974 57.00966394 532.74953288 C70.2736623 532.80826884 83.53762318 532.87449018 96.80158806 532.94028306 C117.68380369 533.04366797 138.56605176 533.13708319 159.44831085 533.23213124 C159.44831085 495.61213124 159.44831085 457.99213124 159.44831085 419.23213124 C105.65831085 419.23213124 51.86831085 419.23213124 -3.55168915 419.23213124 C-3.55168915 369.07213124 -3.55168915 318.91213124 -3.55168915 267.23213124 C100.39831085 267.23213124 204.34831085 267.23213124 311.44831085 267.23213124 C311.44831085 405.17213124 311.44831085 543.11213124 311.44831085 685.23213124 C255.65768585 685.29400624 199.86706085 685.35588124 142.38581085 685.41963124 C116.02694 685.46059926 116.02694 685.46059926 89.13556671 685.50239491 C67.56659698 685.51594472 67.56659698 685.51594472 57.44783783 685.51846242 C50.42750227 685.52124111 43.4072397 685.53216444 36.38692474 685.54885793 C28.26297189 685.56814669 20.13908816 685.5765948 12.01511231 685.57246609 C7.87195484 685.57068239 3.72895118 685.57322181 -0.41417706 685.58977664 C-78.9727139 685.88783734 -152.53451002 664.42651261 -214.55168915 615.23213124 C-215.89940399 614.17638906 -215.89940399 614.17638906 -217.2743454 613.09931874 C-225.43835941 606.58253583 -233.01769226 599.45750657 -240.55168915 592.23213124 C-241.11098114 591.69620351 -241.67027313 591.16027577 -242.24651337 590.60810781 C-248.36033487 584.71442088 -254.07630487 578.64227599 -259.3602829 571.97822499 C-261.58710753 569.18774779 -263.90754417 566.4978229 -266.23918915 563.79463124 C-277.88538892 549.78307927 -287.53820135 534.52683435 -296.2689743 518.56709218 C-297.38866335 516.52889157 -298.53165009 514.50722325 -299.6884079 512.48994374 C-319.24753763 477.49774816 -329.80768016 437.82162235 -334.55168915 398.23213124 C-334.68161758 397.29342435 -334.68161758 397.29342435 -334.81417084 396.33575368 C-335.95375866 387.01333297 -335.73611713 377.60406143 -335.75481415 368.22822499 C-335.75764153 367.2646363 -335.7604689 366.3010476 -335.76338196 365.30825925 C-335.77832465 360.19604785 -335.78758184 355.08386425 -335.79192352 349.9716332 C-335.79628718 345.79706409 -335.81010339 341.62270409 -335.83293915 337.4481957 C-336.07260686 292.74597158 -336.07260686 292.74597158 -332.55168915 272.23213124 C-332.35285126 270.97070302 -332.15401337 269.7092748 -331.94915009 268.40962148 C-331.46116699 265.49965693 -330.90943539 262.61912278 -330.30168915 259.73213124 C-330.09261932 258.71916982 -329.8835495 257.70620839 -329.66814423 256.66255116 C-315.17792063 188.64496995 -277.9232581 120.0295872 -222.41448212 76.51264882 C-219.56631578 74.24378291 -216.80370003 71.89511982 -214.03606415 69.52900624 C-207.81299202 64.29277219 -201.22236872 59.69740663 -194.42668915 55.23213124 C-193.83809113 54.84305593 -193.2494931 54.45398061 -192.64305878 54.05311513 C-182.87009062 47.60207935 -172.99629359 41.53969554 -162.55168915 36.23213124 C-161.19720673 35.5336205 -161.19720673 35.5336205 -159.81536102 34.82099843 C-109.37469718 8.9965867 -56.11579801 -0.14748071 0 0 Z " transform="translate(335.5516891479492,1069.767868757248)" style="fill: #FFFFFF;"/><path d="M0 0 C47.15076065 59.76880791 64.16024703 171.88599681 71 249 C71.0942627 250.08708252 71.18852539 251.17416504 71.28564453 252.29418945 C72.19070137 263.9992135 72.24351319 275.70285713 72.25 287.4375 C72.25101212 289.09946915 72.25101212 289.09946915 72.25204468 290.79501343 C72.16091823 386.30659688 56.8869488 483.64849261 25 583 C24.76537048 583.71788696 24.53074097 584.43577393 24.28900146 585.17541504 C14.17239073 616.10150446 2.56498867 646.41436445 -11 676 C-11.29539673 676.64557861 -11.59079346 677.29115723 -11.8951416 677.95629883 C-19.93011855 695.50318667 -28.15117834 712.85158544 -37.67675781 729.65039062 C-38.94113672 731.89547968 -40.17523958 734.15413711 -41.3984375 736.421875 C-61.90072789 774.29457626 -86.52609563 811.01041573 -115.84375 842.66015625 C-117.75764769 844.73701262 -119.60480911 846.85177507 -121.4375 849 C-143.49982741 874.26575668 -173.00627627 891.77871867 -202 908 C-202.90411621 908.50885742 -203.80823242 909.01771484 -204.73974609 909.54199219 C-240.04733757 929.334457 -277.33665463 945.05896313 -317.0625 953.375 C-318.20227295 953.61371826 -319.3420459 953.85243652 -320.51635742 954.09838867 C-336.83093396 957.34346486 -352.77430666 958.41043982 -369.375 958.375 C-370.3384433 958.37445618 -371.3018866 958.37391235 -372.29452515 958.37335205 C-388.177062 958.33228091 -403.4318144 957.38870819 -419 954 C-419.95422852 953.79632812 -420.90845703 953.59265625 -421.89160156 953.3828125 C-453.18817476 946.47304097 -487.78725434 935.13172386 -511 912 C-511.70769531 911.31550781 -512.41539062 910.63101563 -513.14453125 909.92578125 C-525.35750402 897.29247672 -529.51077331 880.98744111 -529.35400391 863.82666016 C-528.8136151 845.80986754 -523.81878062 830.85233647 -511.625 817.375 C-496.72167065 803.89103535 -481.23851265 799.92526611 -461.52294922 800.80029297 C-442.55791842 802.30149243 -425.56741525 812.33593138 -409.8125 822.25 C-384.56052839 837.34265191 -354.08041284 834.2517711 -326.71484375 827.51953125 C-277.52232236 814.76281235 -233.18803937 785.07821089 -196.59423828 750.49267578 C-194.95205644 748.95511073 -193.29019712 747.44186582 -191.62109375 745.93359375 C-185.85425597 740.71225642 -180.36801499 735.42607027 -175.2421875 729.55859375 C-173.1734523 727.19792902 -171.0568524 724.88951044 -168.91918945 722.59130859 C-163.35150405 716.59357145 -158.08674936 710.41442294 -153 704 C-152.26040039 703.07719238 -152.26040039 703.07719238 -151.50585938 702.13574219 C-136.50690283 683.39158065 -123.00820877 663.78391099 -111 643 C-110.01721595 641.32144542 -109.03413994 639.64306175 -108.05078125 637.96484375 C-64.2640378 562.79222162 -38.53374499 478.90616924 -26.37402344 235.12573242 C-31.36732517 216.23941752 -37.75841399 198.22119074 -47 181 C-47.73476562 179.54787109 -47.73476562 179.54787109 -48.484375 178.06640625 C-52.81758572 169.67993944 -58.29084625 160.70915375 -65 154 C-65.47195801 154.3717334 -65.94391602 154.7434668 -66.43017578 155.12646484 C-74.71106969 161.63761113 -82.99763817 168.1085478 -91.60913086 174.17822266 C-96.51590023 177.63895503 -101.3575023 181.18299927 -106.1875 184.75 C-106.98978027 185.34224365 -107.79206055 185.9344873 -108.61865234 186.54467773 C-111.07965587 188.36236974 -113.53991714 190.1810622 -116 192 C-127.53521236 200.52653395 -139.10653023 208.99772636 -150.74853516 217.37792969 C-153.81884191 219.58993555 -156.88487849 221.80782655 -159.95117188 224.02539062 C-171.71879842 232.53367456 -183.53188639 240.97297194 -195.40698242 249.33056641 C-200.5951723 252.98933023 -205.73976299 256.70492271 -210.875 260.4375 C-217.89358636 265.53345794 -225.01149627 270.4660779 -232.18408203 275.34228516 C-236.74551415 278.44660613 -241.27286187 281.58787846 -245.75 284.8125 C-262.08318309 296.56383125 -278.71715089 307.89405827 -295.35839844 319.20263672 C-297.82747918 320.88261569 -300.29339048 322.56710306 -302.7578125 324.25390625 C-315.78002502 333.16259925 -328.85703603 341.98966281 -341.9375 350.8125 C-342.86493011 351.43819885 -343.79236023 352.06389771 -344.74789429 352.70855713 C-354.00116913 358.95051043 -363.25998577 365.18330905 -372.55285645 371.36618042 C-379.31707186 375.87023621 -386.04906932 380.4218173 -392.77905273 384.97680664 C-394.9322239 386.43392949 -397.08619637 387.88986211 -399.24023438 389.34570312 C-432.76252818 412.01629899 -466.07877131 435.10545687 -498 460 C-499.14971491 460.89065685 -500.29945528 461.78128084 -501.44921875 462.671875 C-507.85693491 467.65300423 -514.1472853 472.74349751 -520.31640625 478.01757812 C-523.66707476 480.88199108 -527.06270943 483.67672393 -530.5 486.4375 C-535.2549105 490.30390167 -539.76661645 494.38528868 -544.234375 498.57592773 C-547.00038053 501.16905791 -549.80063815 503.69662176 -552.6796875 506.1640625 C-557.63677834 510.48192929 -562.28980094 515.10374017 -566.93579102 519.75048828 C-568.42641615 521.23893237 -569.92487017 522.71917277 -571.42382812 524.19921875 C-577.00951668 529.75319104 -582.18077119 535.43636893 -587.07763672 541.61621094 C-588.86757065 543.83578357 -590.73429167 545.92422979 -592.6875 548 C-604.07217136 560.72271042 -613.58113131 575.18771622 -622 590 C-622.46003418 590.80630859 -622.92006836 591.61261719 -623.39404297 592.44335938 C-644.45044228 629.8026595 -660.28701957 680.48551769 -650.1875 723.45703125 C-646.7172905 735.64614211 -641.38334532 746.44721877 -630.58203125 753.6015625 C-625.28472822 756.541771 -620.04363361 758.68122898 -614 757 C-606.92799818 752.83598348 -602.0006278 745.3260954 -597 739 C-595.58674481 737.26804401 -594.17005149 735.53888801 -592.75 733.8125 C-591.16613303 731.87543621 -589.58285642 729.93788964 -588 728 C-587.50983398 727.40026367 -587.01966797 726.80052734 -586.51464844 726.18261719 C-580.68879809 719.05016824 -574.89955128 711.89814663 -569.25 704.625 C-565.4153945 699.69773809 -561.40151997 695.01508287 -557.171875 690.41796875 C-554.89769962 687.88610803 -552.75823476 685.27641412 -550.625 682.625 C-546.46204105 677.47952452 -542.05158742 672.61999579 -537.5546875 667.76953125 C-535.49886278 665.54081607 -533.48383043 663.29232081 -531.5 661 C-527.24795952 656.10002954 -522.83833924 651.34491161 -518.44384766 646.57324219 C-517.02322498 645.02530636 -515.61007349 643.47090186 -514.19921875 641.9140625 C-509.10633916 636.30399345 -503.91880238 630.83138714 -498.484375 625.546875 C-496.53790992 623.55144224 -494.72798156 621.5398567 -492.91796875 619.42578125 C-488.5362689 614.37578657 -483.81937339 609.66916329 -479.0847168 604.9543457 C-477.56508332 603.4400742 -476.05087483 601.9205257 -474.53710938 600.40039062 C-469.7572311 595.61758308 -464.92063501 590.96239332 -459.78100586 586.56274414 C-456.87852458 584.01596104 -454.19530793 581.26252259 -451.5 578.5 C-447.50147396 574.40176009 -443.38550767 570.54284179 -439.05273438 566.79882812 C-435.61794459 563.7888934 -432.315188 560.64036363 -429 557.5 C-421.57501677 550.46656862 -413.90856687 543.75660344 -406.125 537.125 C-401.96793311 533.57598667 -397.85424498 529.99325978 -393.8125 526.3125 C-389.62630699 522.51492751 -385.29980986 518.92934056 -380.90625 515.375 C-377.79607096 512.83334831 -374.74104413 510.23399146 -371.6875 507.625 C-366.72478377 503.39717437 -361.65600466 499.33353838 -356.50805664 495.33422852 C-351.80383092 491.6666473 -347.21002205 487.87754217 -342.625 484.0625 C-336.57053536 479.03835056 -330.40627774 474.21616412 -324.08374023 469.53491211 C-319.05544568 465.80931637 -314.11224142 461.98618977 -309.1875 458.125 C-302.75500649 453.09456821 -296.25653337 448.16338099 -289.6875 443.3125 C-288.495802 442.43005615 -288.495802 442.43005615 -287.2800293 441.52978516 C-283.61145998 438.83452585 -279.97039284 436.24275684 -276 434 C-277.57385828 438.30526394 -280.88016209 440.68640435 -284.3125 443.5 C-289.27961163 447.65816729 -294.13840248 451.89312287 -298.875 456.3125 C-302.23287428 459.44097594 -305.59266843 462.5576974 -309.0625 465.5625 C-313.93761668 469.78488139 -318.66847742 474.16446451 -323.41015625 478.53515625 C-324.95941379 479.96260485 -326.51075718 481.38775404 -328.0625 482.8125 C-331.38391514 485.86541751 -334.6945081 488.92985344 -338 492 C-338.65129883 492.60473145 -339.30259766 493.20946289 -339.97363281 493.83251953 C-348.64116952 501.89558264 -357.18069752 510.0574841 -365.47192383 518.50878906 C-368.51032533 521.58941851 -371.58644856 524.55238043 -374.8671875 527.375 C-379.65586349 531.50685044 -384.10267194 535.95631602 -388.5625 540.4375 C-389.77969727 541.64889648 -389.77969727 541.64889648 -391.02148438 542.88476562 C-394.6406322 546.50975549 -398.18698582 550.15041519 -401.52734375 554.03515625 C-406.15730486 559.41853525 -411.26850528 564.31433572 -416.328125 569.2890625 C-420.47896238 573.3975444 -424.45147001 577.57486718 -428.2578125 582.00390625 C-432.04571039 586.34385204 -436.07042648 590.47062096 -440.0390625 594.64453125 C-443.9362518 598.75990296 -447.73704267 602.93603951 -451.45019531 607.21826172 C-453.39024841 609.44865042 -455.38050303 611.63078013 -457.375 613.8125 C-461.23022386 618.08310151 -464.87582515 622.48773669 -468.4921875 626.9609375 C-471.38832427 630.47058611 -474.37695826 633.89004592 -477.375 637.3125 C-482.98639002 643.74243745 -488.3175919 650.34182403 -493.52832031 657.09863281 C-495.1110899 659.14352491 -496.70679524 661.1778432 -498.3046875 663.2109375 C-526.41471725 699.02938492 -550.54947783 736.61401694 -570.8125 777.375 C-571.29344116 778.33998413 -571.77438232 779.30496826 -572.26989746 780.29919434 C-579.80930169 795.43477447 -587.15293215 810.63546357 -594.1151123 826.04663086 C-595.08721079 828.19251579 -596.0650852 830.3357068 -597.04394531 832.47851562 C-616.6585826 875.42732081 -635.26709937 918.76333009 -649 964 C-653.92922583 963.22145335 -656.89494857 961.11165034 -660.6875 958 C-661.30906982 957.49871582 -661.93063965 956.99743164 -662.57104492 956.48095703 C-678.7014259 943.37411084 -693.73117173 928.80879513 -706 912 C-706.46680176 911.37754395 -706.93360352 910.75508789 -707.41455078 910.11376953 C-759.47140605 840.66412701 -772.55927049 746.28571738 -760.67565918 661.93164062 C-751.75198124 600.5326587 -726.18011371 544.28301076 -686 497 C-685.09236424 495.91803894 -684.18481745 494.83600324 -683.27734375 493.75390625 C-673.0848211 481.6668056 -662.27724212 470.20358425 -651.125 459 C-650.09113159 457.95912231 -650.09113159 457.95912231 -649.03637695 456.8972168 C-645.10280903 452.97595755 -641.06278824 449.24010118 -636.85742188 445.61230469 C-634.2428919 443.3428047 -631.72090015 440.98478252 -629.1875 438.625 C-624.62397415 434.41367571 -619.94379216 430.40360538 -615.10546875 426.5078125 C-612.71886677 424.58051883 -610.34895166 422.63834166 -607.98828125 420.6796875 C-599.45660783 413.6021668 -590.85261058 406.6741791 -582 400 C-581.39897461 399.54447754 -580.79794922 399.08895508 -580.17871094 398.61962891 C-520.88256519 353.68403101 -457.57202229 313.75104004 -393.73706055 275.63671875 C-388.42393565 272.46249298 -383.13094087 269.25683286 -377.84700012 266.03425598 C-365.78698889 258.67984721 -353.67752846 251.42418279 -341.47756958 244.30410767 C-333.11748342 239.42501016 -324.79071239 234.49656074 -316.5 229.5 C-303.96098039 221.9479425 -291.33568581 214.54712792 -278.69824219 207.16162109 C-222.15046261 174.11356351 -166.26421697 140.64196826 -114 101 C-113.44006348 100.57654297 -112.88012695 100.15308594 -112.30322266 99.71679688 C-104.29922188 93.65556137 -96.48795711 87.37998969 -88.71484375 81.02734375 C-85.78902204 78.63710118 -82.83988076 76.27922027 -79.875 73.9375 C-70.71270023 66.62616988 -61.89744174 58.87953723 -53.21875 51.00390625 C-51.20691607 49.18688018 -49.17339566 47.40055608 -47.125 45.625 C-38.60188953 38.18228381 -30.41244442 30.47991142 -22.46484375 22.4296875 C-20.45311991 20.44665703 -18.42720538 18.60663361 -16.25 16.8125 C-13.0389544 14.15323312 -10.40691663 11.14049015 -7.7109375 7.96875 C-5.27517069 5.16594984 -2.65715902 2.59235026 0 0 Z " transform="translate(2405,0)" style="fill: #65B32C;"/><path d="M0 0 C53.46 0 106.92 0 162 0 C166.95 13.2 171.9 26.4 177 40 C179.24683594 45.98769531 181.49367188 51.97539063 183.80859375 58.14453125 C204.23932556 112.59418758 204.23932556 112.59418758 212.88995361 135.89736938 C219.65404352 154.11452752 226.48499554 172.30654263 233.3125 190.5 C241.43501357 212.14430725 249.54263024 233.79385341 257.60162354 255.46191406 C265.51407265 276.73235969 273.48750603 297.97981819 281.46160889 319.22720337 C287.89175906 336.36106013 294.3151628 353.49716088 300.68408203 370.65390015 C302.51045145 375.57174574 304.34152176 380.48784276 306.17282104 385.40385437 C307.86121847 389.93715921 309.54601852 394.47177085 311.22705078 399.0078125 C313.16206506 404.22723754 315.10649575 409.44307852 317.05657959 414.65689087 C317.7996734 416.64821304 318.53971807 418.64067621 319.27642822 420.6343689 C320.29456207 423.38829651 321.32372491 426.13786623 322.35546875 428.88671875 C322.65062881 429.69298706 322.94578888 430.49925537 323.24989319 431.32995605 C325.91479607 438.36876503 328.98236884 445.40855017 335.625 449.4375 C336.38039063 449.91058594 337.13578125 450.38367187 337.9140625 450.87109375 C343.5920812 453.94402896 349.72008138 453.62226984 356 453 C363.54911677 450.70646725 369.18862144 446.12753226 372.99729919 439.18107605 C373.83932142 437.25817852 374.59003803 435.32247894 375.3125 433.3515625 C375.59872223 432.60800507 375.88494446 431.86444763 376.17984009 431.09835815 C377.13333208 428.61214057 378.06634968 426.11872942 379 423.625 C379.68913182 421.81780172 380.37977039 420.01117742 381.07177734 418.20507812 C382.58161454 414.25936687 384.08374247 410.31083212 385.58105469 406.36035156 C388.08283818 399.76924696 390.62011592 393.19211523 393.1640625 386.6171875 C393.60681015 385.47271149 394.0495578 384.32823547 394.50572205 383.14907837 C395.41631406 380.79539181 396.32695403 378.4417238 397.23764038 376.08807373 C399.58844963 370.00826803 401.93283836 363.92598879 404.27734375 357.84375 C405.23160067 355.36848673 406.185865 352.89322632 407.14013672 350.41796875 C407.61279968 349.19190918 408.08546265 347.96584961 408.57244873 346.70263672 C412.77556444 335.80102437 416.98122479 324.90039361 421.1875 314 C421.64554016 312.81293457 422.10358032 311.62586914 422.57550049 310.40283203 C429.25320078 293.09823803 435.95024429 275.80123743 442.6605835 258.50927734 C451.87232605 234.76959636 461.03736514 211.01193512 470.20166016 187.25390625 C475.25606612 174.15104811 480.31391821 161.04951971 485.37115479 147.94775391 C486.74355208 144.39226102 488.11592598 140.83675911 489.48828125 137.28125 C489.941427 136.10723633 490.39457275 134.93322266 490.8614502 133.72363281 C493.64230082 126.51864557 496.42233119 119.31334239 499.20175171 112.10780334 C501.53007307 106.07176804 503.85873966 100.03586595 506.1875 94 C506.6407666 92.82511017 507.0940332 91.65022034 507.56103516 90.43972778 C512.49485646 77.65228239 517.43561011 64.86757884 522.39453125 52.08984375 C522.82839645 50.97179352 523.26226166 49.85374329 523.70927429 48.70181274 C525.75022581 43.44319698 527.79243255 38.18507366 529.83666992 32.92773438 C530.5683621 31.04433511 531.29989419 29.16087365 532.03125 27.27734375 C532.54737602 25.94876846 532.54737602 25.94876846 533.07392883 24.59335327 C535.51127219 18.30319453 537.8953458 11.99433341 540.21203613 5.65867615 C541.89288205 1.10711795 541.89288205 1.10711795 543 0 C545.10093825 -0.09687035 547.20519517 -0.12186861 549.30836487 -0.12025452 C549.97483833 -0.12110894 550.64131179 -0.12196337 551.32798141 -0.12284368 C553.57748634 -0.12450035 555.82691788 -0.11897411 558.07641602 -0.11352539 C559.68245441 -0.11324353 561.28849293 -0.11340122 562.89453125 -0.1139679 C567.26831067 -0.11425593 571.64206292 -0.10835832 576.015836 -0.10139394 C580.58159578 -0.09516131 585.14735613 -0.09455667 589.71311951 -0.09336853 C598.36521305 -0.09025495 607.01729403 -0.08204119 615.66938204 -0.07201904 C625.51685823 -0.06085874 635.36433501 -0.05534766 645.21181595 -0.05032361 C665.474551 -0.0398586 685.73727471 -0.02225864 706 0 C705.53195275 1.58390378 705.06200097 3.16724483 704.59126282 4.75035095 C704.32976598 5.63213485 704.06826914 6.51391874 703.79884815 7.42242336 C702.69042625 10.99887578 701.36565511 14.46475825 699.98046875 17.94140625 C699.54456421 19.05091896 699.54456421 19.05091896 699.09985352 20.18284607 C698.46671336 21.79353715 697.83183861 23.40354725 697.19540405 25.01293945 C695.40255453 29.54807194 693.62409799 34.08885489 691.84375 38.62890625 C691.26635323 40.09996323 691.26635323 40.09996323 690.67729187 41.60073853 C685.7965246 54.04748845 680.99496305 66.52480248 676.1875 79 C674.29594899 83.90639507 672.40395759 88.81262017 670.51171875 93.71875 C670.04581833 94.92675766 669.57991791 96.13476532 669.09989929 97.37937927 C664.58125314 109.09194453 660.04244493 120.79664855 655.5 132.5 C645.90036479 157.23619925 636.34748173 181.99036641 626.79833984 206.74609375 C621.74393388 219.84895189 616.68608179 232.95048029 611.62884521 246.05224609 C610.25644792 249.60773898 608.88407402 253.16324089 607.51171875 256.71875 C607.058573 257.89276367 606.60542725 259.06677734 606.1385498 260.27636719 C603.35761858 267.48156327 600.57751009 274.68707625 597.79800415 281.89282227 C588.33186875 306.4332673 578.85516428 330.96946887 569.3394165 355.49072266 C560.12767395 379.23040364 550.96263486 402.98806488 541.79833984 426.74609375 C536.74393388 439.84895189 531.68608179 452.95048029 526.62884521 466.05224609 C525.25644792 469.60773898 523.88407402 473.16324089 522.51171875 476.71875 C522.058573 477.89276367 521.60542725 479.06677734 521.1385498 480.27636719 C517.42206218 489.90552372 513.70730399 499.53534691 509.99279785 509.16526794 C506.33448498 518.64875834 502.67265513 528.1308877 499.00964355 537.61256409 C496.33140688 544.54682229 493.65895937 551.48327831 490.99095154 558.42147827 C489.27749582 562.87505963 487.56031679 567.32719954 485.84237671 571.77905273 C485.04778582 573.84059489 484.25476509 575.90274313 483.46353149 577.96557617 C479.7375236 587.67777045 475.95004889 597.34682601 471.75390625 606.8671875 C471.44478302 607.57250107 471.13565979 608.27781464 470.81716919 609.00450134 C456.78072419 640.28904072 429.19335389 664.71918055 397.30859375 676.859375 C362.48599052 689.28702037 324.22660784 687.85589317 290.4765625 672.7265625 C280.16789016 667.60697466 270.69915657 661.56067635 262 654 C261.16984375 653.29101562 260.3396875 652.58203125 259.484375 651.8515625 C251.22259931 644.62884449 244.08363786 636.90129106 237.9375 627.8125 C237.56238281 627.26190918 237.18726562 626.71131836 236.80078125 626.14404297 C229.5193262 615.05158828 224.03054144 603.33306569 219.5305481 590.89266968 C218.64275089 588.43881427 217.74167889 585.99015521 216.83764648 583.54223633 C215.79058104 580.7066238 214.74442269 577.87070315 213.70185852 575.03343201 C210.36902123 565.96844888 206.98223834 556.92415275 203.5859375 547.8828125 C203.30302416 547.12958395 203.02011082 546.3763554 202.72862434 545.60030174 C201.56457904 542.50135067 200.40037431 539.40245957 199.23592472 536.30366039 C195.96683139 527.6037747 192.70327972 518.90181367 189.44140625 510.19921875 C189.15478559 509.43454599 188.86816494 508.66987324 188.57285881 507.88202858 C183.73108222 494.96328248 178.91135853 482.03647186 174.11004639 469.10263062 C167.34595648 450.88547248 160.51500446 432.69345737 153.6875 414.5 C145.93509632 393.84193574 138.19181972 373.18072154 130.5 352.5 C122.87012182 331.98615232 115.18990731 311.49139737 107.5 291 C99.43869827 269.51894302 91.39294678 248.03240593 83.39453125 226.52783203 C76.13205019 207.00513623 68.81851313 187.50173842 61.5 168 C53.81009239 147.50860181 46.13010187 127.01376506 38.5 106.5 C30.81980184 85.8530741 23.09757148 65.2220229 15.36361694 44.59518433 C14.44261007 42.13862983 13.52181611 39.68199562 12.60107422 37.2253418 C11.15104923 33.35665998 9.70040987 29.48820909 8.24926949 25.61994553 C7.7105432 24.18367383 7.17198979 22.74733727 6.63361931 21.31093216 C5.89095719 19.32964863 5.14759814 17.34862797 4.40405273 15.36767578 C3.98614975 14.25353302 3.56824677 13.13939026 3.13768005 11.9914856 C2.41656612 10.09534447 1.65800014 8.21268758 0.8497467 6.35202026 C0 4 0 4 0 0 Z " transform="translate(2634,1070)" style="fill: #FFFFFF;"/><path d="M0 0 C8.37758817 0.55877709 16.3295654 1.95093621 24.5 3.875 C25.13739105 4.02483337 25.7747821 4.17466675 26.43148804 4.32904053 C63.32505989 13.07806976 98.87489078 26.56223732 133 43 C133.91217285 43.43489746 134.8243457 43.86979492 135.76416016 44.31787109 C150.64184852 51.43901876 164.86061438 59.51884922 179 68 C179.84111328 68.50063965 180.68222656 69.0012793 181.54882812 69.51708984 C213.32878201 88.44694459 242.68671557 111.10305669 270 136 C270.90878906 136.81597656 271.81757812 137.63195312 272.75390625 138.47265625 C283.09741612 147.82451138 293.41244242 157.46728581 302.4140625 168.13671875 C304.30191407 170.35471185 306.27702792 172.48242155 308.25 174.625 C313.22662265 180.14237622 317.80092935 185.94437784 322.3269043 191.83203125 C323.61989678 193.50746876 324.92278103 195.17527526 326.22973633 196.83984375 C332.44842836 204.79000352 338.23272345 212.96588604 343.8125 221.375 C344.24442657 222.02440552 344.67635315 222.67381104 345.12136841 223.34289551 C353.01593845 235.24234671 360.34027682 247.36042266 367 260 C367.5367334 261.01449219 368.0734668 262.02898437 368.62646484 263.07421875 C402.50659938 327.63806141 421.16952655 401.65266259 421.14476013 474.65289307 C421.14790371 476.17119651 421.15148074 477.68949911 421.15544754 479.20780063 C421.16503831 483.33632415 421.16867829 487.46483385 421.17129052 491.59336686 C421.17521801 496.06416865 421.18485399 500.53495861 421.19384766 505.00575256 C421.20873059 512.74511724 421.22030099 520.484481 421.22979546 528.22385406 C421.2437457 539.45156304 421.26494669 550.67925007 421.28822399 561.90694317 C421.32608627 580.17705197 421.36105442 598.44716475 421.39282227 616.71728516 C421.39472276 617.80913985 421.39662325 618.90099454 421.39858133 620.02593574 C421.42534425 635.47895986 421.44923989 650.93198709 421.47196633 666.3850176 C421.47356363 667.47080847 421.47516094 668.55659934 421.47680664 669.67529297 C421.47919684 671.30196106 421.47919684 671.30196106 421.48163532 672.96149114 C421.5085464 691.14292068 421.54300599 709.32432694 421.58346039 727.50573134 C421.60803011 738.68103318 421.62647005 749.85631019 421.636616 761.0316346 C421.64409464 768.71748908 421.65874911 776.40331012 421.67868023 784.08914229 C421.68989713 788.50057559 421.69821725 792.91195547 421.69767189 797.32340431 C421.69765865 814.54266515 421.92758486 831.70637869 422.90565491 848.90106201 C422.94522166 849.60975336 422.98478842 850.31844471 423.02555417 851.04861155 C424.93257237 884.35568603 428.7005327 923.15585092 451.0703125 949.61328125 C459.86441405 956.77754264 468.13685114 958.94369345 479.3125 958.5625 C480.53090576 958.53953857 481.74931152 958.51657715 483.00463867 958.49291992 C494.47273255 958.1796984 505.70920428 956.99926697 517 955 C517.92022949 954.83902832 518.84045898 954.67805664 519.78857422 954.51220703 C551.64993673 948.73084423 587.43700141 937.62172485 611.27734375 914.6171875 C613 913 613 913 614 913 C614.26319835 916.68612664 614.42176303 920.36982998 614.5625 924.0625 C614.67561523 925.62000977 614.67561523 925.62000977 614.79101562 927.20898438 C615.0077479 934.79461397 615.0077479 934.79461397 612.21362305 938.13671875 C609.89453178 939.96293827 607.53925271 941.49775964 605 943 C603.79244341 943.82617349 602.58773896 944.65654045 601.38671875 945.4921875 C600.15744168 946.29232053 598.92415015 947.08631034 597.6875 947.875 C596.98077148 948.32713867 596.27404297 948.77927734 595.54589844 949.24511719 C593.03662159 950.83982727 590.51926205 952.42111182 588 954 C586.99469238 954.63260742 585.98938477 955.26521484 584.95361328 955.91699219 C567.42220993 966.901344 549.5246494 976.79439498 531 986 C530.09958984 986.45342773 529.19917969 986.90685547 528.27148438 987.37402344 C487.51809948 1007.84721167 442.21390962 1020.94179588 397.30029297 1006.80664062 C390.86519557 1004.55005372 384.91246722 1001.36471008 379 998 C378.01644531 997.45601562 377.03289062 996.91203125 376.01953125 996.3515625 C347.84874511 979.68486363 332.11776012 948.08675514 324.01586914 917.47631836 C322.34956409 910.84175217 320.95837924 904.16989862 319.75 897.4375 C319.59885742 896.60186523 319.44771484 895.76623047 319.29199219 894.90527344 C315.72184745 873.47634599 315.70033049 852.05971273 315.71264386 830.41277647 C315.71306822 825.75806172 315.70191899 821.10337203 315.69218445 816.44866943 C315.67681324 808.40001038 315.66833788 800.35136867 315.66447449 792.30269623 C315.6586872 780.63012035 315.64003576 768.95759061 315.61803395 757.28503528 C315.58240009 738.29387226 315.55405508 719.3027066 315.53173828 700.31152344 C315.53040329 699.17767791 315.5290683 698.04383239 315.52769285 696.87562791 C315.51827168 688.83375215 315.50911025 680.79187611 315.5 672.75 C315.48960947 663.58430967 315.47908815 654.41861951 315.46826172 645.25292969 C315.46693098 644.12412489 315.46560023 642.9953201 315.46422917 641.8323091 C315.44169483 622.92071414 315.41145085 604.00913877 315.37586927 585.09756398 C315.35436955 573.47503204 315.33963041 561.85253059 315.33403051 550.2299799 C315.32973958 542.24471451 315.31838935 534.25947813 315.30180657 526.2742289 C315.29252853 521.6888267 315.28623854 517.10347853 315.28886986 512.51806641 C315.30187732 484.43657584 314.58447457 456.41533189 311.25 428.5 C311.16763092 427.797612 311.08526184 427.095224 311.00039673 426.37155151 C302.72782643 356.42967426 280.67482914 282.87586472 238 226 C237.5373877 225.38044434 237.07477539 224.76088867 236.59814453 224.12255859 C229.92357977 215.2444634 222.70637324 206.99245156 215 199 C214.38463379 198.35740234 213.76926758 197.71480469 213.13525391 197.05273438 C201.70900673 185.17376522 189.80266619 175.13649646 176.1875 165.875 C175.19484131 165.1929248 175.19484131 165.1929248 174.18212891 164.49707031 C166.47869415 159.37835256 158.1992449 155.2549536 150 151 C165.64036445 210.06255446 182.66652305 269.13947379 207.08203125 325.2578125 C235.33264223 390.2649959 267.03768326 493.94792629 243.19921875 564.22265625 C239.82454512 572.03826846 234.42360772 577.50299312 226.8125 581.25 C214.08480132 586.00394698 200.03877683 583.37469631 188 578 C149.41170612 558.86837897 129.7096144 517.8125932 116.31640625 479.03515625 C92.78661385 408.74705679 82.49060433 334.22790103 71.62109375 261.13671875 C59.36408167 178.75224914 39.82644246 98.84858827 8.13964844 21.62280273 C7.81694473 20.83609695 7.49424103 20.04939117 7.16175842 19.23884583 C6.56832068 17.79727039 5.97168454 16.35700451 5.37083435 14.91850281 C3.34325408 10.01810928 1.62266975 5.04827546 0 0 Z " transform="translate(1348,771)" style="fill: #65B42C;"/><path d="M0 0 C43.539375 -0.04125 87.07875 -0.0825 131.9375 -0.125 C145.64917725 -0.14320801 159.36085449 -0.16141602 173.48803711 -0.18017578 C190.32336426 -0.18920898 190.32336426 -0.18920898 198.22242737 -0.19088745 C203.70051319 -0.19273925 209.17855739 -0.20001859 214.65663147 -0.21115112 C220.99691857 -0.22401646 227.33716629 -0.22964099 233.67746649 -0.2268899 C236.91049259 -0.22570151 240.14341494 -0.22855197 243.37642848 -0.23843026 C264.77167442 -0.30069562 286.07499346 0.55643516 307.1875 4.25 C308.43869629 4.46470947 309.68989258 4.67941895 310.97900391 4.90063477 C342.8672161 10.58608259 374.08787324 21.7107152 399 43 C399.80953125 43.66386719 400.6190625 44.32773438 401.453125 45.01171875 C423.09821434 63.42365795 434.42587743 89.25452935 438 117 C438.76594592 132.58583885 439.19413076 148.86312875 435 164 C434.77957031 164.80663086 434.55914062 165.61326172 434.33203125 166.44433594 C429.25871735 184.38212436 421.44499051 200.06161063 409 214 C408.14172257 215.08007947 407.2868237 216.16286567 406.4375 217.25 C397.66089264 227.15181343 385.86826009 236.17320564 374 242 C374.62261719 242.23332031 375.24523438 242.46664062 375.88671875 242.70703125 C391.78724296 248.98297037 407.01220662 256.81303511 420 268 C421.34964844 269.14275391 421.34964844 269.14275391 422.7265625 270.30859375 C446.33586322 290.88648879 460.61590292 319.98270316 463.18218994 351.21746826 C463.46827884 356.39462418 463.48063778 361.5665314 463.4375 366.75 C463.43293793 367.92205994 463.43293793 367.92205994 463.42828369 369.11779785 C463.23280933 403.20678849 452.32056458 431.79191338 428.875 456.625 C401.36172496 483.12790053 363.25118249 495.18721262 326.375 501.25 C325.46000732 501.40114258 324.54501465 501.55228516 323.60229492 501.70800781 C304.0287896 504.70138413 284.54414325 505.2934043 264.77276114 505.23214546 C261.15482067 505.22326248 257.53688418 505.22634433 253.91893578 505.2277813 C246.93083115 505.22883448 239.94277892 505.21969986 232.95468768 505.20677864 C224.85284355 505.1922531 216.7510299 505.19078233 208.64916992 505.18920898 C187.30777178 505.17875209 165.96638508 505.15082956 144.625 505.125 C96.89875 505.08375 49.1725 505.0425 0 505 C0 338.35 0 171.7 0 0 Z M117 89 C117 127.94 117 166.88 117 207 C139.31053985 207.05836344 139.31053985 207.05836344 161.62109375 207.09765625 C170.73228228 207.10947776 179.84343355 207.12329906 188.95458984 207.15087891 C195.59312316 207.17096425 202.23162597 207.1837519 208.87018883 207.18817699 C212.37742467 207.19075905 215.88457329 207.19672254 219.39178085 207.21146011 C246.24992315 207.4687988 246.24992315 207.4687988 272.625 202.875 C273.40294922 202.66254639 274.18089844 202.45009277 274.98242188 202.23120117 C289.95925257 197.88834679 303.76492728 190.55349969 312.4375 177.125 C320.32577627 162.64796119 321.75719536 147.40316745 318.04296875 131.5 C313.64070377 116.72685609 305.15486094 107.5720663 292 100 C274.45846646 91.09126611 254.37925714 88.82791029 234.95288086 88.88647461 C233.67384888 88.88632858 232.39481689 88.88618256 231.07702637 88.8860321 C227.59625104 88.88574708 224.1155107 88.8915959 220.63474345 88.89860606 C216.98725614 88.90488892 213.33976789 88.90544728 209.692276 88.90663147 C202.79707922 88.90973031 195.90189844 88.91792407 189.00670868 88.92798096 C179.6808644 88.94128563 170.3550157 88.9466537 161.02916431 88.95248318 C146.35276425 88.96186503 131.67639792 88.98179358 117 89 Z M117 293 C117 333.92 117 374.84 117 417 C141.45018891 417.05840093 141.45018891 417.05840093 165.90039062 417.09765625 C175.89105312 417.10945967 185.88168155 417.12322864 195.87231445 417.15087891 C203.15292359 417.17101899 210.43350472 417.18376446 217.71414095 417.18817699 C221.55750381 417.19075008 225.40078665 417.19665304 229.24412346 417.21146011 C281.00376338 418.53001187 281.00376338 418.53001187 327 398 C327.69480469 397.45214844 328.38960937 396.90429688 329.10546875 396.33984375 C337.40494404 389.03566337 343.47678741 376.84791732 344.8203125 365.88671875 C344.87960937 364.93410156 344.93890625 363.98148438 345 363 C345.11988281 361.18435547 345.11988281 361.18435547 345.2421875 359.33203125 C345.92433089 343.55916587 342.17787365 329.30340028 332.2265625 316.765625 C316.58736395 299.74067468 291.12416168 294.54769347 269 293 C263.9705008 292.86412021 258.9425097 292.87309177 253.91162109 292.88647461 C252.41262819 292.8867572 250.91363515 292.88659734 249.41464233 292.8860321 C245.37402873 292.88574694 241.33344523 292.89159807 237.29283857 292.89860606 C233.05945459 292.90488655 228.82606981 292.9054471 224.59268188 292.90663147 C216.5889997 292.909731 208.58533129 292.9179257 200.58165514 292.92798096 C189.75721094 292.94128284 178.93276293 292.94665314 168.10831261 292.95248318 C151.0721981 292.9618666 134.03611265 292.9817947 117 293 Z " transform="translate(3837,2019)" style="fill: #FFFFFF;"/><path d="M0 0 C78.76503607 -1.24776295 152.75895277 26.2357351 209.57861328 80.66503906 C237.35314192 107.84862028 257.20303513 143.382378 269.0703125 180.125 C269.30202148 180.81706543 269.53373047 181.50913086 269.77246094 182.22216797 C282.04064335 218.98167782 284.48993669 260.82234653 279.0703125 299.125 C278.94672363 300.01735352 278.82313477 300.90970703 278.69580078 301.82910156 C269.6475439 364.80496947 236.97958474 425.14226409 186.0703125 464.125 C185.52713379 464.54458984 184.98395508 464.96417969 184.42431641 465.39648438 C121.548934 513.72146272 39.68977853 531.11279179 -38.29296875 521.09375 C-89.51715251 513.84129865 -137.25318017 495.32124609 -177.9296875 463.125 C-178.47222168 462.69960937 -179.01475586 462.27421875 -179.57373047 461.8359375 C-194.52393539 450.01333218 -208.45749487 436.21098906 -219.69238281 420.80224609 C-220.95679788 419.08825014 -222.26181615 417.41266829 -223.578125 415.73828125 C-256.8664031 372.7962828 -272.13789624 316.80748321 -272.1796875 263.0625 C-272.18069962 261.88222229 -272.18069962 261.88222229 -272.18173218 260.67810059 C-272.1126627 209.54603252 -258.5737918 155.85579244 -227.9296875 114.125 C-227.21296875 113.13757812 -226.49625 112.15015625 -225.7578125 111.1328125 C-182.6907235 52.76948154 -119.58309517 15.59367808 -47.9296875 4.125 C-31.98249441 1.7770745 -16.09686463 0.5120275 0 0 Z M-99.9296875 138.125 C-100.85394531 138.91648437 -101.77820312 139.70796875 -102.73046875 140.5234375 C-109.21218296 146.20726435 -114.74067971 152.24676485 -119.9296875 159.125 C-120.64640625 160.06472656 -121.363125 161.00445313 -122.1015625 161.97265625 C-149.32516406 199.38097399 -157.52713366 246.11806053 -150.8984375 291.33984375 C-145.45671034 325.19885481 -130.83108702 354.66820246 -106.9296875 379.125 C-106.10633911 379.98121948 -106.10633911 379.98121948 -105.26635742 380.85473633 C-76.76893116 410.05471855 -35.37773677 422.64240363 4.5703125 423.375 C27.69824948 422.92736251 50.99734244 418.96221325 72.0703125 409.125 C72.71758301 408.82867676 73.36485352 408.53235352 74.03173828 408.22705078 C89.01226678 401.31874586 101.80650721 392.11236842 114.0703125 381.125 C114.84890625 380.43148437 115.6275 379.73796875 116.4296875 379.0234375 C142.75432285 354.13993183 156.79177692 318.51240982 161.0703125 283.125 C161.26753906 281.5471875 161.26753906 281.5471875 161.46875 279.9375 C165.87571504 237.05892125 155.01806698 192.11006616 128.0703125 158.125 C123.6462733 152.88378159 118.9843772 147.90974721 114.0703125 143.125 C113.41289062 142.39990234 113.41289062 142.39990234 112.7421875 141.66015625 C89.02750873 116.20879645 49.98051396 102.30289336 15.89257812 101.00390625 C-26.52890239 99.82879599 -67.44027357 109.51858713 -99.9296875 138.125 Z " transform="translate(3468.9296875,2009.875)" style="fill: #FFFFFF;"/><path d="M0 0 C0.78117187 0.6703125 1.56234375 1.340625 2.3671875 2.03125 C4.95838489 4.30810541 7.48620794 6.63781111 10 9 C10.55703613 9.52303711 11.11407227 10.04607422 11.68798828 10.58496094 C21.58886684 19.96137779 30.06345626 29.92313578 38 41 C38.43086914 41.58620117 38.86173828 42.17240234 39.30566406 42.77636719 C51.56030398 59.51370199 70 86.6809146 70 108 C54.08408353 108.28058384 38.16883667 108.49205399 22.25105953 108.62174606 C14.8596463 108.68357196 7.46977132 108.76781956 0.0793457 108.90527344 C-6.36388904 109.02505325 -12.80600991 109.10233603 -19.25032705 109.12906194 C-22.66188493 109.14468267 -26.07025714 109.18124742 -29.48079109 109.26876068 C-50.32252928 109.74508929 -50.32252928 109.74508929 -54.79812622 106.82803917 C-57.76929617 103.68066525 -58.85635506 100.07687874 -60 96 C-61.3429826 93.80200869 -61.3429826 93.80200869 -62.7734375 92.08203125 C-63.20043945 91.53522705 -63.62744141 90.98842285 -64.06738281 90.42504883 C-64.71465332 89.62683716 -64.71465332 89.62683716 -65.375 88.8125 C-66.08414551 87.930177 -66.08414551 87.930177 -66.80761719 87.0300293 C-89.15797447 59.59628268 -122.09836041 45.33060487 -156.76171875 41.41015625 C-202.06598182 37.28719608 -245.14051672 48.53316534 -280.40112305 77.31665039 C-308.51614794 100.85918934 -323.57889424 134.80543525 -331 170 C-331.18079102 170.84884766 -331.36158203 171.69769531 -331.54785156 172.57226562 C-336.69690147 198.18443835 -336.41242572 228.46969001 -331 254 C-330.80132324 254.95680664 -330.60264648 255.91361328 -330.39794922 256.89941406 C-322.05106323 295.90156745 -302.98381486 331.57138499 -270 355 C-269.43700195 355.40057617 -268.87400391 355.80115234 -268.29394531 356.21386719 C-231.79426972 381.76153394 -183.54003274 389.15738321 -140.1171875 381.9765625 C-110.64909217 376.57910704 -85.88150862 364.57629583 -64 344 C-63.11441406 343.21109375 -63.11441406 343.21109375 -62.2109375 342.40625 C-41.35104949 323.02929242 -28.48209622 292.41048109 -23 265 C-82.4 264.67 -141.8 264.34 -203 264 C-203 237.27 -203 210.54 -203 183 C-108.62 183 -14.24 183 83 183 C83 285.12444349 75.16699092 343.97396495 7.11938477 412.1340332 C0.81379103 418.33395075 -5.88021439 423.77284144 -13 429 C-14.1289452 429.84760437 -15.25785143 430.69526066 -16.38671875 431.54296875 C-29.96864744 441.61085521 -44.70027411 449.85049896 -60 457 C-60.76199707 457.3594873 -61.52399414 457.71897461 -62.30908203 458.08935547 C-83.12634105 467.79677648 -105.31228841 474.42452336 -128 478 C-128.89219238 478.14808105 -129.78438477 478.29616211 -130.70361328 478.44873047 C-160.69966846 483.25409954 -193.05344727 482.98047923 -223 478 C-224.14082031 477.81195801 -225.28164062 477.62391602 -226.45703125 477.43017578 C-251.85198749 473.06932059 -276.89119488 465.50338975 -300 454 C-300.83821289 453.58637207 -301.67642578 453.17274414 -302.54003906 452.74658203 C-319.28833635 444.41504992 -334.43066622 434.69906603 -349 423 C-350.0003125 422.2059375 -351.000625 421.411875 -352.03125 420.59375 C-366.94859415 408.38865024 -380.67765303 394.61229405 -392 379 C-392.85491814 377.85115255 -393.71039429 376.70272016 -394.56640625 375.5546875 C-400.60951198 367.36251378 -405.96914599 358.84513988 -411 350 C-411.36448242 349.36819824 -411.72896484 348.73639648 -412.10449219 348.08544922 C-443.05903315 294.00379535 -452.41390193 225.12198441 -442 164 C-441.82839355 162.97390625 -441.65678711 161.9478125 -441.47998047 160.890625 C-436.39236535 131.35608717 -427.11605166 103.44379812 -413 77 C-412.66033203 76.35401855 -412.32066406 75.70803711 -411.97070312 75.04248047 C-396.44046797 45.66662133 -373.4611115 18.18645769 -347 -2 C-346.45827148 -2.41813965 -345.91654297 -2.8362793 -345.35839844 -3.26708984 C-335.36487138 -10.94859789 -324.90592393 -17.68957865 -314 -24 C-312.98413818 -24.59143799 -312.98413818 -24.59143799 -311.94775391 -25.19482422 C-228.06351542 -73.44317821 -111.83138456 -70.36641279 0 0 Z " transform="translate(2612,2064)" style="fill: #FFFFFF;"/><path d="M0 0 C38.61 0 77.22 0 117 0 C125.07465544 17.30283308 125.07465544 17.30283308 128.27734375 24.38671875 C128.64546173 25.19938705 129.01357971 26.01205536 129.39285278 26.84934998 C130.57551686 29.46156386 131.75665118 32.07446508 132.9375 34.6875 C133.3500705 35.59973328 133.76264099 36.51196655 134.18771362 37.45184326 C140.18512833 50.71537038 146.13237165 64.00029683 152.03012085 77.30841064 C157.39430916 89.4123672 162.80985547 101.49249922 168.25 113.5625 C173.68587399 125.62423591 179.10214914 137.69370222 184.46508789 149.78808594 C188.68642269 159.30496337 192.93449029 168.80974849 197.1875 178.3125 C197.54807495 179.1182547 197.9086499 179.9240094 198.28015137 180.75418091 C201.89644506 188.83514766 205.51412246 196.91549409 209.13317871 204.995224 C210.86004466 208.85079219 212.58639986 212.7065889 214.3125 216.5625 C214.65817017 217.33463837 215.00384033 218.10677673 215.35998535 218.90231323 C221.67215535 233.00500682 227.94414598 247.12540281 234.21255493 261.24758911 C240.46656087 275.33410916 246.76741383 289.3987362 253.10421753 303.44818115 C259.11548153 316.77850767 265.06980175 330.13342864 271 343.5 C277.3579041 357.82973887 283.74619184 372.14504757 290.1875 386.4375 C290.74247162 387.66903305 290.74247162 387.66903305 291.30865479 388.92544556 C291.67746765 389.74386932 292.04628052 390.56229309 292.42626953 391.40551758 C293.16570272 393.04638103 293.90512336 394.68725015 294.64453125 396.328125 C295.18926086 397.53694588 295.18926086 397.53694588 295.74499512 398.77018738 C299.63430835 407.40363123 303.50781516 416.04412433 307.375 424.6875 C307.71563477 425.44875183 308.05626953 426.21000366 308.40722656 426.99432373 C312.71911583 436.63321831 317.01532637 446.27901172 321.30078125 455.9296875 C321.74957642 456.94023697 322.19837158 457.95078644 322.6607666 458.99195862 C324.85078745 463.92386959 327.03950447 468.85635292 329.22607422 473.78979492 C330.02953728 475.60078646 330.83308301 477.41174133 331.63671875 479.22265625 C332.20755188 480.51102638 332.20755188 480.51102638 332.78991699 481.82542419 C335.44190864 487.79440347 338.18304007 493.71322301 341.01489258 499.59936523 C342 502 342 502 342 505 C301.41 505 260.82 505 219 505 C215.98763153 498.97526306 213.10979339 493.1457083 210.609375 486.93359375 C210.1563929 485.8230085 210.1563929 485.8230085 209.69425964 484.68998718 C209.04634211 483.10043047 208.40015686 481.51016671 207.75558472 479.91925049 C206.00776553 475.60568939 204.24687585 471.29745773 202.48828125 466.98828125 C202.1232399 466.09272522 201.75819855 465.19716919 201.38209534 464.2744751 C197.27579762 454.20727798 193.10850853 444.16551932 188.9375 434.125 C187.89900662 431.62462239 186.86057451 429.12421943 185.82234192 426.62373352 C185.20732058 425.14272117 184.59203697 423.66181768 183.97636414 422.18107605 C180.63119712 414.12874742 177.3200196 406.06290473 174 398 C58.665 397.505 58.665 397.505 -59 397 C-60.485 401.455 -60.485 401.455 -62 406 C-63.08828308 408.75907664 -64.19495067 411.49735173 -65.34375 414.23046875 C-65.66543152 415.00331207 -65.98711304 415.7761554 -66.31854248 416.57241821 C-67.37620737 419.11196516 -68.43815191 421.64969968 -69.5 424.1875 C-70.63353593 426.90673256 -71.76590477 429.6264494 -72.89825439 432.34617615 C-73.69179403 434.25189661 -74.48570502 436.15746248 -75.27996826 438.06288147 C-79.96361503 449.30161016 -84.60620552 460.5572613 -89.25 471.8125 C-90.44492565 474.70810568 -91.6399723 477.60366127 -92.83526611 480.49911499 C-93.54734585 482.22406644 -94.25923939 483.94909476 -94.97088623 485.67422485 C-97.63251844 492.12242509 -100.31690108 498.56056259 -103 505 C-142.93 505 -182.86 505 -224 505 C-221.99477196 498.98431588 -219.95449079 493.35660797 -217.33203125 487.63671875 C-216.80486259 486.47204575 -216.80486259 486.47204575 -216.26704407 485.28384399 C-215.5125614 483.61810091 -214.75611519 481.95324601 -213.99786377 480.28921509 C-212.36979554 476.71582286 -210.7518079 473.13789595 -209.13330078 469.56016541 C-208.29977711 467.71772262 -207.46578996 465.87548944 -206.63134766 464.03346252 C-202.75682854 455.47705843 -198.93287861 446.89872589 -195.125 438.3125 C-194.47985152 436.85887171 -193.8346689 435.40525857 -193.18945312 433.95166016 C-191.84937773 430.93214097 -190.5097617 427.91241845 -189.17041016 424.89257812 C-185.05492064 415.6141922 -180.93388571 406.33826803 -176.8125 397.0625 C-176.38181213 396.09309479 -175.95112427 395.12368958 -175.50738525 394.12490845 C-170.02874656 381.79481057 -164.53138954 369.47353799 -159.00219727 357.16601562 C-154.05521085 346.14464448 -149.15284268 335.10356178 -144.25 324.0625 C-138.01997014 310.03266898 -131.77558724 296.00951348 -125.5 282 C-119.37376419 268.32227557 -113.27237186 254.63367661 -107.1875 240.9375 C-106.77034729 239.99862946 -106.35319458 239.05975891 -105.92340088 238.09243774 C-101.67497817 228.53016006 -97.42878353 218.96689536 -93.18510437 209.4025116 C-91.08242054 204.66387052 -88.97890869 199.92559737 -86.875 195.1875 C-86.46021393 194.25328217 -86.04542786 193.31906433 -85.61807251 192.35653687 C-79.37924113 178.30887629 -73.08361528 164.28764626 -66.75918579 150.27835083 C-60.72801548 136.91224592 -54.81439651 123.4973475 -48.9418335 110.06091309 C-42.84620324 96.12150686 -36.61263913 82.24888815 -30.31762695 68.39852905 C-22.29237098 50.7337009 -14.46969222 32.98259888 -6.71253967 15.19859314 C-4.49709443 10.12211309 -2.24968873 5.06179965 0 0 Z M57 118 C48.14928129 139.32616457 39.31065811 160.65725041 30.5 182 C22.74368602 200.78787528 14.96703957 219.56722952 7.17695618 238.34112549 C4.59623968 244.56114191 2.01841258 250.7823519 -0.55859375 257.00390625 C-1.69476482 259.74630321 -2.8309849 262.48867986 -3.96722412 265.23104858 C-4.68001451 266.95169559 -5.39262955 268.67241526 -6.1050415 270.39321899 C-7.10207089 272.80141965 -8.09976836 275.20934247 -9.09765625 277.6171875 C-9.41484619 278.38344955 -9.73203613 279.14971161 -10.05883789 279.93919373 C-11.77732078 284.08287304 -13.51431465 288.21791426 -15.27294922 292.34472656 C-15.64471786 293.21920441 -16.01648651 294.09368225 -16.39952087 294.99465942 C-17.11641306 296.67851064 -17.8363112 298.36108609 -18.55958557 300.04220581 C-20.34765244 303.88354518 -20.34765244 303.88354518 -21 308 C31.14 308 83.28 308 137 308 C135.14916822 302.44750466 133.34676434 297.21566672 131.09375 291.86328125 C130.81709503 291.20295898 130.54044006 290.54263672 130.25540161 289.86230469 C129.65531665 288.43078418 129.05380165 286.99986245 128.45098877 285.56948853 C126.77022131 281.58051095 125.10088955 277.58674212 123.4296875 273.59375 C123.07321136 272.74283279 122.71673523 271.89191559 122.34945679 271.01521301 C118.07120145 260.79617558 113.84921884 250.5539607 109.625 240.3125 C108.00550552 236.38789814 106.38564048 232.46344932 104.765625 228.5390625 C104.36604584 227.5710672 103.96646667 226.6030719 103.55477905 225.60574341 C99.50438505 215.79570828 95.44144144 205.99089219 91.375 196.1875 C91.03142456 195.35916656 90.68784912 194.53083313 90.3338623 193.67739868 C88.60170647 189.50147306 86.86929913 185.32565184 85.13671875 181.14990234 C81.7496554 172.98661773 78.36349486 164.82295876 74.97784424 156.65908813 C73.91689602 154.10101626 72.85567775 151.54305654 71.79443359 148.98510742 C67.51316407 138.66348689 63.24937306 128.33479287 59 118 C58.34 118 57.68 118 57 118 Z " transform="translate(4546,2019)" style="fill: #FFFFFF;"/><path d="M0 0 C-3.32138968 49.03901561 -19.19666784 99.74523684 -41.97558594 143.04101562 C-43.08845547 145.16915316 -44.17355701 147.31027688 -45.2578125 149.453125 C-61.32396645 180.93308345 -82.08283265 209.51017978 -105.83203125 235.61328125 C-107.27785276 237.20498746 -108.71280751 238.80663226 -110.13671875 240.41796875 C-117.91808636 249.20518639 -126.08253218 257.6985161 -135.03125 265.30859375 C-137.27781507 267.23867842 -139.44583904 269.24418139 -141.625 271.25 C-158.29002934 286.24346105 -176.98369048 299.19181159 -196 311 C-196.64662598 311.40250977 -197.29325195 311.80501953 -197.95947266 312.21972656 C-247.42011958 342.74729214 -302.57930402 361.74834149 -360 370 C-361.13872559 370.16516113 -362.27745117 370.33032227 -363.45068359 370.50048828 C-399.57952355 375.46518748 -437.92520103 375.13549051 -474 370 C-475.21059082 369.83371094 -476.42118164 369.66742187 -477.66845703 369.49609375 C-509.4320984 365.01942238 -541.24515525 357.13662016 -571 345 C-568.5908445 342.21552133 -566.27013268 341.10794913 -562.85546875 339.79296875 C-561.27427246 339.17143921 -561.27427246 339.17143921 -559.66113281 338.53735352 C-558.51483398 338.09190186 -557.36853516 337.6464502 -556.1875 337.1875 C-510.9471282 319.16156238 -466.39818578 296.14051142 -428 266 C-427.19175781 265.37222656 -426.38351562 264.74445313 -425.55078125 264.09765625 C-423.00773408 262.09516017 -420.4991431 260.05704323 -418 258 C-417.49275391 257.58443848 -416.98550781 257.16887695 -416.46289062 256.74072266 C-402.69721332 245.4050081 -389.99799011 233.0583004 -379 219 C-378.03569938 217.82163616 -377.06800941 216.646041 -376.09765625 215.47265625 C-370.05464437 208.15394919 -364.19617706 200.71718392 -358.5 193.125 C-357.94425293 192.38451416 -357.38850586 191.64402832 -356.81591797 190.88110352 C-354.8647722 188.26307194 -352.930321 185.63343352 -351 183 C-350.54107361 182.37511688 -350.08214722 181.75023376 -349.60931396 181.10641479 C-341.13323715 169.54374991 -333.03894709 157.76544342 -325.125 145.8125 C-323.97820555 144.08565638 -322.83123076 142.35893251 -321.68408203 140.63232422 C-312.02376051 126.08087649 -302.39476039 111.50902265 -293.03515625 96.76171875 C-282.40595702 80.02155423 -271.74249794 63.23677414 -259 48 C-257.99839844 46.75863281 -257.99839844 46.75863281 -256.9765625 45.4921875 C-225.77374993 6.85476976 -188.55553683 -33.88564367 -136.27294922 -39.8190918 C-87.7089706 -43.68438805 -40.2768165 -26.13106358 0 0 Z " transform="translate(5315,1412)" style="fill: #75BC35;"/><path d="M0 0 C1.88386414 0.00273422 1.88386414 0.00273422 3.80578613 0.00552368 C22.38827827 0.05091102 40.60283926 0.50220346 59 3.3125 C60.1765918 3.48410645 61.35318359 3.65571289 62.56542969 3.83251953 C87.57474373 7.54904309 111.66248986 13.67058922 135.625 21.625 C136.430513 21.89152374 137.236026 22.15804749 138.06594849 22.43264771 C140.35154164 23.19293055 142.63345803 23.96317718 144.9140625 24.73828125 C145.60226578 24.96823792 146.29046906 25.19819458 146.99952698 25.43511963 C149.88678944 26.43098625 151.81084304 27.12334304 154 29.3125 C148.93068019 31.59535056 143.83757101 33.81470686 138.71875 35.984375 C111.37433619 47.61266566 84.60265762 60.18147345 59 75.3125 C57.23700256 76.34118593 55.47398182 77.36983192 53.7109375 78.3984375 C35.1394704 89.31307874 17.63420409 101.61660057 1 115.3125 C0.23115479 115.94381836 0.23115479 115.94381836 -0.55322266 116.58789062 C-12.90268714 126.78248841 -24.70789216 137.7215972 -34.640625 150.32421875 C-36.47582966 152.64860876 -38.3371485 154.93397009 -40.234375 157.20703125 C-48.14356142 166.68513574 -55.71616878 176.34651893 -63 186.3125 C-63.51385254 187.01455566 -64.02770508 187.71661133 -64.55712891 188.43994141 C-68.40441882 193.70733218 -72.21143439 199.00275112 -76 204.3125 C-76.54881836 205.08013672 -77.09763672 205.84777344 -77.66308594 206.63867188 C-89.93117788 223.84121528 -101.42828224 241.54214043 -112.77099609 259.36474609 C-146.5861921 312.478296 -146.5861921 312.478296 -165.43359375 334.3125 C-167.76718522 337.04035122 -170.01438282 339.81689767 -172.25 342.625 C-178.43168867 350.21615808 -185.22766054 357.25145395 -192 364.3125 C-192.48678223 364.82264648 -192.97356445 365.33279297 -193.47509766 365.85839844 C-218.86579594 392.36198552 -252.52994342 412.36556231 -289.91796875 413.515625 C-332.47921415 414.15297471 -382.38596761 400.32064428 -416 373.3125 C-417.19846159 369.71711524 -416.7870495 367.70649929 -416.21484375 363.96875 C-416.01729492 362.67364502 -415.81974609 361.37854004 -415.61621094 360.04418945 C-415.3911569 358.63343708 -415.16488897 357.2228779 -414.9375 355.8125 C-414.82329712 355.09621429 -414.70909424 354.37992859 -414.59143066 353.64193726 C-402.76733707 279.91553739 -372.20794043 210.60143629 -324.46191406 153.08300781 C-323.10393243 151.43837141 -321.76292929 149.78190403 -320.4296875 148.1171875 C-316.70679111 143.48565199 -312.93846281 139.10067298 -308.6640625 134.97265625 C-306.92712187 133.23979295 -305.34154672 131.42936167 -303.75 129.5625 C-297.3904445 122.20256499 -290.40402533 115.34785088 -283.00390625 109.0390625 C-280.74766614 107.09508954 -278.56636107 105.07926482 -276.375 103.0625 C-270.17439706 97.47628607 -263.62170457 92.38444392 -257 87.3125 C-256.35724121 86.81814453 -255.71448242 86.32378906 -255.05224609 85.81445312 C-240.95768866 75.00085537 -226.36818929 65.22093088 -211 56.3125 C-210.34789551 55.93158203 -209.69579102 55.55066406 -209.02392578 55.15820312 C-163.73556919 28.84125625 -114.00739956 12.14711645 -62.375 4 C-61.44276611 3.85264404 -60.51053223 3.70528809 -59.55004883 3.5534668 C-39.73150268 0.64433804 -20.00791352 -0.06034049 0 0 Z " transform="translate(4897,938.6875)" style="fill: #75BC35;"/><path d="M0 0 C50.16 0 100.32 0 152 0 C152 226.05 152 452.1 152 685 C101.84 685 51.68 685 0 685 C0 458.95 0 232.9 0 0 Z " transform="translate(3451,1070)" style="fill: #FFFFFF;"/><path d="M0 0 C1.1612439 0.61452026 1.1612439 0.61452026 2.34594727 1.24145508 C5.03411946 2.69194527 7.67131859 4.21569051 10.3125 5.75 C11.35728516 6.34022949 12.40207031 6.93045898 13.47851562 7.53857422 C28.65728892 16.12586564 43.27798077 25.38094378 57.3125 35.75 C57.93785645 36.21100098 58.56321289 36.67200195 59.20751953 37.14697266 C67.53729615 43.32921074 75.46020811 49.97897291 83.3125 56.75 C84.02921875 57.36488281 84.7459375 57.97976563 85.484375 58.61328125 C87.44278972 60.30868573 89.38131332 62.02363615 91.3125 63.75 C92.17875 64.5234375 93.045 65.296875 93.9375 66.09375 C104.9422908 76.04489061 115.79853357 86.34627311 125.3125 97.75 C126.10398438 98.66394531 126.89546875 99.57789063 127.7109375 100.51953125 C147.05995092 122.91209027 163.8919777 147.45977614 178.05126953 173.44189453 C179.22266959 175.58560652 180.41835977 177.71360975 181.62109375 179.83984375 C198.02168056 209.27465742 209.4444738 242.08048148 217.3125 274.75 C217.58046387 275.85778809 217.84842773 276.96557617 218.12451172 278.10693359 C221.36107136 291.7270485 223.87172134 305.3761952 225.6875 319.25 C225.85531982 320.51932373 226.02313965 321.78864746 226.19604492 323.09643555 C227.12794198 330.68689552 227.51898727 338.10467642 227.3125 345.75 C180.56215907 371.22798615 116.03959879 380.3887786 64.4375 366.0625 C37.04132451 357.89166577 14.74020678 342.35400893 -5.6875 322.75 C-6.5125 321.96625 -7.3375 321.1825 -8.1875 320.375 C-12.96591436 315.72931937 -17.23173886 310.80326177 -21.39453125 305.6015625 C-23.65216158 302.79394727 -25.97594738 300.05457001 -28.3125 297.3125 C-33.4007535 291.22392422 -38.13255593 284.89160882 -42.87084961 278.52880859 C-51.81585911 266.52505259 -61.04280076 254.74704523 -70.42822266 243.08520508 C-73.59549216 239.14228856 -76.68964843 235.15123519 -79.75 231.125 C-84.84038557 224.4714896 -90.21630493 218.09218903 -95.6875 211.75 C-96.64462891 210.64011719 -96.64462891 210.64011719 -97.62109375 209.5078125 C-99.29872691 207.57834064 -100.99003696 205.66204076 -102.6875 203.75 C-103.37199219 202.97269531 -104.05648437 202.19539063 -104.76171875 201.39453125 C-113.41254568 191.65668942 -122.40957297 182.76904197 -132.6875 174.75 C-134.12609375 173.62078125 -134.12609375 173.62078125 -135.59375 172.46875 C-159.80162456 153.86690955 -185.70747822 143.64035816 -215.6875 138.75 C-214.10931155 133.91331658 -211.36248632 130.30479768 -208.3125 126.3125 C-207.77214111 125.60295166 -207.23178223 124.89340332 -206.67504883 124.16235352 C-205.02529869 122.0145837 -203.36115361 119.87918331 -201.6875 117.75 C-201.23648926 117.17604492 -200.78547852 116.60208984 -200.32080078 116.01074219 C-193.49704588 107.45318856 -185.83152367 99.69166642 -178.125 91.9375 C-177.64203461 91.44917694 -177.15906921 90.96085388 -176.66146851 90.45773315 C-170.01727202 83.7577019 -163.07411267 77.62276414 -155.6875 71.75 C-154.51365798 70.77344747 -153.34258308 69.79354725 -152.17578125 68.80859375 C-135.51514581 54.95674727 -117.01730954 43.436108 -98.04394531 33.04345703 C-95.8815651 31.85652268 -93.73299117 30.64794545 -91.5859375 29.43359375 C-69.89156242 17.35200644 -46.22568726 8.51409644 -22.6875 0.75 C-21.49116943 0.32686523 -20.29483887 -0.09626953 -19.06225586 -0.53222656 C-11.51656519 -3.01601431 -6.95246113 -4.07558066 0 0 Z " transform="translate(5088.6875,983.25)" style="fill: #FF4E00;"/><path d="M0 0 C0.77456543 -0.00067474 1.54913086 -0.00134949 2.34716797 -0.00204468 C27.92003899 0.03322416 52.15451176 3.89451156 75.25 15.25 C76.36890625 15.79527344 77.4878125 16.34054687 78.640625 16.90234375 C103.45289141 29.63810851 125.3270351 50.3220917 142.25 72.25 C143.14942468 73.36304226 144.05198193 74.47355773 144.95703125 75.58203125 C150.57040754 82.47614292 155.95127056 89.50261983 161.1875 96.6875 C166.14830093 103.4938146 171.28132943 110.10529942 176.63208008 116.60864258 C179.95250998 120.64491467 183.20334857 124.72078829 186.375 128.875 C187.17292969 129.91914062 187.97085938 130.96328125 188.79296875 132.0390625 C189.19306152 132.56274414 189.5931543 133.08642578 190.00537109 133.62597656 C199.56968643 146.10573835 209.48882772 158.23497467 220.08203125 169.859375 C221.53308337 171.4594541 222.96799354 173.07431434 224.38671875 174.703125 C252.22904623 206.49436428 289.60656467 226.81671182 331.25 233.25 C324.74657875 251.48572391 305.77058518 267.90757341 292.375 281.3125 C291.45847656 282.24126953 290.54195312 283.17003906 289.59765625 284.12695312 C283.46252325 290.27502944 277.07278716 295.87932915 270.25 301.25 C269.55052246 301.80872803 268.85104492 302.36745605 268.13037109 302.94311523 C250.976616 316.57132566 232.74929171 328.39549104 213.57324219 338.96728516 C211.53304028 340.09372703 209.50365217 341.23693591 207.4765625 342.38671875 C143.33373049 377.91752345 143.33373049 377.91752345 121.25 374.25 C117.87084125 372.92293428 114.73701145 371.25471645 111.5625 369.5 C110.64766846 369.00628906 109.73283691 368.51257812 108.7902832 368.00390625 C83.32377708 354.12222369 59.43092024 337.9515602 37.25 319.25 C36.68506836 318.77530273 36.12013672 318.30060547 35.53808594 317.81152344 C23.14689863 307.38067362 23.14689863 307.38067362 17.93945312 301.93676758 C16.19895475 300.19903589 14.38185199 298.6156878 12.5078125 297.0234375 C8.41557959 293.46320423 4.68167899 289.66633498 1 285.6875 C0.02848999 284.64215088 0.02848999 284.64215088 -0.96264648 283.57568359 C-7.08059137 276.95473943 -13.02724548 270.21547282 -18.75 263.25 C-19.53528076 262.29746338 -19.53528076 262.29746338 -20.33642578 261.32568359 C-70.54971979 199.90393123 -112.9683174 111.53221807 -111.8125 30.625 C-111.80347656 29.78710938 -111.79445312 28.94921875 -111.78515625 28.0859375 C-111.77355469 27.48007813 -111.76195313 26.87421875 -111.75 26.25 C-78.90940603 7.51543297 -37.43629877 0.02937781 0 0 Z " transform="translate(4590.75,1368.75)" style="fill: #2A68B0;"/><path d="M0 0 C38.94 0 77.88 0 118 0 C118 134.97 118 269.94 118 409 C201.49 409 284.98 409 371 409 C371 440.68 371 472.36 371 505 C248.57 505 126.14 505 0 505 C0 338.35 0 171.7 0 0 Z " transform="translate(4940,2019)" style="fill: #FFFFFF;"/><path d="M0 0 C38.94 0 77.88 0 118 0 C118 134.97 118 269.94 118 409 C201.49 409 284.98 409 371 409 C371 440.68 371 472.36 371 505 C248.57 505 126.14 505 0 505 C0 338.35 0 171.7 0 0 Z " transform="translate(2802,2019)" style="fill: #FFFFFF;"/><path d="M0 0 C2.15046557 0.00374017 4.30093286 0.00658238 6.45140076 0.00857544 C12.05228562 0.01613295 17.65306316 0.03571165 23.25390625 0.0579834 C30.00567152 0.08225476 36.75747311 0.09126041 43.50926971 0.10289001 C53.7132852 0.12214225 63.91706623 0.16051945 74.12109375 0.1953125 C74.12109375 16.6953125 74.12109375 33.1953125 74.12109375 50.1953125 C67.35351562 50.23269531 60.5859375 50.27007813 53.61328125 50.30859375 C49.30205884 50.33890286 44.99087625 50.37007001 40.6796875 50.40429688 C33.8507702 50.45843144 27.02193165 50.50954825 20.19287109 50.54174805 C14.68138519 50.56793531 9.17016679 50.60844479 3.65884781 50.65849876 C1.56597368 50.67506383 -0.52694661 50.68664211 -2.61987686 50.69292641 C-21.98954507 50.75691917 -41.33022217 52.02109703 -56.14453125 66.265625 C-68.30482142 79.79531722 -71.74407325 94.1814112 -71.05371094 111.84375 C-70.09495359 124.74144665 -62.8497391 136.2717401 -53.671875 145.0546875 C-42.25239328 153.8069616 -30.01543018 157.46048765 -15.8203125 157.609375 C-14.6760228 157.62874115 -13.53173309 157.6481073 -12.35276794 157.6680603 C-8.71572203 157.7276033 -5.07864404 157.77414062 -1.44140625 157.8203125 C1.03191447 157.8585155 3.50522221 157.89756858 5.97851562 157.9375 C12.02597227 158.03487602 18.07329896 158.11464693 24.12109375 158.1953125 C24.12109375 148.9553125 24.12109375 139.7153125 24.12109375 130.1953125 C7.95109375 130.1953125 -8.21890625 130.1953125 -24.87890625 130.1953125 C-24.87890625 113.6953125 -24.87890625 97.1953125 -24.87890625 80.1953125 C7.79109375 80.1953125 40.46109375 80.1953125 74.12109375 80.1953125 C74.12109375 122.4353125 74.12109375 164.6753125 74.12109375 208.1953125 C57.12609375 208.2571875 40.13109375 208.3190625 22.62109375 208.3828125 C14.61698242 208.42378052 14.61698242 208.42378052 6.45117188 208.46557617 C-0.14160156 208.47912598 -0.14160156 208.47912598 -3.24279785 208.48164368 C-5.37628058 208.48620464 -7.50975632 208.49665899 -9.64318848 208.51203918 C-39.23644761 208.71443336 -63.94391622 202.75625372 -86.87890625 183.1953125 C-87.88953125 182.4321875 -88.90015625 181.6690625 -89.94140625 180.8828125 C-94.45772232 176.75086375 -98.13403427 172.02422636 -101.87890625 167.1953125 C-102.48992187 166.42316406 -103.1009375 165.65101563 -103.73046875 164.85546875 C-118.96206304 144.51190103 -124.78025766 117.95762458 -122.41796875 92.87890625 C-120.7451479 81.44796377 -117.92612637 70.62906166 -112.87890625 60.1953125 C-112.14220703 58.64457031 -112.14220703 58.64457031 -111.390625 57.0625 C-106.9292642 48.22495951 -101.26644397 40.69889781 -94.87890625 33.1953125 C-94.3065625 32.51855469 -93.73421875 31.84179688 -93.14453125 31.14453125 C-68.67554093 4.72054428 -34.07989281 -0.17652304 0 0 Z " transform="translate(4906.87890625,1264.8046875)" style="fill: #FFFFFF;"/></svg>