<?xml version="1.0" encoding="UTF-8"?>
<!-- Generator: visioncortex VTracer -->
<svg id="svg" version="1.1" xmlns="http://www.w3.org/2000/svg" style="display: block;" viewBox="0 0 5317 2545"><path d="M0 0 C76.47018417 8.06412851 158.74594497 48.71573897 219.19482422 94.63476562 C221.08960343 96.06776608 222.99813431 97.48072647 224.91015625 98.890625 C234.50372053 105.98426049 243.8262508 113.37209706 253 121 C253.58990723 121.48936035 254.17981445 121.9787207 254.78759766 122.48291016 C271.51871634 136.42157825 288.23701571 151.43567293 302.34375 168.06640625 C304.25985577 170.30336935 306.25512856 172.45803578 308.25 174.625 C313.29082782 180.2192971 317.91089712 186.09805079 322.50244141 192.06103516 C324.04825404 194.06247694 325.60743442 196.05299057 327.16796875 198.04296875 C389.36347712 277.77241662 419.46644076 376.73306109 422.15663147 510.58273256 C422.15850052 515.03902127 422.16612317 519.49530075 422.17311096 523.95158386 C422.18454951 531.65150775 422.19283897 539.35142955 422.19923019 547.05135918 C422.20965187 559.25675226 422.23023873 571.46211903 422.25234985 583.66749573 C422.25982667 587.86168185 422.26724084 592.05586809 422.27463722 596.25005436 C422.27648779 597.29782225 422.27833835 598.34559013 422.280245 599.42510856 C422.30110506 611.30968897 422.31996499 623.19427225 422.33789062 635.07885742 C422.33952881 636.16315661 422.34116699 637.24745579 422.34285481 638.36461253 C422.36911351 655.91680753 422.38777789 673.46900459 422.40448253 691.0212109 C422.42198666 709.12382301 422.45091515 727.22639462 422.4893719 745.32897431 C422.51258066 756.44884792 422.526749 767.5686555 422.52869953 778.68855352 C422.53083119 786.32759865 422.54394313 793.96657838 422.56517886 801.60559403 C422.57703854 805.9905392 422.58447549 810.37535478 422.57846642 814.76031494 C421.6688613 887.73289879 421.6688613 887.73289879 452.59765625 950.8671875 C462.95701846 960.06427981 475.39504464 959.5915199 488.44238281 958.86376953 C523.47235283 956.45144424 558.04501548 947.75434224 589 931 C590.61648438 930.13761719 590.61648438 930.13761719 592.265625 929.2578125 C599.78766561 925.07247195 606.88989637 920.11010363 613 914 C613.09968312 912.25997558 613.12847322 910.51586766 613.13028526 908.77299118 C613.13390961 907.63239707 613.13753396 906.49180295 613.14126813 905.31664538 C613.14019988 904.04754486 613.13913163 902.77844434 613.13803101 901.47088623 C613.14044696 900.1212567 613.14330857 898.7716279 613.14658034 897.42200017 C613.15436553 893.69492108 613.15595449 889.96786037 613.15663147 886.24077415 C613.15846594 882.22656057 613.16607075 878.21235787 613.17311096 874.19815063 C613.1846606 867.23064052 613.19289328 860.26313284 613.19923019 853.29561615 C613.20955834 842.25673328 613.23012816 831.21788053 613.25234985 820.17901611 C613.25983114 816.39965449 613.26724486 812.62029274 613.27463722 808.84093094 C613.27648779 807.89611523 613.27833835 806.95129953 613.280245 805.97785304 C613.30119474 795.20919666 613.32000572 784.44053688 613.33789062 773.671875 C613.33952881 772.6871634 613.34116699 771.7024518 613.34285481 770.68790045 C613.36902915 754.79990522 613.38773024 738.91190767 613.40448253 723.02390012 C613.42198706 706.68485222 613.45092999 690.34584914 613.4893719 674.00683713 C613.51261794 663.94872193 613.52675248 653.89067995 613.52869953 643.83253768 C613.53083119 636.90954224 613.54394318 629.98661898 613.56517886 623.06365606 C613.5770469 619.08644097 613.58447001 615.10936894 613.57846642 611.1321373 C613.51060483 559.10658347 622.46827924 509.17962401 645 462 C645.31904297 461.31953613 645.63808594 460.63907227 645.96679688 459.93798828 C657.00943413 436.44611992 671.21079186 414.77073993 688 395 C688.83015625 393.98550781 689.6603125 392.97101563 690.515625 391.92578125 C702.55501004 377.3523554 715.99597468 363.52291518 731 352 C732.08778821 351.10407472 733.17219467 350.2040339 734.25390625 349.30078125 C785.65446663 306.65693389 855.22115929 279.08788582 922.3515625 278.796875 C923.40870453 278.79117493 924.46584656 278.78547485 925.55502319 278.77960205 C927.78537008 278.77021233 930.01573047 278.76364227 932.24609375 278.75976562 C935.56797354 278.75016482 938.88920507 278.71912613 942.2109375 278.6875 C961.50212898 278.59190511 980.59729916 280.27075544 999.5 284.25 C1000.51296143 284.45906982 1001.52592285 284.66813965 1002.56958008 284.88354492 C1070.34046406 299.32121302 1138.25013432 336.20073791 1181.8359375 391.27734375 C1184.09590563 394.12066105 1186.4488946 396.86746036 1188.8125 399.625 C1235.21725824 455.42546663 1259.26295274 528.76521413 1259.12025452 600.86911011 C1259.12069154 602.5311132 1259.12156884 604.19311621 1259.12284368 605.85511887 C1259.12506295 610.38412645 1259.12110283 614.91311006 1259.11606562 619.44211459 C1259.11172414 624.34034644 1259.11321016 629.23857707 1259.1139679 634.1368103 C1259.11449079 642.61074007 1259.11136848 651.08466211 1259.10573006 659.55858994 C1259.0975833 671.81028235 1259.09499659 684.06197105 1259.09374207 696.31366588 C1259.09155653 716.19397599 1259.08490997 736.07428197 1259.07543945 755.95458984 C1259.06625244 775.25992818 1259.05917791 794.56526539 1259.05493164 813.87060547 C1259.05466892 815.06172557 1259.05440619 816.25284567 1259.05413551 817.48006032 C1259.05283042 823.45589994 1259.05156672 829.43173956 1259.05032361 835.40757918 C1259.03996651 884.93838978 1259.02153657 934.46919276 1259 984 C1208.84 984 1158.68 984 1107 984 C1106.98541748 972.11395752 1106.97083496 960.22791504 1106.95581055 947.98168945 C1106.90699365 909.89716564 1106.84356809 871.81267858 1106.77101372 833.72819288 C1106.75974633 827.80683258 1106.74860775 821.88547203 1106.73754883 815.96411133 C1106.73534514 814.7853364 1106.73314146 813.60656147 1106.730871 812.39206608 C1106.69555392 793.33647327 1106.67065828 774.2808805 1106.64965298 755.22526715 C1106.62784632 735.6544549 1106.59474991 716.08368491 1106.55129844 696.51290864 C1106.52486538 684.4487478 1106.50710863 672.38463956 1106.50065396 660.32045122 C1106.49537445 652.03369752 1106.47907209 643.74700985 1106.45433434 635.4602916 C1106.44040669 630.68815497 1106.43111551 625.91613631 1106.43499184 621.14397812 C1106.46950956 567.43991478 1094.93725383 519.96714593 1056.44140625 480.39794922 C1043.91058716 467.9335341 1029.67496366 458.08740651 1014 450 C1013.38157227 449.68047363 1012.76314453 449.36094727 1012.12597656 449.03173828 C971.50703027 428.37675576 924.80604861 426.14391417 881.69970703 440.07275391 C838.88183298 454.77905574 804.11187506 485.71499386 783.93359375 526.13623047 C775.90902566 542.60362135 770.74630688 559.90203526 768 578 C767.74059679 579.59348141 767.74059679 579.59348141 767.4759531 581.21915436 C766.63037514 588.12933326 766.84585657 595.12082626 766.84178162 602.07165527 C766.83721188 603.72023147 766.83221126 605.36880653 766.82681805 607.01738024 C766.81327438 611.5371293 766.80582954 616.05687087 766.79939139 620.57663488 C766.79137084 625.45453103 766.77767877 630.33241167 766.76467896 635.21029663 C766.74293967 643.65813205 766.72478588 652.10596905 766.70907402 660.55381775 C766.68635218 672.76795814 766.65821256 684.98208133 766.62875474 697.19620711 C766.58110721 717.01328412 766.53783533 736.83036817 766.49731445 756.64746094 C766.45794508 775.89681547 766.4165154 795.14616374 766.37231445 814.39550781 C766.36822804 816.17559149 766.36822804 816.17559149 766.36405908 817.99163646 C766.35037937 823.94513182 766.33665914 829.89862708 766.32291877 835.85212231 C766.20899859 885.23473594 766.10298536 934.61736212 766 984 C715.84 984 665.68 984 614 984 C613.67 968.82 613.34 953.64 613 938 C609.41125 940.413125 605.8225 942.82625 602.125 945.3125 C585.17696785 956.63754941 567.79060426 967.05309748 550 977 C549.29085449 977.39928711 548.58170898 977.79857422 547.85107422 978.20996094 C503.78517982 1002.88001495 452.5034159 1022.20511658 401.92602539 1008.45825195 C388.83715723 1004.61917202 376.24523825 998.02133695 366 989 C365.21753906 988.35933594 364.43507813 987.71867187 363.62890625 987.05859375 C331.16541751 959.5583217 321.13116996 914.36423954 317 874 C316.13952994 863.21065017 315.85330092 852.46750172 315.86196899 841.64634705 C315.85954329 840.06403473 315.8566787 838.48172304 315.85341966 836.89941221 C315.84575346 832.59844342 315.84405195 828.29749065 315.84336853 823.99651587 C315.84151273 819.33819774 315.83389643 814.67988865 315.82688904 810.02157593 C315.81540744 801.95756584 315.80713959 793.8935578 315.80076981 785.82954216 C315.79038047 773.0434573 315.76979801 760.25739786 315.74765015 747.47132874 C315.74017147 743.08262166 315.73275745 738.69391447 315.72536278 734.30520725 C315.72351221 733.20850314 315.72166165 732.11179903 315.719755 730.98186145 C315.69885942 718.51826493 315.68001979 706.0546656 315.66210938 693.59106445 C315.66047119 692.45297467 315.65883301 691.31488488 315.65714519 690.14230753 C315.63093776 671.75624192 315.61224919 653.37017432 315.59551747 634.98409801 C315.57799671 616.03420206 315.54904426 597.08434466 315.5106281 578.13447958 C315.48743586 566.49002341 315.47325252 554.84563017 315.47130047 543.20115072 C315.4691644 535.18961489 315.45601725 527.17814117 315.43482114 519.16663336 C315.42298929 514.57037461 315.41550441 509.97423888 315.42153358 505.37796593 C315.44248772 486.89880571 315.04959688 468.54960504 313.61068726 450.12037659 C313.54900626 449.32882362 313.48732527 448.53727066 313.42377515 447.72173124 C308.40279798 384.73420893 292.60588695 322.06137008 263 266 C262.38753418 264.83090088 262.38753418 264.83090088 261.76269531 263.63818359 C252.97778923 246.9572815 242.76287985 231.71281837 231 217 C230.21882813 216.01257813 229.43765625 215.02515625 228.6328125 214.0078125 C216.63423428 199.3179644 203.03277123 185.31932997 187.63574219 174.18701172 C185.96055762 172.97137778 184.31211013 171.72476932 182.6640625 170.47265625 C173.14351017 163.3442025 162.34535667 155.78178556 151 152 C154.105605 165.8999818 157.81240146 179.60899986 161.6875 193.3125 C162.00991669 194.45340088 162.33233337 195.59430176 162.66452026 196.76977539 C175.50543025 242.02939412 190.19390737 286.68427213 209.1875 329.75 C230.73488558 378.64109148 241.74327567 430.97354 247 484 C247.103125 485.00184326 247.20625 486.00368652 247.3125 487.03588867 C248.19444877 496.74756205 248.22093397 506.47372415 248.24023438 516.21801758 C248.24992441 519.16451427 248.28103836 522.11030699 248.3125 525.05664062 C248.52295628 562.90762981 248.52295628 562.90762981 236.76171875 575.46875 C229.44236076 581.83058666 220.54080854 584.56908048 210.94921875 584.3046875 C193.46719036 582.49859715 178.83880872 574.81316922 166 563 C165.49259277 562.54028809 164.98518555 562.08057617 164.46240234 561.60693359 C155.1508004 553.08756761 147.79467479 543.61221242 141 533 C140.5982959 532.37319336 140.1965918 531.74638672 139.78271484 531.10058594 C95.57508199 460.61700599 88.06409977 363.96065292 70.95727539 255.16842651 C65.43900376 219.03256305 59.14124732 183.40392496 50 148 C49.8287561 147.33436035 49.65751221 146.6687207 49.4810791 145.98291016 C37.27086139 98.61197384 22.25517747 50.99313418 1.92871094 6.43774414 C0 2.19061697 0 2.19061697 0 0 Z " transform="translate(1348,770)" style="fill: #000000;"/><path d="M0 0 C71.424375 -0.04125 142.84875 -0.0825 216.4375 -0.125 C238.97216553 -0.14320801 261.50683105 -0.16141602 284.72436523 -0.18017578 C312.28723145 -0.18920898 312.28723145 -0.18920898 325.19935608 -0.19088745 C334.19826815 -0.19274726 343.19715519 -0.20006128 352.19606018 -0.21115112 C362.59098714 -0.22394227 372.98589023 -0.22965783 383.38082511 -0.2268899 C388.69061702 -0.22569253 394.00035565 -0.22750121 399.31013763 -0.23843026 C452.90041687 -0.34336251 452.90041687 -0.34336251 473.8125 4.25 C474.83762695 4.46688477 475.86275391 4.68376953 476.91894531 4.90722656 C507.65820717 11.61206711 536.68727113 24.23024804 562 43 C562.60682617 43.44988281 563.21365234 43.89976563 563.83886719 44.36328125 C572.74177987 51.03205772 580.96346292 58.31817903 589 66 C589.67675781 66.63550781 590.35351562 67.27101563 591.05078125 67.92578125 C596.18624864 72.87235788 600.57068562 78.42504747 605 84 C605.77214844 84.94359375 606.54429688 85.8871875 607.33984375 86.859375 C635.30523566 121.85010847 653.97140197 168.38724049 654.203125 213.546875 C654.20882507 214.43876526 654.21452515 215.33065552 654.22039795 216.24957275 C654.22979074 218.13202757 654.23635898 220.0144984 654.24023438 221.89697266 C654.24983283 224.70116083 654.2808665 227.50458027 654.3125 230.30859375 C654.62158421 282.99311206 633.95512338 336.26890232 597.9921875 374.85546875 C596.19306211 376.79217432 594.50290804 378.78148736 592.8125 380.8125 C577.97137881 397.72526511 559.40149577 410.8660853 540 422 C539.36384766 422.36963867 538.72769531 422.73927734 538.07226562 423.12011719 C513.62956171 437.21168666 481.4649437 449.49961768 453 449 C455.51424842 455.62670486 458.05869697 462.24125116 460.62329102 468.84863281 C461.49011849 471.09211048 462.35030033 473.33816874 463.20336914 475.58691406 C471.31583492 496.94800007 480.48223046 513.76827662 502 524 C514.88256371 529.18806796 527.68308658 532.28581712 541.61206055 532.31884766 C542.62442937 532.32900091 543.63679819 532.33915417 544.67984486 532.3496151 C547.91546645 532.37993898 551.15100155 532.3973168 554.38671875 532.4140625 C556.40092704 532.43102318 558.41512828 532.44884266 560.42932129 532.4675293 C567.8486335 532.53039885 575.26807849 532.57672165 582.6875 532.625 C607.5921875 532.810625 607.5921875 532.810625 633 533 C633 583.16 633 633.32 633 685 C615.984375 685.061875 598.96875 685.12375 581.4375 685.1875 C573.45067017 685.22846802 573.45067017 685.22846802 565.30249023 685.27026367 C558.67785645 685.28381348 558.67785645 685.28381348 555.5528717 685.28633118 C553.42219651 685.29086508 551.2915278 685.30125952 549.16090393 685.31672668 C529.60461848 685.45129511 510.3271294 684.08051015 491.3125 679.25 C489.76236206 678.86485229 489.76236206 678.86485229 488.1809082 678.47192383 C451.00180621 668.96045856 416.52618526 650.68730326 388 625 C387.1948999 624.28529541 387.1948999 624.28529541 386.37353516 623.55615234 C370.06764195 609.05618578 356.39600472 592.79179583 344.6875 574.375 C344.2325415 573.66077881 343.77758301 572.94655762 343.30883789 572.21069336 C334.13245818 557.44840464 327.57062162 542.06594953 321.234375 525.9296875 C320.31132198 523.59888134 319.38741523 521.26841312 318.46270752 518.93826294 C316.2857298 513.44737953 314.11626805 507.95357864 311.95089841 502.45810807 C307.8781583 492.12304763 303.78711339 481.79521341 299.69731522 471.46689415 C298.76139004 469.10295122 297.825822 466.73886687 296.89060593 464.37464333 C291.5960392 450.99163524 286.25328628 437.63819704 280.69503784 424.36225891 C272.48877609 404.67851724 264.71313284 384.81508887 256.83300781 364.99926758 C254.59456865 359.37039461 252.35368148 353.74250292 250.11135948 348.11517578 C247.92813409 342.6359662 245.74680866 337.15600178 243.56631851 331.67570305 C242.6473976 329.36665821 241.72799778 327.05780391 240.80810165 324.74914742 C239.53172722 321.54508281 238.25751532 318.34016666 236.98388672 315.13500977 C236.60784805 314.19226196 236.23180939 313.24951416 235.84437561 312.27819824 C235.49715958 311.40313126 235.14994354 310.52806427 234.79220581 309.6264801 C234.49253843 308.87324746 234.19287106 308.12001482 233.88412285 307.34395695 C232.84421033 304.58697565 231.9171676 301.79992705 231 299 C232.02299509 298.99668985 233.04599018 298.99337971 234.09998512 298.98996925 C259.03206079 298.90884881 283.96407575 298.81649499 308.89606667 298.71247292 C320.95315924 298.66242595 333.01024529 298.61598229 345.06738281 298.578125 C355.58067066 298.54510587 366.09390662 298.50522029 376.60713708 298.45720994 C382.1698885 298.43204334 387.73260594 298.41023336 393.29539871 298.39665604 C398.54026061 298.38374595 403.78500538 298.36159666 409.02980232 298.33261681 C410.94607711 298.32361051 412.86237072 298.31786722 414.77866554 298.31578636 C438.1583107 298.28587457 460.71150889 295.69394214 478.29296875 278.50390625 C480 277 480 277 482 277 C482.26296875 276.4225 482.5259375 275.845 482.796875 275.25 C484.0633429 272.88154056 485.5232179 271.0534706 487.25 269 C499.33066126 253.60406372 503.55675043 234.22618946 501.4375 215 C499.18690473 201.91375732 494.05476419 190.55016173 486 180 C485.44570313 179.26265625 484.89140625 178.5253125 484.3203125 177.765625 C472.82132861 163.57070709 454.91780059 155.7002419 437.16960609 153.21512616 C432.59837071 152.7618677 428.00387201 152.84593244 423.41444397 152.84178162 C422.25561203 152.83685196 421.09678009 152.8319223 419.90283203 152.82684326 C416.69333309 152.814172 413.48385731 152.80587819 410.27434094 152.79942851 C406.75748145 152.79126855 403.24064351 152.77740742 399.72379971 152.76427555 C392.9009787 152.7396487 386.07815251 152.72003739 379.25531077 152.70219031 C371.36123125 152.68132391 363.46718135 152.6541992 355.57312012 152.6270752 C334.73626355 152.5585651 313.89937975 152.49855234 293.0625 152.4375 C246.511875 152.293125 199.96125 152.14875 152 152 C152 327.89 152 503.78 152 685 C101.84 685 51.68 685 0 685 C0 458.95 0 232.9 0 0 Z " transform="translate(3704,1069)" style="fill: #000000;"/><path d="M0 0 C71.424375 -0.04125 142.84875 -0.0825 216.4375 -0.125 C238.97216553 -0.14320801 261.50683105 -0.16141602 284.72436523 -0.18017578 C312.28723145 -0.18920898 312.28723145 -0.18920898 325.19935608 -0.19088745 C334.19826815 -0.19274726 343.19715519 -0.20006128 352.19606018 -0.21115112 C362.59098714 -0.22394227 372.98589023 -0.22965783 383.38082511 -0.2268899 C388.69061702 -0.22569253 394.00035565 -0.22750121 399.31013763 -0.23843026 C452.90041687 -0.34336251 452.90041687 -0.34336251 473.8125 4.25 C474.83762695 4.46688477 475.86275391 4.68376953 476.91894531 4.90722656 C505.77253892 11.2007656 533.95549357 22.65922509 558 40 C558.95777344 40.68449219 559.91554688 41.36898438 560.90234375 42.07421875 C578.0604945 54.63281266 594.06579107 69.06836238 607 86 C607.41813965 86.53641113 607.8362793 87.07282227 608.26708984 87.62548828 C633.73968805 120.40252362 649.94184006 160.66339414 654 202 C654.16628906 203.66289063 654.16628906 203.66289063 654.3359375 205.359375 C659.5486944 266.50360461 639.82325796 325.45652757 600.6315918 372.28686523 C584.0364646 391.84550405 564.32988503 408.30634666 542 421 C541.32549805 421.38510742 540.65099609 421.77021484 539.95605469 422.16699219 C514.62410786 436.45942393 482.62276101 449.6871259 453 449 C455.86248359 456.18550999 458.73734932 463.36596233 461.61865234 470.54394531 C462.90906809 473.77249345 464.1848381 477.00642574 465.45703125 480.2421875 C466.22100753 482.16159634 466.98531428 484.08087369 467.75 486 C468.2593811 487.31315186 468.2593811 487.31315186 468.77905273 488.65283203 C475.59187686 505.61870875 487.47437743 516.87864457 503.8984375 524.6875 C520.8146561 531.84600057 537.20781096 532.31942421 555.265625 532.4140625 C557.2589593 532.43102748 559.25228652 532.44884741 561.24560547 532.4675293 C568.58032247 532.53034679 575.915173 532.57670541 583.25 532.625 C607.87625 532.810625 607.87625 532.810625 633 533 C633 583.16 633 633.32 633 685 C615.96375 685.061875 598.9275 685.12375 581.375 685.1875 C576.04134277 685.21481201 570.70768555 685.24212402 565.21240234 685.27026367 C558.58325195 685.28381348 558.58325195 685.28381348 555.45742798 685.28633118 C553.32337555 685.29086905 551.18932967 685.3012724 549.05532837 685.31672668 C529.74422396 685.44930391 511.02074606 683.82404762 492.1875 679.375 C490.58273804 678.99867432 490.58273804 678.99867432 488.94555664 678.61474609 C455.96591512 670.52972604 425.4831216 655.16982216 399 634 C398.1941748 633.36553955 398.1941748 633.36553955 397.37207031 632.71826172 C392.10564133 628.57041032 387.12831395 624.30468367 382.4765625 619.4765625 C380.90233668 617.840442 380.90233668 617.840442 378.5 616.0625 C375.60021444 613.67017691 373.2913018 611.02209614 370.859375 608.1640625 C369.68873822 606.80159868 368.49363718 605.45942347 367.265625 604.1484375 C357.2155197 593.36819634 348.53214354 581.09530126 341.125 568.375 C340.72176514 567.6855127 340.31853027 566.99602539 339.90307617 566.28564453 C331.04605466 550.61263739 324.58033704 533.81298344 317.9744339 517.1121254 C315.72035064 511.42022916 313.45129125 505.73426331 311.18578339 500.04690742 C310.2368041 497.66408899 309.28845787 495.28101924 308.34014893 492.89793396 C300.08946248 472.17205643 291.7539579 451.48018807 283.42901611 430.78405762 C278.79023725 419.2514878 274.15473466 407.717601 269.51953125 396.18359375 C269.06912727 395.06284077 268.6187233 393.94208778 268.15467072 392.78737259 C260.13860925 372.83997934 252.1282949 352.89029258 244.13763428 332.93270874 C242.92815007 329.91191548 241.71788159 326.89143842 240.50689697 323.87124634 C239.12475325 320.42400676 237.74425643 316.97611288 236.36521339 313.52763176 C235.63501671 311.70275776 234.90318849 309.87853687 234.17131042 308.05433655 C233.747798 306.99403732 233.32428558 305.9337381 232.88793945 304.84130859 C232.52021927 303.92272064 232.15249908 303.00413269 231.77363586 302.05770874 C231 300 231 300 231 299 C232.54222323 298.99503478 232.54222323 298.99503478 234.11560249 298.98996925 C259.17285594 298.90885014 284.23004899 298.81649672 309.28721809 298.71247292 C321.40484489 298.66242516 333.52246519 298.61598151 345.64013672 298.578125 C356.2061621 298.5451067 366.77213585 298.50522156 377.33810413 298.45720994 C382.92880124 298.43204253 388.51946452 298.41023278 394.11020279 298.39665604 C399.38132922 298.3837467 404.65233909 298.36159818 409.92340088 298.33261681 C411.84935107 298.32360994 413.77532 298.31786708 415.70129013 298.31578636 C440.40646392 298.28433934 462.11453316 294.67083546 480.87890625 277.2109375 C495.13734785 262.34854718 502.46421802 243.04006948 502.20703125 222.58203125 C501.03284648 202.26641924 492.36687611 184.67949107 477.75 170.6875 C461.90339478 157.46802157 443.12134253 152.68465025 422.81317139 152.7215271 C421.65005936 152.71574142 420.48694733 152.70995575 419.28858948 152.70399475 C416.09035118 152.69003837 412.89224109 152.68479626 409.6939773 152.68335578 C406.18074249 152.67955138 402.66755353 152.66421097 399.15434647 152.6503849 C392.34902557 152.62530126 385.54372019 152.61025195 378.73836417 152.59880099 C370.85890736 152.58510348 362.97952542 152.5587693 355.10009766 152.5324707 C334.31676151 152.46929172 313.53337632 152.42318261 292.75 152.375 C223.07875 152.189375 223.07875 152.189375 152 152 C152 327.89 152 503.78 152 685 C101.84 685 51.68 685 0 685 C0 458.95 0 232.9 0 0 Z " transform="translate(725,1069)" style="fill: #000000;"/><path d="M0 0 C4.06494954 0.00882807 8.12989494 0.00570103 12.1948514 0.00419545 C19.19903669 0.00315853 26.20318404 0.0093082 33.20735979 0.02067113 C43.33358881 0.03708809 53.45979993 0.04215047 63.58604081 0.04464711 C80.02448707 0.04899917 96.46291322 0.06223981 112.90134859 0.08125234 C128.84763666 0.0996762 144.7939192 0.11377765 160.74021578 0.12226796 C162.23539866 0.12307195 162.23539866 0.12307195 163.76078725 0.12389219 C171.55902996 0.12805226 179.35727279 0.13196568 187.15551567 0.13580132 C225.22543418 0.1545892 263.2953022 0.19484435 301.36521578 0.23213124 C301.36521578 50.39213124 301.36521578 100.55213124 301.36521578 152.23213124 C277.55880953 152.28111562 253.75240328 152.33009999 229.22459078 152.38056874 C214.13995187 152.41595542 199.05531641 152.4518236 183.97068453 152.48994374 C176.04408985 152.50994959 168.11749487 152.52983368 160.19089937 152.54951406 C159.197529 152.55198549 158.20415862 152.55445693 157.18068612 152.55700326 C141.17615677 152.59664416 125.17162044 152.62942093 109.16707084 152.65963106 C92.72301292 152.69082476 76.27898448 152.72946756 59.83495975 152.7749213 C49.70089637 152.80270172 39.56685436 152.82477963 29.43276331 152.83939375 C22.46871883 152.84999494 15.50471591 152.86787881 8.54070285 152.89129828 C4.53223615 152.90456935 0.52382729 152.91481346 -3.48466253 152.91634488 C-33.14414688 152.72225315 -33.14414688 152.72225315 -62.32228422 157.48213124 C-63.18692289 157.69829091 -64.05156157 157.91445058 -64.94240141 158.13716054 C-108.66207127 169.40449552 -146.92263681 196.9303398 -170.20363188 235.85517812 C-185.89932161 263.11227303 -193.75611302 292.3705934 -193.83790922 323.72041249 C-193.8407366 324.4594752 -193.84356398 325.19853791 -193.84647703 325.95999646 C-193.86140187 329.87989451 -193.87067071 333.79975647 -193.8750186 337.71968007 C-193.87938362 340.91673753 -193.89320746 344.11352214 -193.91603422 347.31050038 C-194.06240482 368.24008728 -194.0564507 388.68013312 -187.88478422 408.91963124 C-187.62874418 409.78281972 -187.37270414 410.6460082 -187.10890532 411.5353539 C-174.03430803 454.36864881 -145.20231349 490.95280817 -105.59572172 512.17353749 C-104.27741195 512.86357519 -102.95713604 513.5498715 -101.63478422 514.23213124 C-101.01635649 514.55165761 -100.39792875 514.87118398 -99.76076078 515.20039296 C-79.46607257 525.52036599 -56.29185936 532.35927518 -33.42164946 532.39034963 C-32.24145861 532.39775659 -32.24145861 532.39775659 -31.03742552 532.40531319 C-28.42274497 532.42057038 -25.80808873 532.42901656 -23.19337797 532.43745351 C-21.31044635 532.44704132 -19.42751683 532.45705192 -17.54458952 532.46745229 C-12.44813192 532.49440963 -7.35166514 532.51546866 -2.25517607 532.53545427 C3.07663808 532.5573706 8.40842424 532.58473159 13.74021578 532.61151052 C23.8299431 532.66136121 33.91968603 532.70632823 44.00944376 532.74953288 C57.64853053 532.80821882 71.28758045 532.87446461 84.92663431 532.94028306 C106.40613662 533.04373845 127.88567069 533.1371069 149.36521578 533.23213124 C149.36521578 495.61213124 149.36521578 457.99213124 149.36521578 419.23213124 C95.24521578 419.23213124 41.12521578 419.23213124 -14.63478422 419.23213124 C-14.63478422 369.40213124 -14.63478422 319.57213124 -14.63478422 268.23213124 C89.31521578 268.23213124 193.26521578 268.23213124 300.36521578 268.23213124 C300.36521578 405.84213124 300.36521578 543.45213124 300.36521578 685.23213124 C215.07052828 685.32494374 215.07052828 685.32494374 128.05271578 685.41963124 C110.13047701 685.44694325 92.20823824 685.47425527 73.74290133 685.50239491 C51.77500582 685.51594472 51.77500582 685.51594472 41.47491121 685.51846242 C34.31606727 685.52124544 27.15729459 685.53218758 19.99847078 685.54885793 C11.72007389 685.56810648 3.44174468 685.57660389 -4.8366747 685.57246609 C-9.06125643 685.57067755 -13.28568738 685.57328558 -17.51024067 685.58977664 C-41.68793496 685.6795617 -65.6119381 684.70199987 -89.32228422 679.48213124 C-90.5159561 679.2260912 -91.70962797 678.97005116 -92.93947172 678.70625234 C-160.18922604 663.88593586 -227.34503247 626.66122813 -270.50978422 571.91181874 C-272.7274719 569.11524935 -275.05108172 566.43234471 -277.38478422 563.73213124 C-323.16218615 508.84196501 -346.67057948 435.53803256 -346.83790922 364.70088124 C-346.8407366 363.87742711 -346.84356398 363.05397298 -346.84647703 362.20556569 C-346.86137524 357.8343722 -346.87065971 353.46321083 -346.8750186 349.09199452 C-346.87937218 345.54729168 -346.89315555 342.00283649 -346.91603422 338.45820546 C-347.0847425 311.75490357 -346.53109517 285.35299508 -340.94728422 259.10713124 C-340.69237211 257.88034657 -340.43746 256.65356191 -340.17482328 255.38960195 C-326.77450575 193.05891347 -295.25882998 137.89730148 -250.50978422 92.85713124 C-249.60365385 91.94165517 -248.69752348 91.02617909 -247.76393461 90.08296132 C-241.69357106 84.0411461 -235.33698927 78.55802543 -228.63478422 73.23213124 C-227.35675911 72.18376328 -226.08046412 71.13327914 -224.80665922 70.07978749 C-216.42423668 63.22655832 -207.78893617 57.01178291 -198.63478422 51.23213124 C-198.05857328 50.86555409 -197.48236235 50.49897695 -196.88869047 50.1212914 C-136.449344 11.93554783 -70.40586221 -0.19284946 0 0 Z " transform="translate(346.63478422164917,1068.767868757248)" style="fill: #000000;"/><path d="M0 0 C32.93536971 70.90460185 57.08851246 146.74729439 70.203125 271.16015625 C70.21015078 272.50079886 70.21723756 273.84144114 70.22438049 275.18208313 C70.24388408 279.47556001 70.2488196 283.76898334 70.25 288.0625 C70.25044186 288.79714729 70.25088371 289.53179459 70.25133896 290.28870392 C70.25942681 315.96198158 69.51297052 341.43551858 67 367 C66.8691803 368.34369659 66.8691803 368.34369659 66.73571777 369.71453857 C58.29390292 455.7114998 39.7779223 539.77173347 -19 689 C-19.495 690.05703125 -19.99 691.1140625 -20.5 692.203125 C-40.6138126 735.15449566 -65.00220341 776.42175023 -94 814 C-94.40750488 814.53222168 -94.81500977 815.06444336 -95.23486328 815.61279297 C-152.08912006 889.76030847 -244.23378533 942.99811392 -337.0078125 956.03515625 C-387.00648116 962.37748946 -437.7620709 954.44547871 -483 932 C-484.17175781 931.42765625 -485.34351563 930.8553125 -486.55078125 930.265625 C-504.81452584 920.90840686 -521.65852136 906.9662537 -528.21875 886.91796875 C-533.30214837 867.93147585 -531.98186244 845.79597924 -522.46875 828.3359375 C-514.35531982 815.43213099 -503.13511302 806.14431005 -488.3203125 801.9609375 C-463.15312499 796.4540069 -440.338543 803.77506579 -419 817 C-417.93265625 817.69738281 -416.8653125 818.39476562 -415.765625 819.11328125 C-392.1395196 834.41262512 -363.87816305 834.65665742 -337 829 C-287.95620341 818.27999426 -244.40359422 790.64032212 -207 758 C-206.11699219 757.23042969 -205.23398438 756.46085938 -204.32421875 755.66796875 C-197.62647314 749.66810691 -191.22992653 743.35713287 -184.84906006 737.02429199 C-183.84183768 736.02511139 -182.83313969 735.02741559 -181.82281494 734.03137207 C-175.8211658 728.10559175 -170.18429196 722.01797515 -164.93725586 715.40478516 C-163.11696689 713.14519519 -161.22148477 711.00275932 -159.25 708.875 C-138.40631932 685.63264178 -121.16067085 658.18073254 -106 631 C-105.48969238 630.08766602 -104.97938477 629.17533203 -104.45361328 628.23535156 C-62.83860242 553.50800156 -38.7414057 471.0278571 -30.3125 225.65625 C-37.78802852 200.05609102 -48.44334962 174.39345206 -66 154 C-72.09798123 157.98983741 -78.02852773 162.15121978 -83.875 166.5 C-85.54943788 167.7396391 -87.22391825 168.97922081 -88.8984375 170.21875 C-89.7450293 170.84652344 -90.59162109 171.47429687 -91.46386719 172.12109375 C-95.46985714 175.08895076 -99.48513996 178.0441598 -103.5 181 C-108.26390148 184.50877119 -113.02671819 188.01897818 -117.78515625 191.53515625 C-127.73412753 198.88335488 -137.72802243 206.16518183 -147.76611328 213.39111328 C-150.76214805 215.54891318 -153.75520151 217.71082641 -156.74804688 219.87304688 C-158.99705308 221.49787096 -161.2465727 223.12198255 -163.49609375 224.74609375 C-166.51092519 226.92329023 -169.52374694 229.10322917 -172.53515625 231.28515625 C-181.94046686 238.09617797 -191.39222393 244.83627757 -200.89111328 251.51611328 C-204.43041174 254.00648791 -207.96492913 256.50362997 -211.5 259 C-212.92055936 260.00262338 -214.34113226 261.00522756 -215.76171875 262.0078125 C-218.55674843 263.98069912 -221.35096382 265.95473097 -224.14453125 267.9296875 C-248.14520977 284.89325196 -272.22072015 301.75704969 -296.51074219 318.30419922 C-298.19413187 319.45100431 -299.87706232 320.59848377 -301.55957031 321.74658203 C-316.38107847 331.86004979 -331.24973473 341.90334234 -346.125 351.9375 C-347.04684082 352.55947266 -347.96868164 353.18144531 -348.91845703 353.82226562 C-358.14564602 360.04712615 -367.37867937 366.2623306 -376.64555359 372.42797852 C-383.60183341 377.05990601 -390.52055749 381.74711325 -397.4375 386.4375 C-398.11487213 386.89665802 -398.79224426 387.35581604 -399.49014282 387.82888794 C-409.35268633 394.5149571 -419.21462068 401.20124363 -429 408 C-429.75716309 408.52577637 -430.51432617 409.05155273 -431.29443359 409.59326172 C-443.29046126 417.93326671 -455.19819334 426.38732182 -467 435 C-467.77730469 435.5671875 -468.55460937 436.134375 -469.35546875 436.71875 C-485.63302977 448.61491205 -501.66419947 460.76109657 -517.24414062 473.56005859 C-518.80935592 474.84365701 -520.380817 476.11963072 -521.953125 477.39453125 C-538.69972444 490.98278079 -554.47792124 505.41336222 -569.78033447 520.60510254 C-570.8258059 521.64253095 -571.87275299 522.67847483 -572.92132568 523.71276855 C-579.01219608 529.72932116 -584.7345798 535.89826158 -590.08300781 542.59936523 C-591.61329142 544.51572779 -593.16784807 546.379663 -594.79296875 548.21484375 C-608.36636058 563.64821097 -619.35684468 580.8912845 -629 599 C-629.37850098 599.70624512 -629.75700195 600.41249023 -630.14697266 601.14013672 C-641.24750646 622.21120987 -647.37256756 645.76634554 -652 669 C-652.14550293 669.70415039 -652.29100586 670.40830078 -652.44091797 671.13378906 C-657.18798503 694.9258622 -656.18210356 722.08116082 -643 743 C-637.44497517 750.29890997 -629.81737577 755.29747647 -620.75 757.0625 C-616.0433387 756.98405564 -614.53468121 756.08344531 -611 753 C-606.21282108 747.80766679 -601.73189275 742.33055191 -597.25 736.875 C-596.64438232 736.13926758 -596.03876465 735.40353516 -595.41479492 734.64550781 C-591.19329577 729.499532 -587.06589184 724.2877005 -582.97802734 719.03540039 C-578.98948215 713.93402905 -574.81760824 709.00192907 -570.61328125 704.078125 C-568.22117731 701.2729268 -565.88544149 698.42536843 -563.5625 695.5625 C-559.16337821 690.161443 -554.64176985 684.87315898 -550.09375 679.59765625 C-548.08054875 677.2621662 -546.08071839 674.91643598 -544.09375 672.55859375 C-538.04437959 665.39942476 -531.7970688 658.47378187 -525.33862305 651.68017578 C-522.26605763 648.44426936 -519.25661734 645.17552982 -516.33203125 641.8046875 C-513.18433588 638.17825351 -509.85201841 634.81165965 -506.40625 631.46875 C-504.47109602 629.48333228 -502.66945605 627.47330988 -500.86694336 625.37133789 C-496.99236201 620.93012487 -492.89474389 616.75030249 -488.72265625 612.58984375 C-487.95247665 611.81870743 -487.18229706 611.04757111 -486.38877869 610.25306702 C-484.77058627 608.63419847 -483.15114788 607.01657449 -481.53051758 605.40014648 C-479.06932768 602.94431282 -476.61352191 600.48318635 -474.15820312 598.02148438 C-472.57584133 596.43978347 -470.99316933 594.85839283 -469.41015625 593.27734375 C-468.68594986 592.55111313 -467.96174347 591.82488251 -467.21559143 591.0766449 C-463.17629923 587.05560589 -459.04497651 583.20570937 -454.71678162 579.49659729 C-452.36041848 577.44244745 -450.18001579 575.23893514 -448 573 C-444.55563057 569.51909938 -441.04675105 566.22496381 -437.328125 563.04296875 C-434.1573247 560.26053828 -431.08306864 557.37893483 -428 554.5 C-422.58139676 549.45000923 -417.10223081 544.50404336 -411.46972656 539.69287109 C-409.68779854 538.17065933 -407.90631399 536.64793026 -406.125 535.125 C-405.51615967 534.60502441 -404.90731934 534.08504883 -404.2800293 533.54931641 C-400.74299739 530.52055224 -397.25573515 527.44820537 -393.8125 524.3125 C-389.63115567 520.51932607 -385.30962022 516.93781764 -380.921875 513.38671875 C-377.72588762 510.7760927 -374.57937757 508.11268932 -371.4375 505.4375 C-366.94121177 501.61644016 -362.39651457 497.8736545 -357.76953125 494.2109375 C-355.62844307 492.5016908 -353.50355253 490.77794902 -351.38671875 489.0390625 C-343.99640179 482.97455578 -336.52528512 477.07099233 -328.84985352 471.37109375 C-324.61901073 468.22620683 -320.44424401 465.02383285 -316.3125 461.75 C-310.31360891 457.00642425 -304.26162493 452.33432509 -298.1875 447.6875 C-297.31585205 447.01750977 -296.4442041 446.34751953 -295.54614258 445.65722656 C-290.16500938 441.55058576 -284.68317844 437.67765481 -279 434 C-278.34 434.33 -277.68 434.66 -277 435 C-281.92990397 439.52353444 -286.8907289 443.95505717 -292.125 448.125 C-297.72851799 452.65245123 -302.94940933 457.54350093 -308.16650391 462.50830078 C-312.05129103 466.20134318 -316.00739986 469.78077365 -320.05541992 473.29394531 C-323.12071173 475.98324338 -326.09167215 478.76974334 -329.0625 481.5625 C-330.37099256 482.78917045 -331.67958938 484.01572969 -332.98828125 485.2421875 C-333.65037598 485.86319336 -334.3124707 486.48419922 -334.99462891 487.12402344 C-336.96376166 488.9660999 -338.93955625 490.80071027 -340.91796875 492.6328125 C-347.53004534 498.76242696 -354.04617101 504.94493318 -360.33984375 511.40234375 C-362.39092112 513.40523134 -364.45365322 515.26971799 -366.62695312 517.13134766 C-371.14697773 521.07334777 -375.39509242 525.25079292 -379.62890625 529.49609375 C-380.42223862 530.28846939 -381.21557098 531.08084503 -382.03294373 531.89723206 C-383.69889081 533.56250283 -385.36359256 535.22902029 -387.02709961 536.89672852 C-389.55536134 539.43034622 -392.08891661 541.95858167 -394.62304688 544.48632812 C-396.2503207 546.11426283 -397.87728425 547.74250775 -399.50390625 549.37109375 C-400.62606285 550.490214 -400.62606285 550.490214 -401.77088928 551.63194275 C-405.82458404 555.70352326 -409.71346471 559.8589519 -413.44700623 564.2268219 C-416.47925775 567.68898774 -419.81336342 570.85440081 -423.10546875 574.06640625 C-426.64678235 577.55627219 -429.95072652 581.18567604 -433.20117188 584.94726562 C-436.81565826 589.07194009 -440.62350768 593.01904316 -444.39453125 597 C-450.686916 603.67018839 -456.67187147 610.59025552 -462.625 617.5625 C-466.4194073 622.00183531 -470.23396059 626.42232507 -474.07202148 630.82397461 C-478.806831 636.2587065 -483.47903039 641.71684071 -487.9375 647.3828125 C-489.48648234 649.34837721 -491.04811383 651.29923846 -492.625 653.2421875 C-501.03051351 663.62001611 -509.06247377 674.26124209 -517 685 C-517.56895996 685.76747559 -518.13791992 686.53495117 -518.72412109 687.32568359 C-539.21169158 715.03354323 -556.49387298 744.54289136 -571.8125 775.375 C-572.24542358 776.24361664 -572.67834717 777.11223328 -573.12438965 778.00717163 C-580.11103651 792.03250175 -586.87299064 806.14087595 -593.35888672 820.40576172 C-594.82862278 823.62466297 -596.31233244 826.83646248 -597.80303955 830.04566956 C-616.84836453 871.05004948 -634.51909858 912.75720733 -648.31054688 955.85107422 C-649.18447538 958.57498309 -650.08868701 961.28839714 -651 964 C-662.47707203 960.08976367 -672.40992777 949.25820062 -681 941 C-681.59603027 940.43120117 -682.19206055 939.86240234 -682.80615234 939.27636719 C-691.70126936 930.74604862 -699.72538988 921.94718193 -707 912 C-707.4856543 911.34273926 -707.97130859 910.68547852 -708.47167969 910.00830078 C-739.06195256 868.42556954 -757.3354953 819.23694629 -763 768 C-763.08506805 767.23289703 -763.17013611 766.46579407 -763.25778198 765.67544556 C-764.89342098 750.45331873 -765.34289542 735.32628019 -765.31567383 720.02270508 C-765.3125177 716.33319377 -765.33607664 712.6444911 -765.36132812 708.95507812 C-765.56838322 631.27555476 -739.20328028 558.17988546 -689.41064453 498.69873047 C-687.44349082 496.3298389 -685.54106003 493.91029607 -683.625 491.5 C-673.86480408 479.63328697 -662.90020097 468.80859044 -652.0625 457.9375 C-651.57231384 457.44463501 -651.08212769 456.95177002 -650.5770874 456.44396973 C-644.89766305 450.74098324 -639.11841684 445.23186893 -633 440 C-631.39231627 438.54554483 -629.78760285 437.08779105 -628.1875 435.625 C-623.94911157 431.80402862 -619.60120897 428.15752669 -615.1640625 424.5703125 C-612.7871519 422.64819539 -610.43324057 420.70034731 -608.0859375 418.7421875 C-599.23922711 411.3736902 -590.23891489 404.29883902 -580.97509766 397.46337891 C-578.3396367 395.51072711 -575.7233131 393.53321131 -573.10595703 391.55639648 C-542.73305217 368.65131824 -511.03942136 347.4945099 -479 327 C-478.18418457 326.47760742 -477.36836914 325.95521484 -476.52783203 325.41699219 C-455.53433832 311.98522882 -434.40265505 298.78583265 -413.08691406 285.87158203 C-409.79303388 283.87451738 -406.50172327 281.87325075 -403.2109375 279.87109375 C-378.53051809 264.85859688 -353.73819686 250.03748585 -328.88916016 235.30615234 C-325.25195169 233.14975668 -321.61611134 230.9910659 -317.98046875 228.83203125 C-305.85514574 221.63471296 -293.70688929 214.47848262 -281.53442383 207.36132812 C-272.0605564 201.82008085 -262.64093014 196.19401047 -253.24389648 190.52319336 C-245.86360165 186.08302076 -238.41393798 181.77581497 -230.9375 177.5 C-210.90460231 165.9874682 -191.60120635 153.48781854 -172.375 140.6875 C-171.47040039 140.0857193 -170.56580078 139.4839386 -169.63378906 138.86392212 C-158.95686334 131.75344542 -148.37190665 124.54926875 -138 117 C-137.12633789 116.36537842 -136.25267578 115.73075684 -135.35253906 115.0769043 C-133.04218634 113.39170858 -130.73807977 111.69850727 -128.4375 110 C-127.63159424 109.40533936 -126.82568848 108.81067871 -125.99536133 108.19799805 C-119.26213795 103.21706433 -112.60389601 98.15120587 -106 93 C-105.46133301 92.58218262 -104.92266602 92.16436523 -104.36767578 91.73388672 C-86.80954197 78.11393031 -69.6609131 63.93092999 -53.20703125 48.9921875 C-51.26373999 47.23806619 -49.29640552 45.52027306 -47.3125 43.8125 C-38.34435128 35.9543579 -29.71953515 27.76549583 -21.31640625 19.30859375 C-20.73155457 18.72045395 -20.14670288 18.13231415 -19.54412842 17.52635193 C-16.57481824 14.53744863 -13.61321081 11.54133227 -10.66064453 8.53588867 C-9.55902888 7.42225485 -8.45730826 6.30872484 -7.35546875 5.1953125 C-6.84464249 4.67098129 -6.33381622 4.14665009 -5.80751038 3.60643005 C-2.22634575 0 -2.22634575 0 0 0 Z " transform="translate(2407,0)" style="fill: #65B32C;"/><path d="M0 0 C53.46 0 106.92 0 162 0 C166.39978467 11.313732 170.77237209 22.62857158 175.02734375 33.99609375 C175.57841258 35.46589748 176.12956751 36.93566893 176.68080139 38.40541077 C178.13439031 42.28202619 179.58654563 46.15917701 181.03833008 50.03646851 C181.94878732 52.46764026 182.8596944 54.898643 183.77075195 57.32958984 C190.8324172 76.17203404 197.88177093 95.01891625 204.88473511 113.88327026 C211.71225774 132.2720924 218.60823403 150.63518776 225.5 169 C232.98810008 188.95389174 240.47051629 208.9095637 247.88720703 228.89013672 C254.71394038 247.27665671 261.60908883 265.63746558 268.5 284 C282.73492084 321.93246166 282.73492084 321.93246166 289.11581421 339.118927 C291.64935163 345.94163056 294.18891675 352.76209444 296.72808838 359.58270264 C297.66225446 362.09256513 298.59612649 364.60253595 299.52972412 367.11260986 C302.81715506 375.95039459 306.10922405 384.78642809 309.4089489 393.61963081 C310.94258986 397.72549704 312.47432309 401.83205043 314.0012207 405.94042969 C315.44520023 409.82549449 316.89455778 413.70851239 318.3477726 417.59013176 C318.8864289 419.03169396 319.42320098 420.47396189 319.95790672 421.91699409 C325.80476833 439.9462198 325.80476833 439.9462198 339.28515625 452.0625 C346.97434053 454.79209949 354.8020637 454.67959197 362.3125 451.375 C369.48928267 447.15189402 372.93350314 440.83284058 375.73046875 433.23046875 C376.06104782 432.36947067 376.39162689 431.5084726 376.73222351 430.62138367 C377.45216009 428.74345749 378.16601243 426.86318998 378.87445068 424.980896 C380.02977768 421.92113703 381.20804068 418.87112632 382.39306641 415.82275391 C384.57875328 410.19849465 386.75039944 404.56895167 388.91748047 398.9375 C391.09681198 393.27444185 393.27962852 387.61272785 395.46241379 381.95100021 C395.95910494 380.6626292 396.4557505 379.37424061 396.95235062 378.0858345 C401.7840015 365.55039862 406.63844352 353.02386538 411.5 340.5 C421.09993157 315.76391629 430.65251858 291.00963278 440.20166016 266.25390625 C445.25606612 253.15104811 450.31391821 240.04951971 455.37115479 226.94775391 C456.74355208 223.39226102 458.11592598 219.83675911 459.48828125 216.28125 C459.941427 215.10723633 460.39457275 213.93322266 460.8614502 212.72363281 C463.64238142 205.51843673 466.42248991 198.31292375 469.20199585 191.10717773 C478.28328279 167.56443156 487.37114494 144.02434802 496.5 120.5 C503.43392396 102.63164906 510.34871615 84.75598356 517.25 66.875 C517.68046631 65.75988037 518.11093262 64.64476074 518.55444336 63.49584961 C526.72140221 42.3376408 534.85845227 21.16802411 543 0 C596.79 0 650.58 0 706 0 C705.32995807 4.02025159 704.8600606 6.78797252 703.44384766 10.40161133 C703.12407455 11.22603226 702.80430145 12.05045319 702.47483826 12.89985657 C702.12478226 13.78497421 701.77472626 14.67009186 701.4140625 15.58203125 C701.04583878 16.52680832 700.67761505 17.47158539 700.29823303 18.44499207 C699.07910136 21.56958619 697.85196706 24.69097533 696.625 27.8125 C695.76085649 30.02384709 694.89734163 32.23543994 694.03442383 34.44726562 C692.24270909 39.03824417 690.44829773 43.6281545 688.65185547 48.21728516 C685.02870261 57.47773186 681.43408566 66.74920514 677.84158325 76.02157593 C676.67285617 79.03779236 675.50337296 82.05371473 674.33374023 85.06958008 C665.46117679 107.95115561 656.63057746 130.84893036 647.79833984 153.74609375 C642.74393388 166.84895189 637.68608179 179.95048029 632.62884521 193.05224609 C631.25644792 196.60773898 629.88407402 200.16324089 628.51171875 203.71875 C628.058573 204.89276367 627.60542725 206.06677734 627.1385498 207.27636719 C624.35761858 214.48156327 621.57751009 221.68707625 618.79800415 228.89282227 C609.33186875 253.4332673 599.85516428 277.96946887 590.3394165 302.49072266 C581.12767395 326.23040364 571.96263486 349.98806488 562.79833984 373.74609375 C557.74393388 386.84895189 552.68608179 399.95048029 547.62884521 413.05224609 C546.25644792 416.60773898 544.88407402 420.16324089 543.51171875 423.71875 C543.058573 424.89276367 542.60542725 426.06677734 542.1385498 427.27636719 C539.35761858 434.48156327 536.57751009 441.68707625 533.79800415 448.89282227 C523.95731848 474.40426866 514.11223098 499.91390673 504.20703125 525.40039062 C500.09615824 535.982965 496.00881623 546.57418136 491.95235062 557.17771912 C490.46864665 561.05416257 488.98164435 564.92934253 487.49477577 568.80457306 C486.29873928 571.92297013 485.10593334 575.04251765 483.91748047 578.16381836 C475.27675171 600.85543394 466.72431034 621.22612644 451 640 C450.41347656 640.71027344 449.82695312 641.42054688 449.22265625 642.15234375 C428.34904591 666.81255008 396.59145907 681.07389382 365 685 C360.04430739 685.23690838 355.08582574 685.2456842 350.125 685.25 C349.43025574 685.25067474 348.73551147 685.25134949 348.01971436 685.25204468 C337.37268143 685.2356136 327.35676501 684.66993526 317 682 C316.31905273 681.83371094 315.63810547 681.66742187 314.93652344 681.49609375 C291.77877341 675.76765352 272.60093459 663.82853278 255 648 C254.33613281 647.40832031 253.67226562 646.81664062 252.98828125 646.20703125 C235.60314389 629.79448898 226.20961086 607.94566181 218 586 C217.47838659 584.61017615 216.95673832 583.22036537 216.43505859 581.83056641 C213.61340347 574.30301147 210.81309312 566.76763033 208.02232361 559.22857666 C201.92261614 542.75313961 195.74762844 526.30616317 189.57294846 509.85872269 C181.52321203 488.41524305 173.48457705 466.96784775 165.5 445.5 C157.87012182 424.98615232 150.18990731 404.49139737 142.5 384 C134.43869827 362.51894302 126.39294678 341.03240593 118.39453125 319.52783203 C111.13205019 300.00513623 103.81851313 280.50173842 96.5 261 C88.43869827 239.51894302 80.39294678 218.03240593 72.39453125 196.52783203 C64.84055474 176.22155044 57.23104265 155.93623814 49.61876297 135.65176392 C41.27954959 113.42987776 32.95816138 91.2016442 24.69018555 68.953125 C20.76543433 58.3960605 16.81648083 47.84866703 12.8359375 37.3125 C11.9856911 35.05861916 11.13551112 32.80471326 10.28540039 30.55078125 C8.67274064 26.27529716 7.05382134 22.00225525 5.43139648 17.73046875 C4.71052455 15.8204069 3.98988924 13.91025573 3.26953125 12 C2.76956131 10.69156128 2.76956131 10.69156128 2.25949097 9.35668945 C1.95963287 8.55835693 1.65977478 7.76002441 1.35083008 6.9375 C1.0883699 6.24527344 0.82590973 5.55304688 0.55549622 4.83984375 C0 3 0 3 0 0 Z " transform="translate(2634,1069)" style="fill: #000000;"/><path d="M0 0 C76.47018417 8.06412851 158.74594497 48.71573897 219.19482422 94.63476562 C221.08960343 96.06776608 222.99813431 97.48072647 224.91015625 98.890625 C234.50372053 105.98426049 243.8262508 113.37209706 253 121 C253.58990723 121.48936035 254.17981445 121.9787207 254.78759766 122.48291016 C271.51871634 136.42157825 288.23701571 151.43567293 302.34375 168.06640625 C304.25985577 170.30336935 306.25512856 172.45803578 308.25 174.625 C313.29082782 180.2192971 317.91089712 186.09805079 322.50244141 192.06103516 C324.04825404 194.06247694 325.60743442 196.05299057 327.16796875 198.04296875 C389.36347712 277.77241662 419.46644076 376.73306109 422.15663147 510.58273256 C422.15850052 515.03902127 422.16612317 519.49530075 422.17311096 523.95158386 C422.18454951 531.65150775 422.19283897 539.35142955 422.19923019 547.05135918 C422.20965187 559.25675226 422.23023873 571.46211903 422.25234985 583.66749573 C422.25982667 587.86168185 422.26724084 592.05586809 422.27463722 596.25005436 C422.27648779 597.29782225 422.27833835 598.34559013 422.280245 599.42510856 C422.30110506 611.30968897 422.31996499 623.19427225 422.33789062 635.07885742 C422.33952881 636.16315661 422.34116699 637.24745579 422.34285481 638.36461253 C422.36911351 655.91680753 422.38777789 673.46900459 422.40448253 691.0212109 C422.42198666 709.12382301 422.45091515 727.22639462 422.4893719 745.32897431 C422.51258066 756.44884792 422.526749 767.5686555 422.52869953 778.68855352 C422.53083119 786.32759865 422.54394313 793.96657838 422.56517886 801.60559403 C422.57703854 805.9905392 422.58447549 810.37535478 422.57846642 814.76031494 C421.6688613 887.73289879 421.6688613 887.73289879 452.59765625 950.8671875 C462.95701846 960.06427981 475.39504464 959.5915199 488.44238281 958.86376953 C523.47235283 956.45144424 558.04501548 947.75434224 589 931 C590.61648438 930.13761719 590.61648438 930.13761719 592.265625 929.2578125 C598.65677379 925.70171176 604.19535332 921.60901841 609.72265625 916.8203125 C612 915 612 915 615 914 C616.92628091 932.98374532 616.92628091 932.98374532 613.1015625 938.97265625 C610.54266659 940.87533101 607.96600431 942.42499503 605.12304688 943.86523438 C601.74457036 945.67102541 598.60304817 947.82621026 595.40576172 949.93164062 C543.70712768 983.737736 476.68986855 1024.21995232 412.16015625 1010.96484375 C395.20411961 1007.13937239 379.18941656 1000.61380225 366 989 C365.21753906 988.35933594 364.43507813 987.71867187 363.62890625 987.05859375 C331.16541751 959.5583217 321.13116996 914.36423954 317 874 C316.13952994 863.21065017 315.85330092 852.46750172 315.86196899 841.64634705 C315.85954329 840.06403473 315.8566787 838.48172304 315.85341966 836.89941221 C315.84575346 832.59844342 315.84405195 828.29749065 315.84336853 823.99651587 C315.84151273 819.33819774 315.83389643 814.67988865 315.82688904 810.02157593 C315.81540744 801.95756584 315.80713959 793.8935578 315.80076981 785.82954216 C315.79038047 773.0434573 315.76979801 760.25739786 315.74765015 747.47132874 C315.74017147 743.08262166 315.73275745 738.69391447 315.72536278 734.30520725 C315.72351221 733.20850314 315.72166165 732.11179903 315.719755 730.98186145 C315.69885942 718.51826493 315.68001979 706.0546656 315.66210938 693.59106445 C315.66047119 692.45297467 315.65883301 691.31488488 315.65714519 690.14230753 C315.63093776 671.75624192 315.61224919 653.37017432 315.59551747 634.98409801 C315.57799671 616.03420206 315.54904426 597.08434466 315.5106281 578.13447958 C315.48743586 566.49002341 315.47325252 554.84563017 315.47130047 543.20115072 C315.4691644 535.18961489 315.45601725 527.17814117 315.43482114 519.16663336 C315.42298929 514.57037461 315.41550441 509.97423888 315.42153358 505.37796593 C315.44248772 486.89880571 315.04959688 468.54960504 313.61068726 450.12037659 C313.54900626 449.32882362 313.48732527 448.53727066 313.42377515 447.72173124 C308.40279798 384.73420893 292.60588695 322.06137008 263 266 C262.38753418 264.83090088 262.38753418 264.83090088 261.76269531 263.63818359 C252.97778923 246.9572815 242.76287985 231.71281837 231 217 C230.21882813 216.01257813 229.43765625 215.02515625 228.6328125 214.0078125 C216.63423428 199.3179644 203.03277123 185.31932997 187.63574219 174.18701172 C185.96055762 172.97137778 184.31211013 171.72476932 182.6640625 170.47265625 C173.14351017 163.3442025 162.34535667 155.78178556 151 152 C154.105605 165.8999818 157.81240146 179.60899986 161.6875 193.3125 C162.00991669 194.45340088 162.33233337 195.59430176 162.66452026 196.76977539 C175.50543025 242.02939412 190.19390737 286.68427213 209.1875 329.75 C230.73488558 378.64109148 241.74327567 430.97354 247 484 C247.103125 485.00184326 247.20625 486.00368652 247.3125 487.03588867 C248.19444877 496.74756205 248.22093397 506.47372415 248.24023438 516.21801758 C248.24992441 519.16451427 248.28103836 522.11030699 248.3125 525.05664062 C248.52295628 562.90762981 248.52295628 562.90762981 236.76171875 575.46875 C229.44236076 581.83058666 220.54080854 584.56908048 210.94921875 584.3046875 C193.46719036 582.49859715 178.83880872 574.81316922 166 563 C165.49259277 562.54028809 164.98518555 562.08057617 164.46240234 561.60693359 C155.1508004 553.08756761 147.79467479 543.61221242 141 533 C140.5982959 532.37319336 140.1965918 531.74638672 139.78271484 531.10058594 C95.57508199 460.61700599 88.06409977 363.96065292 70.95727539 255.16842651 C65.43900376 219.03256305 59.14124732 183.40392496 50 148 C49.8287561 147.33436035 49.65751221 146.6687207 49.4810791 145.98291016 C37.27086139 98.61197384 22.25517747 50.99313418 1.92871094 6.43774414 C0 2.19061697 0 2.19061697 0 0 Z " transform="translate(1348,770)" style="fill: #65B32C;"/><path d="M0 0 C41.188125 -0.04125 82.37625 -0.0825 124.8125 -0.125 C137.7544458 -0.14320801 150.6963916 -0.16141602 164.03051758 -0.18017578 C179.9954834 -0.18920898 179.9954834 -0.18920898 187.50053406 -0.19088745 C192.67401113 -0.19272945 197.84745564 -0.2000108 203.0209198 -0.21115112 C301.45295346 -0.41588893 301.45295346 -0.41588893 343 13 C343.80115234 13.25475098 344.60230469 13.50950195 345.42773438 13.77197266 C378.91717383 24.63764717 409.30876719 44.80436208 426.1875 76.34765625 C433.9617046 91.60370925 438.44343226 108.89159152 439 126 C439.03996094 126.90105469 439.07992187 127.80210937 439.12109375 128.73046875 C439.85205491 159.90381247 430.336763 191.96886451 408.8125 215.0625 C406.89368176 217.06120667 404.94955062 219.03092598 403 221 C402.39800781 221.66257812 401.79601563 222.32515625 401.17578125 223.0078125 C394.76929411 229.9468288 386.36894508 235.62689012 378.125 240.17578125 C374.94785258 241.64847051 374.94785258 241.64847051 374 244 C375.155 244.165 376.31 244.33 377.5 244.5 C385.21452956 246.21299003 392.09485252 250.283706 399 254 C400.10472656 254.59425781 401.20945313 255.18851563 402.34765625 255.80078125 C409.12134531 259.60278737 415.1117147 263.944784 421 269 C421.82242188 269.68835937 422.64484375 270.37671875 423.4921875 271.0859375 C449.09400117 293.1784683 461.3069369 323.98825881 464 357 C466.16322242 391.33566947 457.68692941 424.66435335 434.85571289 450.91772461 C418.68431927 468.88090331 398.40294144 480.50184578 376 489 C375.28827637 489.27295898 374.57655273 489.54591797 373.84326172 489.82714844 C354.56004367 497.09146667 334.27010984 500.85422755 313.875 503.3125 C312.86927444 503.43446747 312.86927444 503.43446747 311.8432312 503.55889893 C292.30888313 505.88516696 272.92490253 506.14166876 253.27514648 506.11352539 C250.45961768 506.11265951 247.64408966 506.11330913 244.82856083 506.11389065 C238.089121 506.11441856 231.34969469 506.10983811 224.61025831 506.10338932 C216.80140954 506.09614333 208.99256869 506.09539207 201.18371582 506.09460449 C180.60164176 506.08937024 160.01957067 506.07540899 139.4375 506.0625 C93.423125 506.041875 47.40875 506.02125 0 506 C0 339.02 0 172.04 0 0 Z M117 89 C117 127.94 117 166.88 117 207 C140.15037539 207.08756008 140.15037539 207.08756008 163.30078125 207.14648438 C172.75639794 207.16420949 182.2119338 207.1849207 191.66748047 207.22631836 C198.55727004 207.25646809 205.44699334 207.27563282 212.33684707 207.28226548 C215.97609537 207.28613506 219.61515429 207.29505623 223.25434113 207.31719017 C251.55562071 207.48229521 283.94042996 206.95263209 305.93359375 186.2578125 C317.83412149 173.25496744 320.6954971 158.164601 320.13183594 141.20605469 C319.41747036 129.25233735 313.808756 117.17531736 305 109 C279.31001201 87.80225034 245.03734047 88.83030435 213.64181256 88.89860606 C210.23459403 88.90493279 206.82737426 88.90545067 203.42015076 88.90663147 C196.99264392 88.90971768 190.56515445 88.91789385 184.1376552 88.92798096 C176.08851828 88.94033404 168.03937843 88.94574625 159.99023438 88.95117188 C145.66014278 88.96086137 131.33008899 88.9809017 117 89 Z M117 293 C117 333.92 117 374.84 117 417 C143.2519397 417.08757319 143.2519397 417.08757319 169.50390625 417.14648438 C180.22774621 417.16420314 190.95151485 417.18489606 201.67529297 417.22631836 C209.48949591 417.25648723 217.30364032 417.27563723 225.11789989 417.28226548 C229.24463854 417.2861319 233.37120996 417.29503197 237.49789429 417.31719017 C287.74445869 418.01312818 287.74445869 418.01312818 331.00708008 395.32519531 C335.5624376 390.73174042 338.53168955 385.94192615 341 380 C341.40992187 379.07316406 341.81984375 378.14632812 342.2421875 377.19140625 C347.66502892 362.81152677 346.86171897 344.20376903 340.78125 330.19140625 C332.70800732 314.02249521 318.8421017 304.65185299 302 299 C279.10718682 292.12230732 255.04105766 292.71000254 231.38907981 292.79721212 C227.35329118 292.80990226 223.31749801 292.81090412 219.2816925 292.81326294 C211.67501385 292.81942494 204.0683942 292.83576248 196.46174127 292.85596192 C186.15765428 292.88271756 175.85355061 292.89333634 165.54943752 292.90496635 C149.36624768 292.92364832 133.1831822 292.96352857 117 293 Z " transform="translate(3837,2018)" style="fill: #000000;"/><path d="M0 0 C0.88204102 0.29632324 1.76408203 0.59264648 2.67285156 0.89794922 C36.82817929 12.50161727 67.83944044 30.34999938 94.50390625 54.7265625 C96.14162692 56.21819541 97.79495423 57.69290781 99.46484375 59.1484375 C146.00497892 99.88024617 172.63790158 163.10839264 177 224 C177.34085769 231.18429744 177.34150787 238.37172744 177.3125 245.5625 C177.31034485 246.52799774 177.3081897 247.49349548 177.30596924 248.48825073 C177.25227716 263.51349882 176.75831028 278.18988119 174 293 C173.80132324 294.07378906 173.60264648 295.14757813 173.39794922 296.25390625 C164.76144704 341.33191911 145.45933013 382.58371762 115 417 C114.22914063 417.88171875 113.45828125 418.7634375 112.6640625 419.671875 C104.11655026 429.32906426 95.0994207 437.9820274 85 446 C83.86884766 446.94939453 83.86884766 446.94939453 82.71484375 447.91796875 C44.41898814 479.77644212 -5.14840942 498.06303753 -54 505 C-54.77762695 505.11182617 -55.55525391 505.22365234 -56.35644531 505.33886719 C-129.55942494 515.43253598 -208.32801805 499.96676574 -269 457 C-269.97018066 456.31599121 -269.97018066 456.31599121 -270.95996094 455.61816406 C-280.70779639 448.68668712 -289.60713191 441.12722737 -298.17089844 432.78222656 C-299.99177762 431.00801167 -301.82753929 429.25018486 -303.6640625 427.4921875 C-311.55085988 419.86138571 -318.48787463 411.82518885 -325 403 C-325.42764648 402.42781738 -325.85529297 401.85563477 -326.29589844 401.26611328 C-368.20305477 345.0356556 -382.70058678 273.74046177 -373.1875 204.84765625 C-371.15557467 191.27084985 -368.02835757 178.1167853 -364 165 C-363.75443359 164.1867627 -363.50886719 163.37352539 -363.25585938 162.53564453 C-354.37280321 133.65399294 -339.44270447 106.1175135 -320 83 C-319.04671459 81.84258002 -318.09359266 80.68502537 -317.140625 79.52734375 C-306.86825718 67.17930108 -295.71968715 55.83633838 -283 46 C-281.72351588 44.98362835 -280.44750814 43.96665824 -279.171875 42.94921875 C-269.25149324 35.11329331 -258.9971186 28.23147468 -248 22 C-247.1961084 21.54383301 -246.3922168 21.08766602 -245.56396484 20.61767578 C-215.59592745 3.82640635 -182.89544963 -6.74378602 -149 -12 C-147.9598877 -12.16371094 -146.91977539 -12.32742188 -145.84814453 -12.49609375 C-97.60301386 -19.71980396 -46.17409409 -15.64553964 0 0 Z M-197 117 C-197.52819336 117.42958008 -198.05638672 117.85916016 -198.60058594 118.30175781 C-225.27794742 140.11757148 -244.08332597 169.27875518 -252 203 C-252.19609863 203.81484863 -252.39219727 204.62969727 -252.59423828 205.46923828 C-258.31420001 230.34616095 -258.96545804 260.0682759 -253 285 C-252.80664062 285.8259668 -252.61328125 286.65193359 -252.4140625 287.50292969 C-242.69949996 327.6354666 -219.55337871 362.59689329 -184.1640625 384.3984375 C-146.72553575 406.68674331 -100.94499305 413.20589487 -58.63671875 402.7109375 C-18.64263286 392.17019686 14.76990896 368.85483441 36 333 C36.34804687 332.41379883 36.69609375 331.82759766 37.0546875 331.22363281 C60.17758874 291.64956969 63.83282525 241.76608868 52.375 197.9375 C45.79654025 174.4724527 34.72591039 152.81570059 18 135 C17.43265137 134.39027344 16.86530273 133.78054687 16.28076172 133.15234375 C-11.77722204 103.27613625 -50.98335053 86.32590313 -91.95410156 84.93359375 C-129.05572579 83.9063222 -167.75002969 93.16345703 -197 117 Z " transform="translate(3573,2025)" style="fill: #000000;"/><path d="M0 0 C2.65911703 2.45111427 5.25869243 4.96073164 7.85424805 7.47875977 C8.39533203 7.9940625 8.93641602 8.50936523 9.49389648 9.0402832 C36.41356417 34.69685797 56.75535994 68.71310158 66.85424805 104.47875977 C50.92088679 104.68911926 34.98790108 104.84776471 19.05349541 104.94506931 C11.65457584 104.99145349 4.25651963 105.05467339 -3.1418457 105.15771484 C-9.59129219 105.24749723 -16.04011345 105.30550088 -22.4901675 105.32555622 C-25.90499019 105.33727851 -29.31802452 105.36476404 -32.7322731 105.43033028 C-36.54712561 105.49559604 -40.35826379 105.50466485 -44.17358398 105.50048828 C-45.86643776 105.54902451 -45.86643776 105.54902451 -47.5934906 105.59854126 C-55.09913606 105.50952605 -55.09913606 105.50952605 -58.13740158 102.51727104 C-59.67421518 100.23080514 -60.92404087 97.94452635 -62.14575195 95.47875977 C-83.60564189 65.25514515 -111.74890287 46.73765793 -148.29345703 40.05151367 C-191.19732074 32.83301523 -237.17637713 40.11501964 -273.14575195 65.47875977 C-276.58970237 68.02499799 -279.88619964 70.70101157 -283.14575195 73.47875977 C-284.09321289 74.27926758 -285.04067383 75.07977539 -286.0168457 75.90454102 C-319.45947655 105.259256 -335.30365556 149.99774098 -338.14575195 193.47875977 C-340.40568314 243.53787309 -329.95115431 295.0858049 -295.36450195 333.07641602 C-276.71118413 353.02018011 -252.50759914 367.36534113 -226.14575195 374.47875977 C-225.42693848 374.67405273 -224.708125 374.8693457 -223.9675293 375.07055664 C-207.95786406 379.32072028 -192.21632922 380.89839741 -175.70825195 380.85375977 C-174.46093292 380.85194702 -174.46093292 380.85194702 -173.18841553 380.85009766 C-130.31778119 380.68174806 -93.40617857 366.63789453 -62.96606445 336.30688477 C-43.36357792 315.36607585 -34.06907222 288.41804867 -26.14575195 261.47875977 C-85.87575195 261.47875977 -145.60575195 261.47875977 -207.14575195 261.47875977 C-207.14575195 234.41875977 -207.14575195 207.35875977 -207.14575195 179.47875977 C-112.43575195 179.47875977 -17.72575195 179.47875977 79.85424805 179.47875977 C79.85424805 280.85225792 79.85424805 280.85225792 71.10424805 305.04125977 C70.59728394 306.46402222 70.59728394 306.46402222 70.08007812 307.91552734 C59.13504399 338.01249063 43.20119954 365.56750989 21.85424805 389.47875977 C20.7540332 390.74333008 20.7540332 390.74333008 19.6315918 392.03344727 C10.18500279 402.76586963 0.1448475 412.69365851 -11.14575195 421.47875977 C-12.5843457 422.6427832 -12.5843457 422.6427832 -14.05200195 423.83032227 C-70.73307165 468.91753679 -144.22433327 484.01736258 -215.14575195 476.47875977 C-282.45836548 468.09067919 -348.20897748 436.62301531 -390.8137207 382.55688477 C-391.58329102 381.54110352 -392.35286133 380.52532227 -393.14575195 379.47875977 C-393.62866699 378.84518555 -394.11158203 378.21161133 -394.60913086 377.55883789 C-440.0405449 317.57986863 -456.47246278 241.58327142 -446.75512695 167.50073242 C-439.13810762 113.29118161 -417.23697613 63.31665609 -380.2668457 22.82250977 C-378.32743693 20.67951664 -376.45245897 18.49531339 -374.58325195 16.29125977 C-371.70473753 12.99021112 -368.61846006 10.12649242 -365.2746582 7.30297852 C-363.83522979 6.06956004 -362.42643074 4.7996241 -361.0480957 3.49829102 C-349.96483987 -6.93859999 -337.1346328 -15.87256534 -323.96020508 -23.47290039 C-322.66268775 -24.22256931 -321.37025767 -24.98107093 -320.08129883 -25.74536133 C-235.17137392 -75.9075895 -120.42061514 -73.80999163 0 0 Z " transform="translate(2616.145751953125,2066.521240234375)" style="fill: #000000;"/><path d="M0 0 C38.28 0 76.56 0 116 0 C123.8707483 15.7414966 123.8707483 15.7414966 126.5859375 21.90625 C127.03399498 22.91913589 127.03399498 22.91913589 127.49110413 23.95248413 C128.1263825 25.38953116 128.76018293 26.8272324 129.39254761 28.26556396 C130.76825747 31.39440329 132.15173446 34.51979185 133.53459167 37.64547729 C134.26169788 39.2891325 134.98843053 40.932953 135.71479797 42.57693481 C139.59450359 51.35543847 143.51439907 60.11582548 147.4375 68.875 C148.15116442 70.46930114 148.86478728 72.06362089 149.57836914 73.65795898 C152.41161643 79.98774417 155.2460906 86.31697966 158.08105469 92.64599609 C160.15876757 97.2845781 162.2358763 101.92343028 164.3125 106.5625 C164.65853271 107.3354541 165.00456543 108.1084082 165.36108398 108.90478516 C170.81810984 121.09689986 176.24663861 133.30152024 181.66595459 145.51043701 C188.46899941 160.83647274 195.29833913 176.14996309 202.1875 191.4375 C202.55739044 192.25834076 202.92728088 193.07918152 203.30838013 193.92489624 C204.05160917 195.57417349 204.79483934 197.22345023 205.53807068 198.87272644 C206.08576866 200.08814873 206.08576866 200.08814873 206.64453125 201.328125 C207.18926842 202.53696098 207.18926842 202.53696098 207.74501038 203.7702179 C211.63431437 212.40365316 215.50788784 221.04410445 219.375 229.6875 C219.7196228 230.45772491 220.06424561 231.22794983 220.41931152 232.02151489 C226.70907834 246.08305058 232.95978402 260.16185631 239.20980835 274.24108887 C245.16632748 287.65623198 251.15702268 301.05544285 257.1875 314.4375 C257.74233566 315.66876114 257.74233566 315.66876114 258.30838013 316.92489624 C259.05160917 318.57417349 259.79483934 320.22345023 260.53807068 321.87272644 C261.08576866 323.08814873 261.08576866 323.08814873 261.64453125 324.328125 C262.00768936 325.13401566 262.37084747 325.93990631 262.74501038 326.7702179 C266.63431437 335.40365316 270.50788784 344.04410445 274.375 352.6875 C274.8919342 353.84283737 274.8919342 353.84283737 275.41931152 355.02151489 C281.70907834 369.08305058 287.95978402 383.16185631 294.20980835 397.24108887 C300.89167917 412.28985331 307.62468057 427.31490937 314.39086914 442.32592773 C319.73752061 454.18815742 325.06330934 466.05957408 330.375 477.9375 C330.73443695 478.74113983 331.0938739 479.54477966 331.46420288 480.37277222 C333.0998815 484.03016001 334.73446962 487.68802182 336.36621094 491.34716797 C337.35548568 493.56401875 338.35358192 495.77582422 339.36035156 497.98486328 C342 503.79416831 342 503.79416831 342 506 C301.08 506 260.16 506 218 506 C199.6686551 462.46305586 199.6686551 462.46305586 193.75 447.9375 C192.43322172 444.71316121 191.11518896 441.48933617 189.796875 438.265625 C189.47851685 437.48668381 189.16015869 436.70774261 188.83215332 435.90519714 C186.68317887 430.65274978 184.51256636 425.40966287 182.328125 420.171875 C182.04209412 419.48513199 181.75606323 418.79838898 181.46136475 418.09083557 C180.12912976 414.89267602 178.79360276 411.69602064 177.45214844 408.50170898 C176.99356445 407.40157471 176.53498047 406.30144043 176.0625 405.16796875 C175.66160156 404.21172607 175.26070312 403.2554834 174.84765625 402.27026367 C174 400 174 400 174 398 C96.78 398 19.56 398 -60 398 C-61.485 402.455 -61.485 402.455 -63 407 C-64.04057887 409.67058807 -65.09783325 412.32227069 -66.1953125 414.96875 C-66.65247147 416.08132172 -66.65247147 416.08132172 -67.11886597 417.21636963 C-68.11794769 419.64547871 -69.1213795 422.07276306 -70.125 424.5 C-70.83223595 426.21638702 -71.53926318 427.93286006 -72.24609375 429.64941406 C-74.49265326 435.10157302 -76.74597845 440.55092269 -79 446 C-79.7614107 447.84178965 -80.52280397 449.68358651 -81.28417969 451.52539062 C-83.52072734 456.93444719 -85.75959073 462.34254183 -88 467.75 C-88.34436096 468.58120361 -88.68872192 469.41240723 -89.04351807 470.26879883 C-89.37994324 471.08050537 -89.71636841 471.89221191 -90.06298828 472.72851562 C-90.35424591 473.4312561 -90.64550354 474.13399658 -90.94558716 474.85803223 C-95.26371807 485.25344955 -99.631595 495.62503813 -104 506 C-143.93 506 -183.86 506 -225 506 C-221.62526037 495.8757811 -221.62526037 495.8757811 -220.10571289 492.55126953 C-219.59282715 491.42004921 -219.59282715 491.42004921 -219.06958008 490.26597595 C-218.70759521 489.47953201 -218.34561035 488.69308807 -217.97265625 487.8828125 C-217.39572021 486.6145034 -217.39572021 486.6145034 -216.80712891 485.3205719 C-215.98731035 483.51949749 -215.1654964 481.7193302 -214.34182739 479.92001343 C-212.6020245 476.11897511 -210.87238562 472.31334105 -209.14219666 468.50791931 C-208.27896301 466.60947482 -207.41524699 464.71124959 -206.55104065 462.81324768 C-203.35256937 455.78686863 -200.18855611 448.74644713 -197.0625 441.6875 C-196.61011963 440.6665625 -196.15773926 439.645625 -195.69165039 438.59375 C-194.7044501 436.36488005 -193.71756939 434.13586854 -192.73095703 431.90673828 C-188.99707865 423.47516022 -185.24610922 415.05114853 -181.5 406.625 C-179.76290805 402.71749804 -178.02593284 398.80994422 -176.2890625 394.90234375 C-175.85191422 393.91885956 -175.41476593 392.93537537 -174.96437073 391.92208862 C-172.36190229 386.0664224 -169.7613221 380.20992215 -167.16244507 374.35266113 C-165.06726729 369.63065781 -162.97133865 364.90898806 -160.875 360.1875 C-160.46066711 359.25427917 -160.04633423 358.32105835 -159.6194458 357.35955811 C-153.38015095 343.31089318 -147.08407035 329.28865429 -140.75918579 315.27835083 C-134.72801548 301.91224592 -128.81439651 288.4973475 -122.9418335 275.06091309 C-116.84132702 261.11035597 -110.60257461 247.22673046 -104.30252075 233.36529541 C-98.43609525 220.45248764 -92.67680733 207.49722816 -87 194.5 C-80.55066463 179.7340447 -73.96939268 165.03355576 -67.30224609 150.36474609 C-61.4359168 137.45212 -55.67672517 124.49704006 -50 111.5 C-43.55566858 96.74550138 -36.9814658 82.05546229 -30.31735229 67.39898682 C-23.33649628 52.04005549 -16.5185594 36.61347703 -9.78515625 21.14453125 C-9.42582504 20.32095123 -9.06649384 19.49737122 -8.6962738 18.64883423 C-8.03311796 17.12848721 -7.37170615 15.60737754 -6.71253967 14.08529663 C-4.62093478 9.29205739 -2.34618619 4.69237239 0 0 Z M57 118 C52.67439346 127.08219577 48.78576951 136.27839588 45.05383301 145.615448 C39.58772247 159.28054474 33.98730665 172.88421457 28.25 186.4375 C22.32984536 200.43143805 16.48101421 214.45314225 10.6875 228.5 C10.29598755 229.44915283 9.9044751 230.39830566 9.50109863 231.3762207 C7.49777358 236.23370226 5.49545436 241.09159764 3.49365234 245.94970703 C-0.41187961 255.4271132 -4.32369504 264.9019255 -8.23617554 274.37646484 C-9.47344161 277.37317447 -10.71002919 280.37016337 -11.9465332 283.3671875 C-12.70391323 285.20183347 -13.46131753 287.03646943 -14.21875 288.87109375 C-14.55851364 289.69504135 -14.89827728 290.51898895 -15.24833679 291.36790466 C-15.56792862 292.14166946 -15.88752045 292.91543427 -16.21679688 293.71264648 C-16.51642334 294.4398288 -16.8160498 295.16701111 -17.12475586 295.91622925 C-17.96611505 297.91932712 -18.8492896 299.89988547 -19.73632812 301.88305664 C-21.18785845 304.90280695 -21.18785845 304.90280695 -21 308 C30.81 308 82.62 308 136 308 C134.07593852 302.22781555 132.1266108 296.63036122 129.8046875 291.03125 C129.34814034 289.9201738 129.34814034 289.9201738 128.88237 288.78665161 C127.88286987 286.35653821 126.87901423 283.92825147 125.875 281.5 C125.16116925 279.76750093 124.44755057 278.03491447 123.73413086 276.30224609 C121.49431262 270.86613812 119.24792443 265.4327601 117 260 C116.64387634 259.13910767 116.28775269 258.27821533 115.9208374 257.39123535 C111.33318832 246.30236951 106.73462716 235.21804451 102.13232422 224.13525391 C98.97715162 216.53722653 95.82448599 208.93815958 92.67272949 201.3387146 C91.97642559 199.65983365 91.28005556 197.98098012 90.58361816 196.30215454 C86.3521318 186.10122339 82.12972709 175.89659328 77.91796875 165.6875 C77.27800964 164.1365992 77.27800964 164.1365992 76.62512207 162.55436707 C74.55495071 157.53717912 72.48579152 152.51957824 70.41845703 147.5012207 C66.35093477 137.63560547 62.24404551 127.79116903 58 118 C57.67 118 57.34 118 57 118 Z " transform="translate(4547,2018)" style="fill: #000000;"/><path d="M0 0 C1.36819885 -0.00101212 1.36819885 -0.00101212 2.76403809 -0.00204468 C54.937056 0.05860053 105.24358304 10.25390797 154.1875 28.25 C154.1875 28.91 154.1875 29.57 154.1875 30.25 C153.40552246 30.57049316 152.62354492 30.89098633 151.81787109 31.22119141 C82.52933362 59.71263801 9.55661918 95.1000055 -37.8125 155.25 C-38.77978314 156.43065938 -39.75003164 157.60889327 -40.72265625 158.78515625 C-48.80262603 168.5745185 -56.49236274 178.62617357 -64.03076172 188.83740234 C-65.14632243 190.3479492 -66.26469306 191.85642945 -67.38720703 193.36181641 C-86.87079736 219.50362876 -104.38303801 247.28650965 -121.88305664 274.7746582 C-134.57595434 294.701678 -147.64778823 314.10206624 -162.8125 332.25 C-163.24852539 332.77239258 -163.68455078 333.29478516 -164.13378906 333.83300781 C-170.21546685 341.10767996 -176.42437684 348.24156505 -182.8125 355.25 C-183.64136719 356.18328125 -184.47023437 357.1165625 -185.32421875 358.078125 C-210.34738037 386.12092411 -241.72031287 408.42002675 -279.8125 413.25 C-324.3367615 415.66780313 -365.24735938 403.22979287 -403.8125 381.25 C-404.46041504 380.89309082 -405.10833008 380.53618164 -405.77587891 380.16845703 C-407.53703146 379.1887095 -409.26973786 378.15832302 -411 377.125 C-412.41345703 376.28582031 -412.41345703 376.28582031 -413.85546875 375.4296875 C-415.8125 373.25 -415.8125 373.25 -416.24609375 369.875 C-415.85215162 363.66201064 -414.7336199 357.50434003 -413.6875 351.375 C-413.57579468 350.71694366 -413.46408936 350.05888733 -413.34899902 349.38088989 C-404.16070832 295.55970737 -385.18424316 243.4096271 -355.8125 197.25 C-355.0712085 196.08307617 -355.0712085 196.08307617 -354.31494141 194.89257812 C-343.34115053 177.76522589 -331.30864788 161.46862922 -317.8125 146.25 C-316.62455822 144.87538166 -315.4369873 143.50044262 -314.25 142.125 C-302.52420396 128.82451673 -290.40995205 115.66885476 -276.8125 104.25 C-275.80198211 103.36618525 -274.79301704 102.48059359 -273.78515625 101.59375 C-204.69122468 41.07438927 -115.2044052 6.05882132 0 0 Z " transform="translate(4896.8125,937.75)" style="fill: #75BC35;"/><path d="M0 0 C39.71182109 -0.77776608 81.47164128 12.92912558 114.94189453 33.92041016 C116.91278263 35.17714265 116.91278263 35.17714265 119.19482422 36.25537109 C121.70445347 37.68439758 123.22197121 38.75128936 124.890625 41.12109375 C125.44245137 45.92013605 124.69626962 50.38222836 123.890625 55.12109375 C123.74093262 56.19069336 123.59124023 57.26029297 123.43701172 58.36230469 C117.92994492 96.06951504 106.97073668 133.08625841 91.01660156 167.67529297 C89.97308461 169.94197832 88.95574644 172.21842553 87.9453125 174.5 C73.53046434 206.60459908 53.44643232 236.22578256 30.890625 263.12109375 C30.3548584 263.76127441 29.8190918 264.40145508 29.26708984 265.06103516 C24.19404891 271.10358377 19.12576777 277.10228063 13.43359375 282.578125 C11.8076453 284.20407345 10.36137422 285.91647189 8.890625 287.68359375 C3.64403188 293.77106297 -2.41772501 299.08070625 -8.33789062 304.49804688 C-9.83591931 305.87055166 -11.32520555 307.25258923 -12.8125 308.63671875 C-19.0141217 314.34549634 -25.55749865 319.55584562 -32.23974609 324.68408203 C-33.4723856 325.63149861 -34.70196289 326.58291459 -35.92822266 327.53857422 C-70.6088749 354.55776117 -109.78433336 375.32291084 -151.109375 390.12109375 C-151.98368164 390.44126465 -152.85798828 390.76143555 -153.75878906 391.09130859 C-193.89487431 405.71954782 -237.49694852 413.12721791 -280.109375 414.12109375 C-280.99383301 414.14300781 -281.87829102 414.16492187 -282.78955078 414.1875 C-333.00570419 415.24116994 -382.17041296 407.06489139 -429.796875 391.37109375 C-430.6520874 391.08951416 -431.5072998 390.80793457 -432.38842773 390.51782227 C-436.82253206 389.0180188 -440.97058919 387.34092717 -445.109375 385.12109375 C-443.68943965 382.28122305 -442.02904215 382.11671062 -439.08984375 380.9765625 C-438.01943848 380.55407227 -436.9490332 380.13158203 -435.84619141 379.69628906 C-434.08927979 379.00937988 -434.08927979 379.00937988 -432.296875 378.30859375 C-397.29434651 364.30758235 -363.95011476 347.25748769 -332.109375 327.12109375 C-331.32900879 326.62770508 -330.54864258 326.13431641 -329.74462891 325.62597656 C-313.64914435 315.3600813 -298.30933673 303.87860194 -284.109375 291.12109375 C-283.56667969 290.63479492 -283.02398437 290.14849609 -282.46484375 289.64746094 C-278.97606637 286.51047555 -275.53023661 283.33199229 -272.109375 280.12109375 C-271.45453125 279.50878906 -270.7996875 278.89648438 -270.125 278.265625 C-265.89894145 274.18495837 -262.23867274 269.71026343 -258.55859375 265.13671875 C-256.4294997 262.51525047 -254.2621643 259.9387238 -252.06567383 257.37426758 C-246.63573188 251.03125079 -241.45705577 244.5376863 -236.42919922 237.87060547 C-235.03676463 236.02484405 -233.63754169 234.18434083 -232.23828125 232.34375 C-219.9972508 216.18665886 -208.57935051 199.49839868 -197.359375 182.62109375 C-196.74553955 181.69945435 -196.1317041 180.77781494 -195.49926758 179.82824707 C-187.81627767 168.29079262 -180.21902623 156.70960841 -172.79101562 145.00610352 C-158.53089728 122.5823349 -144.06868371 100.2752986 -126.6796875 80.125 C-124.32590165 77.37414693 -122.05523114 74.57528899 -119.796875 71.74609375 C-91.19982139 36.67519734 -54.92697613 5.36292177 -8.359375 0.37109375 C-5.57365762 0.19804161 -2.7889789 0.10861601 0 0 Z " transform="translate(5190.109375,1370.87890625)" style="fill: #75BC35;"/><path d="M0 0 C50.16 0 100.32 0 152 0 C152 226.05 152 452.1 152 685 C101.84 685 51.68 685 0 685 C0 458.95 0 232.9 0 0 Z " transform="translate(3452,1069)" style="fill: #000000;"/><path d="M0 0 C1.59328125 0.85078125 1.59328125 0.85078125 3.21875 1.71875 C15.82859551 8.75371645 26.63874524 18.02014112 37 28 C37.57427734 28.55236328 38.14855469 29.10472656 38.74023438 29.67382812 C46.3751205 37.06109632 53.44655605 44.62240155 60 53 C60.96426305 54.19943273 61.93053427 55.39725284 62.8984375 56.59375 C68.26178538 63.23218043 73.50837354 69.93601224 78.6015625 76.78515625 C86.10738256 86.87290162 93.79598906 96.81639368 101.68408203 106.60766602 C104.90745879 110.61416831 108.06762671 114.66249798 111.1875 118.75 C115.6671101 124.60605125 120.27002585 130.3440929 125 136 C125.44037598 136.52674316 125.88075195 137.05348633 126.33447266 137.59619141 C158.8207831 176.31987346 196.73935435 206.51765223 248 214 C248 231.19485247 219.86891647 253.31858353 208.27075195 264.91674805 C203.56361068 269.56508287 198.78387589 273.90690155 193.5703125 277.984375 C190.82436275 280.13773377 188.20351529 282.40695755 185.5625 284.6875 C171.14791503 296.68415459 155.25711523 306.71330004 139 316 C138.13149414 316.49741699 137.26298828 316.99483398 136.36816406 317.50732422 C109.99267781 332.50675584 82.41472704 343.71190989 53.625 353.1875 C52.72185059 353.49139648 51.81870117 353.79529297 50.88818359 354.10839844 C50.05109863 354.37555664 49.21401367 354.64271484 48.3515625 354.91796875 C47.62791504 355.15281982 46.90426758 355.3876709 46.15869141 355.62963867 C41.48015809 356.43232302 37.80272336 354.58495177 33.7109375 352.48046875 C32.69636475 351.95888184 31.68179199 351.43729492 30.63647461 350.89990234 C29.56018799 350.33480957 28.48390137 349.7697168 27.375 349.1875 C25.70352905 348.31279053 25.70352905 348.31279053 23.99829102 347.42041016 C13.98764609 342.11285384 4.41902113 336.28863851 -5 330 C-5.68852051 329.54415527 -6.37704102 329.08831055 -7.08642578 328.61865234 C-26.24062041 315.89345347 -44.06897232 301.5444349 -61 286 C-61.55945312 285.49098145 -62.11890625 284.98196289 -62.6953125 284.45751953 C-71.10064177 276.80106934 -79.10703781 268.93901798 -86.68603516 260.46240234 C-87.89621173 259.11551315 -89.12501988 257.7854263 -90.35546875 256.45703125 C-112.01107959 232.96165171 -129.55761993 205.85569829 -145 178 C-145.4316748 177.22994629 -145.86334961 176.45989258 -146.30810547 175.66650391 C-173.30387546 127.29337291 -194.96218281 63.06901675 -194 7 C-133.41092182 -19.36909447 -60.86690428 -32.82419042 0 0 Z " transform="translate(4673,1387)" style="fill: #2A68B0;"/><path d="M0 0 C0.91225342 0.48662109 1.82450684 0.97324219 2.7644043 1.47460938 C32.52628378 17.57341675 60.84033718 37.45130165 85.53125 60.6171875 C87.7280116 62.6510025 89.9492347 64.61967857 92.21484375 66.57421875 C96.46434946 70.27685773 100.46479413 74.1916746 104.4375 78.1875 C105.10587891 78.85201172 105.77425781 79.51652344 106.46289062 80.20117188 C110.97238548 84.71943154 115.21598436 89.40932126 119.375 94.25 C120.33625853 95.34461231 121.29844816 96.43840791 122.26171875 97.53125 C156.1072694 136.27070852 181.90308908 181.99598442 199.375 230.25 C199.73867676 231.25434082 200.10235352 232.25868164 200.47705078 233.29345703 C212.5216739 266.99283404 222.59857194 306.11229359 222.375 342.25 C212.75098741 347.36045063 203.15599027 351.42199834 192.8125 354.8125 C192.10755402 355.04645477 191.40260803 355.28040955 190.67630005 355.52145386 C165.22107022 363.91926504 139.14246049 368.63131426 112.32226562 368.56567383 C109.64151032 368.56251943 106.96186973 368.5860624 104.28125 368.61132812 C88.63606489 368.66923116 72.99663223 367.14492573 57.9375 362.6875 C57.08462402 362.43774414 56.23174805 362.18798828 55.35302734 361.93066406 C21.09222577 351.33970839 -7.54924231 326.86199786 -29.625 299.25 C-30.5997201 298.06358811 -31.57638572 296.87877271 -32.5546875 295.6953125 C-39.32763249 287.48003952 -45.81169486 279.08696141 -52.16943359 270.54663086 C-57.11164912 263.91156891 -62.17001775 257.38221449 -67.31445312 250.90332031 C-69.13058616 248.61217782 -70.93606681 246.3127441 -72.74121094 244.01293945 C-73.66053087 242.84173104 -74.58044878 241.67099175 -75.50097656 240.50073242 C-77.79996414 237.57797902 -80.09296481 234.65085706 -82.375 231.71484375 C-87.34084706 225.33786407 -92.3937199 219.06194055 -97.65380859 212.92456055 C-100.43633857 209.67597406 -103.10969509 206.36638876 -105.75 203 C-115.3330424 191.24526094 -126.52129513 180.38294982 -138.625 171.25 C-139.1730127 170.82557617 -139.72102539 170.40115234 -140.28564453 169.96386719 C-164.17399792 151.47937767 -190.89454582 140.38526027 -220.625 135.25 C-215.75755112 121.89995817 -204.06428935 110.56415032 -194.625 100.25 C-193.78066406 99.30125 -192.93632812 98.3525 -192.06640625 97.375 C-185.3395255 89.84568349 -178.18257951 82.94094689 -170.625 76.25 C-169.86413086 75.57203369 -169.86413086 75.57203369 -169.08789062 74.88037109 C-144.50471105 53.10374468 -116.112022 35.35259042 -86.54785156 21.17675781 C-84.61508443 20.24522099 -82.69419384 19.29195692 -80.7734375 18.3359375 C-63.77373522 9.98241926 -45.90019 3.51104485 -27.9375 -2.4375 C-26.38869141 -2.9644043 -26.38869141 -2.9644043 -24.80859375 -3.50195312 C-14.83153259 -6.71075595 -8.98198722 -4.85939707 0 0 Z " transform="translate(5094.625,985.75)" style="fill: #FF4E00;"/><path d="M0 0 C38.94 0 77.88 0 118 0 C118 135.3 118 270.6 118 410 C201.49 410 284.98 410 371 410 C371 441.68 371 473.36 371 506 C248.57 506 126.14 506 0 506 C0 339.02 0 172.04 0 0 Z " transform="translate(4940,2018)" style="fill: #000000;"/><path d="M0 0 C38.94 0 77.88 0 118 0 C118 135.3 118 270.6 118 410 C201.49 410 284.98 410 371 410 C371 441.68 371 473.36 371 506 C248.57 506 126.14 506 0 506 C0 339.02 0 172.04 0 0 Z " transform="translate(2802,2018)" style="fill: #000000;"/><path d="M0 0 C2.3145536 0.00373574 4.6291088 0.00658006 6.94366455 0.00857544 C13.00000466 0.01616772 19.05624702 0.03577789 25.11254883 0.0579834 C32.39816264 0.08215867 39.68380936 0.0912438 46.9694519 0.10289001 C58.00574401 0.12220519 69.04182212 0.16055857 80.078125 0.1953125 C80.078125 16.6953125 80.078125 33.1953125 80.078125 50.1953125 C69.36794922 50.23398438 69.36794922 50.23398438 58.44140625 50.2734375 C53.89775136 50.29862617 49.35416171 50.32497476 44.81054688 50.35546875 C37.61059384 50.40368102 30.41079194 50.44777189 23.21069336 50.46630859 C17.40090782 50.48153593 11.5915197 50.51608919 5.78191185 50.56362152 C3.57377784 50.57837278 1.36558707 50.58634989 -0.84259605 50.58719635 C-20.48858822 50.60229078 -35.86659899 53.04058603 -50.8203125 66.9375 C-61.35980042 78.26059297 -65.40835146 92.12936297 -65.12890625 107.28515625 C-64.37105053 121.59861987 -58.13870549 134.24840636 -47.63671875 143.9765625 C-31.13419144 157.46352007 -12.76092842 157.81237751 7.578125 157.9453125 C9.76955413 157.97353668 11.9609619 158.00347283 14.15234375 158.03515625 C19.46113954 158.11139746 24.76853557 158.15263091 30.078125 158.1953125 C30.078125 148.6253125 30.078125 139.0553125 30.078125 129.1953125 C13.908125 129.1953125 -2.261875 129.1953125 -18.921875 129.1953125 C-18.921875 112.6953125 -18.921875 96.1953125 -18.921875 79.1953125 C13.748125 79.1953125 46.418125 79.1953125 80.078125 79.1953125 C80.078125 121.7653125 80.078125 164.3353125 80.078125 208.1953125 C64.238125 208.2365625 48.398125 208.2778125 32.078125 208.3203125 C27.1075 208.33852051 22.136875 208.35672852 17.015625 208.37548828 C10.8671875 208.38452148 10.8671875 208.38452148 7.97363281 208.38619995 C5.98599345 208.38923755 3.99835738 208.39620045 2.01074219 208.40646362 C-30.66476065 208.56650506 -60.61962946 202.22382218 -85.1640625 179.04296875 C-98.37069344 165.40609345 -107.95236222 149.55327736 -112.921875 131.1953125 C-113.24027344 130.06351563 -113.55867188 128.93171875 -113.88671875 127.765625 C-120.27414822 101.33285236 -115.09107098 73.78629678 -101.89453125 50.3515625 C-86.81129368 26.21838239 -63.85895374 8.64478668 -35.921875 2.1953125 C-35.22300674 2.02777466 -34.52413849 1.86023682 -33.80409241 1.68762207 C-22.65795403 -0.58135322 -11.31917138 -0.05387318 0 0 Z " transform="translate(4900.921875,1264.8046875)" style="fill: #000000;"/></svg>