<?xml version="1.0" encoding="UTF-8"?>
<!-- Generator: visioncortex VTracer -->
<svg id="svg" version="1.1" xmlns="http://www.w3.org/2000/svg" style="display: block;" viewBox="0 0 793 801"><path d="M0 0 C0 0.99 0 1.98 0 3 C-0.6398584 3.24943359 -1.2797168 3.49886719 -1.93896484 3.75585938 C-51.82467345 23.33404482 -100.42806385 47.82164751 -142 82 C-142.55816406 82.4552002 -143.11632812 82.91040039 -143.69140625 83.37939453 C-157.42056885 94.63402412 -170.05584148 107.0073821 -181 121 C-181.99953831 122.2251639 -183.00238715 123.44763138 -184.0078125 124.66796875 C-191.08530155 133.2644097 -197.91587552 142.00941858 -204.51269531 150.97998047 C-205.48228537 152.29685311 -206.45542884 153.61111907 -207.43261719 154.92236328 C-225.46609752 179.12454604 -241.74786944 204.75544617 -257.953125 230.203125 C-271.39046312 251.30021955 -285.07171288 272.03533913 -301.4375 291.00390625 C-303.75093413 293.70879036 -305.97462055 296.46294539 -308.1875 299.25 C-334.33986629 331.29717515 -368.32266849 360.38504654 -411 365 C-456.49249836 367.12242728 -501.56737895 352.99233345 -539 327 C-532.37302115 243.70573136 -493.35546995 162.06532519 -436.38134766 101.48291016 C-434.9389263 99.9344359 -433.52037299 98.36660682 -432.10546875 96.79296875 C-425.12761353 89.05960086 -417.7771402 81.92414916 -410 75 C-409.15211914 74.23502197 -409.15211914 74.23502197 -408.28710938 73.45458984 C-386.16033108 53.51938078 -361.46843768 36.67141313 -335.40478516 22.32568359 C-333.22367301 21.12330401 -331.05461235 19.90175879 -328.88671875 18.67578125 C-295.95511217 0.33557276 -258.85632613 -11.66189531 -222 -19 C-220.97084473 -19.20560547 -219.94168945 -19.41121094 -218.88134766 -19.62304688 C-211.94838408 -20.96951749 -204.9987353 -22.05782061 -198 -23 C-196.91428711 -23.14953125 -195.82857422 -23.2990625 -194.70996094 -23.453125 C-127.89785948 -32.26267745 -63.20638169 -21.75490191 0 0 Z " transform="translate(540,26)" style="fill: #75BC35;"/><path d="M0 0 C-0.50913952 9.18608508 -1.47224949 18.13762733 -3.125 27.1875 C-3.34454346 28.39164551 -3.56408691 29.59579102 -3.7902832 30.83642578 C-14.83337686 89.44007259 -39.06914599 145.37045108 -75 193 C-75.4429541 193.59458008 -75.8859082 194.18916016 -76.34228516 194.80175781 C-93.04909581 217.22726547 -112.56330779 239.83854377 -134.61328125 257.109375 C-136.90390402 258.92387814 -139.04098612 260.83110257 -141.1875 262.8125 C-208.87732367 323.33937936 -304.97559867 353.62697907 -394.5625 353.3125 C-395.6501767 353.31067719 -396.73785339 353.30885437 -397.85848999 353.30697632 C-415.41600008 353.25766153 -432.60822704 352.57748219 -450 350 C-451.2080127 349.82307617 -452.41602539 349.64615234 -453.66064453 349.46386719 C-477.26307444 345.90459986 -499.8038565 340.22586426 -522.4375 332.75 C-523.25437286 332.4817038 -524.07124573 332.21340759 -524.91287231 331.9369812 C-527.23550439 331.17036818 -529.55390915 330.39227998 -531.87109375 329.609375 C-532.57716766 329.376241 -533.28324158 329.14310699 -534.01071167 328.90290833 C-538.88437429 327.23125142 -538.88437429 327.23125142 -540 325 C-539.33806641 324.72438232 -538.67613281 324.44876465 -537.99414062 324.16479492 C-504.95039566 310.37477369 -472.65348058 295.59168741 -442 277 C-441.14003418 276.47905762 -440.28006836 275.95811523 -439.39404297 275.42138672 C-422.62341094 265.19731534 -406.75406892 253.97520954 -392 241 C-391.26652344 240.36578125 -390.53304687 239.7315625 -389.77734375 239.078125 C-387.83961866 237.39850643 -385.91957636 235.70030612 -384 234 C-383.22269531 233.32710937 -382.44539062 232.65421875 -381.64453125 231.9609375 C-371.69177457 223.22720063 -363.26984862 213.30695652 -355 203 C-354.08774711 201.87979484 -353.17496197 200.76002295 -352.26171875 199.640625 C-344.93505017 190.62044122 -337.96809028 181.35736978 -331.14379883 171.95239258 C-329.46704801 169.64320824 -327.78338034 167.33956169 -326.09643555 165.0378418 C-318.30547966 154.37181648 -310.90583601 143.49731455 -303.6875 132.4375 C-302.59079808 130.76401471 -301.49387107 129.09067691 -300.39672852 127.41748047 C-294.35301019 118.1895852 -288.36379015 108.92871112 -282.4375 99.625 C-267.89565204 76.80036799 -253.30973901 53.91069967 -235.23046875 33.6875 C-232.65017579 30.79419596 -230.22434128 27.79898378 -227.80078125 24.7734375 C-222.86745035 18.71929433 -217.53022422 13.13238921 -212 7.625 C-211.50032715 7.12587097 -211.0006543 6.62674194 -210.48583984 6.11248779 C-201.9119218 -2.41886035 -193.05183558 -10.23785606 -183 -17 C-182.37222656 -17.42410156 -181.74445313 -17.84820312 -181.09765625 -18.28515625 C-125.52413529 -55.14160778 -51.29265947 -35.8280187 0 0 Z " transform="translate(791,448)" style="fill: #75BC35;"/><path d="M0 0 C1.00667725 0.4786853 1.00667725 0.4786853 2.03369141 0.96704102 C34.28960296 16.47929541 63.70472151 37.83187829 90 62 C90.75925781 62.66773437 91.51851562 63.33546875 92.30078125 64.0234375 C102.83247776 73.29684621 112.99893415 83.22349456 122 94 C122.76828125 94.87914062 123.5365625 95.75828125 124.328125 96.6640625 C142.83953731 117.93935559 158.30449251 141.39574108 172 166 C172.6197168 167.10166504 172.6197168 167.10166504 173.25195312 168.22558594 C200.51513792 216.98391247 215.0970186 272.48445855 219 328 C194.58661135 341.59733039 165.61651756 348.83286886 138 352 C137.19232178 352.0928125 136.38464355 352.185625 135.55249023 352.28125 C94.58698015 356.50177905 51.02985577 350.50188491 17.88671875 324.3671875 C16.93410156 323.58601563 15.98148438 322.80484375 15 322 C14.48518066 321.58524414 13.97036133 321.17048828 13.43994141 320.74316406 C1.94034765 311.46107472 -8.64581333 301.32282827 -17.8359375 289.7265625 C-20.10370044 286.86934493 -22.45160756 284.09310665 -24.8125 281.3125 C-30.32710791 274.71207007 -35.43383671 267.82841603 -40.5625 260.92675781 C-46.71760197 252.67674681 -53.09127081 244.60383719 -59.54125977 236.58349609 C-62.72689937 232.61508767 -65.85145412 228.60887134 -68.9375 224.5625 C-77.38420109 213.51865646 -86.09260675 202.75014451 -95.59375 192.59375 C-97.59070357 190.44118966 -99.49263853 188.25145195 -101.375 186 C-127.41253018 156.11883442 -162.77604512 139.43705209 -201 132 C-191.2925249 111.40195127 -171.12916862 91.59542411 -154 77 C-153.02933594 76.15308594 -152.05867188 75.30617188 -151.05859375 74.43359375 C-112.06261136 40.62816139 -65.85692569 17.46499758 -17.125 1.1875 C-16.09117187 0.83139648 -15.05734375 0.47529297 -13.9921875 0.10839844 C-8.61448595 -1.62245938 -5.24388327 -2.70697758 0 0 Z " transform="translate(574,41)" style="fill: #FF4E00;"/><path d="M0 0 C0.52625977 0.41056641 1.05251953 0.82113281 1.59472656 1.24414062 C15.4679445 12.2080403 28.22969464 24.98440489 39 39 C40.23891122 40.55914675 41.47784789 42.11827335 42.71728516 43.67700195 C48.61459057 51.12087839 54.34629342 58.69136901 60.09155273 66.25268555 C64.74457386 72.37037279 69.45247893 78.43914072 74.21875 84.46875 C76.93047502 87.90201589 79.60982533 91.35995842 82.2890625 94.81860352 C88.08845309 102.301514 93.92808588 109.73500802 100 117 C100.81726563 118.00289062 101.63453125 119.00578125 102.4765625 120.0390625 C133.06015877 157.10556252 169.26225718 182.75438988 217 191 C215.49188997 195.39247349 213.14083407 198.95703218 210.4375 202.6875 C209.99494873 203.30254395 209.55239746 203.91758789 209.09643555 204.55126953 C205.75534631 209.12316103 202.17341547 213.38761455 198.30078125 217.5234375 C196.39023648 219.57994919 194.5488082 221.66903616 192.71484375 223.79296875 C183.39596474 234.4765893 173.17298548 244.28381945 162 253 C160.94259945 253.87825418 159.88806856 254.75997115 158.8359375 255.64453125 C120.42067041 287.65634476 73.64903222 309.71613492 26 324 C25.00871094 324.3403125 24.01742187 324.680625 22.99609375 325.03125 C17.86835239 324.97776639 13.85576501 322.30373661 9.4375 319.875 C8.42389404 319.33020996 7.41028809 318.78541992 6.3659668 318.22412109 C-16.5772316 305.73819665 -38.23209996 291.21042015 -58.26171875 274.44580078 C-59.89051734 273.09106128 -61.53377333 271.75772062 -63.1875 270.43359375 C-67.82030658 266.71350042 -72.20492128 262.94603164 -76.33203125 258.671875 C-78.10800591 256.89174115 -79.96548949 255.26065144 -81.875 253.625 C-88.47850502 247.91558657 -94.52684576 241.7008842 -100.203125 235.07421875 C-102.1746243 232.79842282 -104.21134395 230.59077333 -106.25 228.375 C-160.27465018 168.39848158 -204.64959601 77.13747628 -202 -5 C-192.72976792 -9.90219439 -183.55511579 -13.8732571 -173.5625 -17.125 C-172.91559204 -17.33722198 -172.26868408 -17.54944397 -171.60217285 -17.76809692 C-115.22243829 -36.18918978 -48.69580706 -38.16465727 0 0 Z " transform="translate(202,437)" style="fill: #2A68B0;"/><path d="M0 0 C2.1280436 0.00561045 4.25609112 0.00987368 6.38414001 0.01286316 C11.92590447 0.02419795 17.46742479 0.05356435 23.00909424 0.0869751 C29.68991299 0.12338643 36.37081437 0.13689136 43.05170441 0.15433502 C53.14791951 0.18321075 63.24360127 0.2407768 73.33984375 0.29296875 C73.33984375 15.80296875 73.33984375 31.31296875 73.33984375 47.29296875 C67.13816406 47.34195313 60.93648437 47.3909375 54.546875 47.44140625 C50.59568775 47.47683127 46.64452102 47.51281333 42.69335938 47.55078125 C36.43500862 47.61086724 30.17668627 47.66899638 23.91821289 47.71484375 C18.86713058 47.75197605 13.81620833 47.79840811 8.76526451 47.85103226 C6.84739708 47.8694289 4.92949553 47.88458991 3.0115757 47.89631271 C-17.60982183 48.02675621 -35.18262104 49.40141333 -50.81640625 64.35546875 C-61.4530998 75.46843216 -64.28567125 88.6509799 -63.97265625 103.55078125 C-63.35797678 116.48466175 -56.75640622 128.28821582 -47.47265625 137.1171875 C-44.0800541 139.74174222 -40.59417014 141.77429436 -36.78515625 143.73046875 C-36.14980957 144.06062988 -35.51446289 144.39079102 -34.85986328 144.73095703 C-22.59678459 150.62352514 -8.75409191 149.7094792 4.52734375 149.91796875 C6.54884369 149.95621729 8.57032853 149.99527283 10.59179688 150.03515625 C15.50768763 150.1304066 20.42365439 150.21470676 25.33984375 150.29296875 C25.33460693 149.72376709 25.32937012 149.15456543 25.32397461 148.56811523 C25.30301488 145.95557792 25.29012371 143.34305838 25.27734375 140.73046875 C25.26896484 139.83521484 25.26058594 138.93996094 25.25195312 138.01757812 C25.24873047 137.13779297 25.24550781 136.25800781 25.2421875 135.3515625 C25.23695068 134.55032959 25.23171387 133.74909668 25.22631836 132.92358398 C25.3656495 129.69499692 25.88282761 126.49208173 26.33984375 123.29296875 C10.82984375 123.29296875 -4.68015625 123.29296875 -20.66015625 123.29296875 C-20.66015625 107.78296875 -20.66015625 92.27296875 -20.66015625 76.29296875 C10.35984375 76.29296875 41.37984375 76.29296875 73.33984375 76.29296875 C73.33984375 116.22296875 73.33984375 156.15296875 73.33984375 197.29296875 C57.68546875 197.35484375 42.03109375 197.41671875 25.90234375 197.48046875 C18.5383728 197.52143677 18.5383728 197.52143677 11.02563477 197.56323242 C4.94519043 197.57678223 4.94519043 197.57678223 2.08213806 197.57929993 C0.1186976 197.58385135 -1.84473547 197.59428481 -3.80812073 197.60969543 C-36.32326614 197.85173883 -62.62375191 189.80263996 -86.15625 166.859375 C-104.95906708 147.01376737 -113.24839157 121.29572493 -112.87109375 94.30859375 C-112.06488338 68.37051685 -100.61467466 44.88687261 -82.19091797 26.85498047 C-72.37735493 17.67991425 -60.89382379 10.51682129 -48.28515625 5.91796875 C-47.67518799 5.69141602 -47.06521973 5.46486328 -46.43676758 5.23144531 C-31.28277831 0.11925616 -15.80823584 -0.12415881 0 0 Z " transform="translate(401.66015625,308.70703125)" style="fill: #000000;"/></svg>